<svg xmlns="http://www.w3.org/2000/svg" width="38" height="44" viewBox="0 0 38 44">
  <path id="降低招聘压力" d="M95.24,30.64H76.466a1.755,1.755,0,0,0-1.265.542,1.811,1.811,0,0,0-.5,1.3q.3,12.527.8,12.527H95.827q.741-.431,1.18-12.5a1.812,1.812,0,0,0-.494-1.313,1.755,1.755,0,0,0-1.273-.55Zm-11.789-.9c.8,0,.619-1.078.265-1.8l-3.094-6.555a.7.7,0,0,0-.354-.359l-.707-.539a1.075,1.075,0,0,0-.884-.18l-6.365,1.616a.884.884,0,0,0-.442.18c-1.238,1.257-1.238,2.335-2.21,4.31L66.744,36.3c0,3.951-.8,7.9,3.889,7.9,1.414-.09,2.21-.629,2.21-1.886V32.435c0-1.257.442-2.694,1.768-2.694h8.84ZM104.666,36.3l-2.917-9.878s-.972-3.5-2.829-4.22a1.847,1.847,0,0,0-.53-.359l-6.63-1.616a1.015,1.015,0,0,0-.884.18l-.8.629a.894.894,0,0,0-.354.449L86.9,28.035c-.265.718.177,1.8.972,1.8h8.84c1.326,0,1.768.539,1.768,1.8V42.4c0,.9,1.326,1.886,2.3,1.886,4.773-.09,3.8-2.514,3.889-7.992ZM85.219,18.966a8.664,8.664,0,0,0,8.84-8.98,8.841,8.841,0,1,0-17.679,0A8.664,8.664,0,0,0,85.219,18.966Z" transform="translate(-66.693 -1.007)" fill="#00a096"/>
</svg>
