<svg xmlns="http://www.w3.org/2000/svg" width="44" height="44" viewBox="0 0 44 44">
  <g id="按效果付费" transform="translate(-0.004 -1.022)">
    <path id="路径_2653" data-name="路径 2653" d="M423.836,388.007a.6.6,0,0,0,.616-.616v-.616a.6.6,0,0,0-.616-.616h-1.628l2.068-2.2a.669.669,0,0,0,0-.88l-.4-.44a.669.669,0,0,0-.88,0l-2.6,2.772-2.6-2.772a.624.624,0,0,0-.88,0l-.4.44a.669.669,0,0,0,0,.88l2.068,2.2h-1.628a.6.6,0,0,0-.616.616v.616a.6.6,0,0,0,.616.616h2.508V389.9h-2.508a.6.6,0,0,0-.616.616v.616a.6.6,0,0,0,.616.616h2.508V393.6a.6.6,0,0,0,.616.616h.616a.6.6,0,0,0,.616-.616v-1.848h2.508a.6.6,0,0,0,.616-.616v-.616a.6.6,0,0,0-.616-.616h-2.508v-1.892Z" transform="translate(-398.444 -365.028)" fill="#00a096"/>
    <path id="路径_2654" data-name="路径 2654" d="M22,1.023a22,22,0,1,0,22,22,22.008,22.008,0,0,0-22-22Zm10.56,18.26a1.444,1.444,0,0,1-.748,1.5c-1.364.7-1.716,1.232-1.716,2.244s.4,1.54,1.716,2.2a1.577,1.577,0,0,1,.792,1.54V30.5a2.206,2.206,0,0,1-2.2,2.2H13.644a2.206,2.206,0,0,1-2.2-2.2v-3.74a1.751,1.751,0,0,1,.792-1.5l.044-.044a2.125,2.125,0,0,0,1.628-2.2,2.63,2.63,0,0,0-1.672-2.2,1.445,1.445,0,0,1-.792-1.54v-3.74a2.206,2.206,0,0,1,2.2-2.2H30.408a2.206,2.206,0,0,1,2.2,2.2v3.74Z" fill="#00a096"/>
  </g>
</svg>
