<svg xmlns="http://www.w3.org/2000/svg" width="38" height="44" viewBox="0 0 38 44">
  <path id="灵活性及安全性" d="M104.783,3.711V26.134a9.261,9.261,0,0,1-.95,4.012,18.96,18.96,0,0,1-2.489,3.872,27.7,27.7,0,0,1-3.515,3.549,38.225,38.225,0,0,1-4.009,2.984,30.579,30.579,0,0,1-3.952,2.179A17.914,17.914,0,0,1,86.5,43.92l-.456.08-.418-.08a18.468,18.468,0,0,1-3.439-1.19,33.172,33.172,0,0,1-4.066-2.179,38.214,38.214,0,0,1-4.142-2.984,28.774,28.774,0,0,1-3.629-3.549,18.867,18.867,0,0,1-2.582-3.872,8.93,8.93,0,0,1-.99-4.012V3.711l1.558-.243L85.821,0l17.822,3.468,1.14.243ZM85.826,3.246,85.615,3.2l-15,2.707V20.056H85.826V3.246Zm15.126,16.81H85.826V40.193A20.63,20.63,0,0,0,89,39.106a28.121,28.121,0,0,0,3.384-1.729A30.21,30.21,0,0,0,95.6,35.16a19.3,19.3,0,0,0,2.738-2.619,12.975,12.975,0,0,0,1.9-2.9,7.094,7.094,0,0,0,.711-3.061v-6.52Z" transform="translate(-66.783)" fill="#00a096"/>
</svg>
