<svg xmlns="http://www.w3.org/2000/svg" xmlns:xlink="http://www.w3.org/1999/xlink" width="100" height="100" viewBox="0 0 100 100">
  <defs>
    <linearGradient id="linear-gradient" x1="0.24" y1="0.071" x2="0.738" y2="0.946" gradientUnits="objectBoundingBox">
      <stop offset="0" stop-color="#04c2b6"/>
      <stop offset="1" stop-color="#00a096"/>
    </linearGradient>
  </defs>
  <g id="招不到" transform="translate(-4776 11605)">
    <circle id="椭圆_37" data-name="椭圆 37" cx="50" cy="50" r="50" transform="translate(4776 -11605)" fill="url(#linear-gradient)"/>
    <path id="招聘" d="M148,165.84V167a1,1,0,0,1-1,1h-3.86a2,2,0,0,1-1.72-.98l-4.56-7.6a5.44,5.44,0,0,1-.72-2h4.88a8.262,8.262,0,0,1,3.14.6l.84,5.5a2,2,0,0,0,1.5,1.14l.66.12A1,1,0,0,1,148,165.84ZM168,146a8,8,0,0,1-1.6,4.8,1.02,1.02,0,0,1-1.5,0l-1.44-1.44a1,1,0,0,1-.12-1.26,4,4,0,0,0,0-4.4,1,1,0,0,1,.12-1.26L164.9,141a1.02,1.02,0,0,1,.778-.3,1.088,1.088,0,0,1,.722.4A8,8,0,0,1,168,146Zm-8-16v32a2,2,0,0,1-2,2h-1.18a2,2,0,0,1-1.4-.58l-6-5.9a12,12,0,0,0-8.4-3.52H134a6,6,0,0,1-6-6v-4a6,6,0,0,1,6-6h7.02a12,12,0,0,0,8.5-3.52l6-5.9a2,2,0,0,1,1.4-.58H158A2,2,0,0,1,160,130Z" transform="translate(4678.001 -11703)" fill="#fff"/>
  </g>
</svg>
