<svg xmlns="http://www.w3.org/2000/svg" xmlns:xlink="http://www.w3.org/1999/xlink" width="100" height="100" viewBox="0 0 100 100">
  <defs>
    <linearGradient id="linear-gradient" x1="0.24" y1="0.071" x2="0.738" y2="0.946" gradientUnits="objectBoundingBox">
      <stop offset="0" stop-color="#04c2b6"/>
      <stop offset="1" stop-color="#00a096"/>
    </linearGradient>
  </defs>
  <g id="留不住" transform="translate(-5186 11605)">
    <circle id="椭圆_38" data-name="椭圆 38" cx="50" cy="50" r="50" transform="translate(5186 -11605)" fill="url(#linear-gradient)"/>
    <path id="人才招聘_-_招聘设置" data-name="人才招聘 - 招聘设置" d="M37.321,52.665l.245-.42a4.408,4.408,0,0,0-.628-5.412,4.522,4.522,0,0,0-2.495-1.244,4.335,4.335,0,0,0-2.556-1.978,4.354,4.354,0,0,0-3.077-3,4.576,4.576,0,0,0-7.818-1.606l-1.756,2.084H16.739v.018a1.646,1.646,0,0,1-1.416-1.052V24.244a1.146,1.146,0,0,1,1.169-1.052h8.253a.7.7,0,0,1,.291,0,.56.56,0,0,1,.282.334.544.544,0,0,1-.051.432,4.107,4.107,0,0,0-.429,3.373A4.009,4.009,0,0,0,27.331,29.7a7.753,7.753,0,0,0,6.342-.465l6.047-3.227a.453.453,0,0,1,.526.09L52.881,41.086,54.27,42.93c.09.111.183.24.293.391A2.425,2.425,0,0,1,54.85,45.2a2.491,2.491,0,0,1-1.169,1.531,2.64,2.64,0,0,1-3.076-.387l-.2-.181a2.487,2.487,0,0,1-1.078,2.52,2.7,2.7,0,0,1-3.314-.334l-.2-.195a2.456,2.456,0,0,1-1.028,2.521,2.688,2.688,0,0,1-3.314-.334l-.2-.194a2.427,2.427,0,0,1-.384,1.892,2.637,2.637,0,0,1-3.568.622Zm-5.279-.586h-.114a2.218,2.218,0,0,1-.833-1.318.088.088,0,0,0-.07-.031.091.091,0,0,0-.067.031,2.075,2.075,0,0,1-2.339-.181l-.154-.1a2.134,2.134,0,0,1-.833-1.892.134.134,0,0,0-.016-.137.143.143,0,0,0-.245.035,2.3,2.3,0,0,1-2.339-.241l-.2-.134a2.1,2.1,0,0,1-.786-2.038v-.111h-.138a2.281,2.281,0,0,1-2.384-.194l-.247-.18a2.088,2.088,0,0,1-.8-1.44,2.059,2.059,0,0,1,.505-1.558l1.707-2.054a2.227,2.227,0,0,1,2.817-.569l.093-.043a1.949,1.949,0,0,1,.985,1.224,1.918,1.918,0,0,1-.247,1.537s-.045.18.2.18a2.256,2.256,0,0,1,1.848-.09,2.1,2.1,0,0,1,1.168,2.757s-.093.24.248.24a2.585,2.585,0,0,1,.875-.15,2.211,2.211,0,0,1,2.048,2.236h.093a2.235,2.235,0,0,1,2.576.531,2.094,2.094,0,0,1,.21,2.56l-.291.509a1.815,1.815,0,0,0-.2.24,2.174,2.174,0,0,1-1.456.827,2.217,2.217,0,0,1-.281.018,2.189,2.189,0,0,1-1.329-.457ZM56.93,42.053,41.493,23.674a1.3,1.3,0,0,0-1.54-.284l-7.159,3.852a5.534,5.534,0,0,1-4.617.24,1.575,1.575,0,0,1-.847-2.055.725.725,0,0,1,.309-.524l8.342-6.176a8.468,8.468,0,0,1,7.975-1.079l13.267,4.932a7.756,7.756,0,0,0,2.743.522h2.189a1.16,1.16,0,0,1,.817.31,1.1,1.1,0,0,1,.352.787V40.015a1.168,1.168,0,0,1-1.169,1.141H59.228a1.9,1.9,0,0,0-1.124.388l-.631.512a.38.38,0,0,1-.27.111.384.384,0,0,1-.273-.115Z" transform="translate(5196.677 -11590.103)" fill="#fff"/>
  </g>
</svg>
