<svg xmlns="http://www.w3.org/2000/svg" width="56" height="44" viewBox="0 0 56 44">
  <path id="成本控制" d="M53.509,115.181H36.744a25.31,25.31,0,0,1,5.007,5.03H53.509a2.515,2.515,0,0,0,0-5.03Zm0,17.638H46.644c.082.824.12,1.661.12,2.5s-.038,1.694-.12,2.531h6.865a2.515,2.515,0,0,0,0-5.03Zm0,17.664H41.745a26.1,26.1,0,0,1-2.269,2.633,24.979,24.979,0,0,1-2.744,2.4H53.509a2.515,2.515,0,0,0,0-5.029ZM21.8,113.34a22,22,0,1,0,21.842,21.984A21.9,21.9,0,0,0,21.8,113.34Zm5.988,19.99a1.551,1.551,0,0,1,1.277,1.3q-.108,1.3-1.277,1.3H23.855v2.01h3.938a1.551,1.551,0,0,1,1.277,1.3q-.108,1.3-1.277,1.3H23.855v3.665a1.842,1.842,0,0,1-2.022,2.01,1.781,1.781,0,0,1-2.022-2.01v-3.665H15.872a1.139,1.139,0,0,1-1.277-1.3,1.406,1.406,0,0,1,1.277-1.3H19.81v-2.01H15.872a1.139,1.139,0,0,1-1.277-1.3,1.406,1.406,0,0,1,1.277-1.3h2.235L14.7,128.01a1.385,1.385,0,0,1-.425-1.3,2.121,2.121,0,0,1,2.022-2.246,2.323,2.323,0,0,1,1.6.946l3.938,6.266,3.938-6.266a2.068,2.068,0,0,1,1.6-.946,2.222,2.222,0,0,1,2.022,2.246,1.877,1.877,0,0,1-.425,1.3l-3.406,5.32h2.235Z" transform="translate(0 -113.34)" fill="#00a096"/>
</svg>
