<svg xmlns="http://www.w3.org/2000/svg" width="44" height="44" viewBox="0 0 44 44">
  <g id="财务优化" transform="translate(-64 -96)">
    <path id="减去_1" data-name="减去 1" d="M3392.384,10831H3360.54a3.468,3.468,0,0,1-3.539-3.384v-3.385h3.539a3.388,3.388,0,1,0,0-6.769H3357v-5.077h3.539a3.389,3.389,0,1,0,0-6.771H3357v-5.077h3.539a3.388,3.388,0,1,0,0-6.769H3357v-3.384a3.469,3.469,0,0,1,3.539-3.385h31.844a3.469,3.469,0,0,1,3.539,3.385v37.231A3.468,3.468,0,0,1,3392.384,10831Zm-15.333-16.554v3.966h3.882v-3.969h4.246v-2.808h-4.246v-1.436l.729-1.405h3.517v-2.813H3383.1l3.825-7.592H3382.7l-3.71,8.1-3.71-8.1h-4.249l3.852,7.592h-2.109v2.813h3.542l.734,1.405v1.436h-4.276v2.811Z" transform="translate(-3287.923 -10691)" fill="#00a096"/>
    <path id="路径_2647" data-name="路径 2647" d="M72.462,259.385H65.692a1.692,1.692,0,1,1,0-3.385h6.769a1.692,1.692,0,1,1,0,3.385m0,11.846H65.692a1.692,1.692,0,1,1,0-3.385h6.769a1.692,1.692,0,1,1,0,3.385m0,11.846H65.692a1.692,1.692,0,1,1,0-3.385h6.769a1.692,1.692,0,1,1,0,3.385" transform="translate(0 -151.538)" fill="#00a096"/>
  </g>
</svg>
