<svg xmlns="http://www.w3.org/2000/svg" width="50" height="44" viewBox="0 0 50 44">
  <path id="管理提升" d="M89.136,113.785l-3.423-2.611a.877.877,0,0,1,.344-1.552l15.273-3.4a.884.884,0,0,1,.952.405.875.875,0,0,1-.09,1.026l-.938,1.086a2.1,2.1,0,0,1-.318.474L84.053,128.686a2.951,2.951,0,0,1-3.868.533L73.533,124.8,66.4,133.077a2.951,2.951,0,0,1-4.071.381L54.98,127.6a2.919,2.919,0,0,1-.459-4.116,2.951,2.951,0,0,1,4.135-.457l5.132,4.09,6.97-8.095a2.951,2.951,0,0,1,3.868-.53l6.653,4.415,7.862-9.125Zm-35.258,20a.588.588,0,0,1,.929-.477l8.353,5.937a1.476,1.476,0,0,0,1.894-.161l8.729-8.689a1.181,1.181,0,0,1,1.485-.146l6.982,4.634a1.475,1.475,0,0,0,1.891-.22l18.717-19.966a.589.589,0,0,1,1.018.4V148.74a1.467,1.467,0,0,1-1.471,1.464H55.348a1.467,1.467,0,0,1-1.471-1.464V133.777Z" transform="translate(-53.876 -106.204)" fill="#00a096"/>
</svg>
