<svg xmlns="http://www.w3.org/2000/svg" width="38" height="44" viewBox="0 0 38 44">
  <path id="风险控制" d="M155.038,117.581c0-2.925.036-5.853-.016-8.777a1.987,1.987,0,0,1,1.722-2.251c5.532-1.364,11.053-2.78,16.585-4.138a3.542,3.542,0,0,1,1.613.068q7.995,1.955,15.978,3.96c1.859.466,2.1.781,2.1,2.714,0,5.258.011,10.514,0,15.772a17.859,17.859,0,0,1-6.882,14.364c-3.378,2.791-6.849,5.4-11.02,6.874a3.338,3.338,0,0,1-2.143.008,35.178,35.178,0,0,1-14.281-10.232,15.815,15.815,0,0,1-3.608-9.843c-.112-2.837-.022-5.68-.022-8.52h-.019Zm19.026-8.69c-.1-.019-.2-.041-.309-.06-2.648,4.867-5.324,9.72-7.929,14.608-.771,1.449,0,2.591,1.675,2.629,1.353.03,2.706.008,4.059.008h2.5v10.76c2.788-4.694,5.36-9.41,7.921-14.129,1.093-2.018.41-3.147-1.9-3.152-1.971-.005-3.941,0-6.024,0V108.892Z" transform="translate(-155.021 -102.349)" fill="#00a096"/>
</svg>
