<svg xmlns="http://www.w3.org/2000/svg" width="36.545" height="42.061" viewBox="0 0 36.545 42.061">
  <g id="左下" transform="translate(1940.271 820.893) rotate(128)">
    <path id="右三角" d="M204.8,11.657a.442.442,0,0,0,.733.285l7.067-5.47a.491.491,0,0,0,0-.791L205.533.146a.452.452,0,0,0-.733.318V11.658Z" transform="translate(362.2 2000.948)" fill="rgba(0,160,150,0.6)"/>
    <path id="右三角-2" data-name="右三角" d="M204.8,11.657a.442.442,0,0,0,.733.285l7.067-5.47a.491.491,0,0,0,0-.791L205.533.146a.452.452,0,0,0-.733.318V11.658Z" transform="translate(344.2 2000.948)" fill="rgba(0,160,150,0.4)"/>
    <path id="右三角-3" data-name="右三角" d="M204.8,11.657a.442.442,0,0,0,.733.285l7.067-5.47a.491.491,0,0,0,0-.791L205.533.146a.452.452,0,0,0-.733.318V11.658Z" transform="translate(326.2 2000.948)" fill="rgba(0,160,150,0.1)"/>
  </g>
</svg>
