<svg xmlns="http://www.w3.org/2000/svg" width="44" height="12" viewBox="0 0 44 12">
  <g id="向左" transform="translate(575 2013) rotate(180)">
    <path id="右三角" d="M204.8,11.657a.442.442,0,0,0,.733.285l7.067-5.47a.491.491,0,0,0,0-.791L205.533.146a.452.452,0,0,0-.733.318V11.658Z" transform="translate(362.2 2000.948)" fill="rgba(0,160,150,0.6)"/>
    <path id="右三角-2" data-name="右三角" d="M204.8,11.657a.442.442,0,0,0,.733.285l7.067-5.47a.491.491,0,0,0,0-.791L205.533.146a.452.452,0,0,0-.733.318V11.658Z" transform="translate(344.2 2000.948)" fill="rgba(0,160,150,0.4)"/>
    <path id="右三角-3" data-name="右三角" d="M204.8,11.657a.442.442,0,0,0,.733.285l7.067-5.47a.491.491,0,0,0,0-.791L205.533.146a.452.452,0,0,0-.733.318V11.658Z" transform="translate(326.2 2000.948)" fill="rgba(0,160,150,0.1)"/>
  </g>
</svg>
