<svg xmlns="http://www.w3.org/2000/svg" xmlns:xlink="http://www.w3.org/1999/xlink" width="100" height="100" viewBox="0 0 100 100">
  <defs>
    <linearGradient id="linear-gradient" x1="0.24" y1="0.071" x2="0.738" y2="0.946" gradientUnits="objectBoundingBox">
      <stop offset="0" stop-color="#04c2b6"/>
      <stop offset="1" stop-color="#00a096"/>
    </linearGradient>
  </defs>
  <g id="订单波动" transform="translate(1492 11654)">
    <circle id="椭圆_27" data-name="椭圆 27" cx="50" cy="50" r="50" transform="translate(-1492 -11654)" fill="url(#linear-gradient)"/>
    <path id="波动-选中" d="M109.753,103.352c.44-1.1,1.24-1.16,1.8-.1l2.08,3.94a4.385,4.385,0,0,0,3.54,2.14h8.16v4.38c0,7.14-4.16,11.441-11.18,11.6-.28.02-.58.02-.88.02h-16c-.22,0-.46,0-.68-.02-7.06-.12-11.26-4.44-11.26-11.6v-6.98l11.96-.06a4.3,4.3,0,0,1,3.72,2.54l2.28,5.76c.52,1.3,1.36,1.3,1.86,0Zm3.96-18.019c7.28,0,11.62,4.34,11.62,11.621v9.38h-8.16a1.567,1.567,0,0,1-.88-.54l-2.08-3.94a3.845,3.845,0,0,0-7.24.4l-2.76,6.92-.4-1.04a7.316,7.316,0,0,0-6.54-4.46l-11.94.06v-6.78c0-7.28,4.34-11.621,11.62-11.621h16.76Z" transform="translate(-1547.333 -11709.333)" fill="#fff"/>
  </g>
</svg>
