<svg xmlns="http://www.w3.org/2000/svg" xmlns:xlink="http://www.w3.org/1999/xlink" width="100" height="100" viewBox="0 0 100 100">
  <defs>
    <linearGradient id="linear-gradient" x1="0.24" y1="0.071" x2="0.738" y2="0.946" gradientUnits="objectBoundingBox">
      <stop offset="0" stop-color="#04c2b6"/>
      <stop offset="1" stop-color="#00a096"/>
    </linearGradient>
  </defs>
  <g id="劳资纠纷" transform="translate(1886 11364)">
    <circle id="椭圆_30" data-name="椭圆 30" cx="50" cy="50" r="50" transform="translate(-1886 -11364)" fill="url(#linear-gradient)"/>
    <path id="劳务纠纷" d="M67.173,33.084c-3.627.838-2.293,3.925-2.293,3.925s4.676,14.965-8.093,20.478-20.893-6.424-20.893-6.424-3.717-6.012-.659-14.333a3.233,3.233,0,0,0-2.953-3.807c-3.3-.515-4,.809-4.961,2.867s-2.293,10.173,0,16.112,8.948,10.908,8.948,10.908v8.129H63.741v-8.32S79.1,54.194,72.329,34.936a4.606,4.606,0,0,0-5.156-1.852Zm-24.654.662c-2.578,1.544-4.107,5.718-4.077,8.35l-1.873.544v2.749h3.342a10.14,10.14,0,0,0,20.263,0h3.342V42.639l-1.769-.5c.165-2.69-1.319-6.924-3.882-8.526A9.225,9.225,0,0,1,55.2,38.567h-.48a18.007,18.007,0,0,0,1.813-5.924,11.585,11.585,0,0,0-6.13-1.705A12.284,12.284,0,0,0,43.837,32.8a19.04,19.04,0,0,0,1.8,5.777h-.495a9.446,9.446,0,0,1-2.623-4.836Z" transform="translate(-1886.054 -11364.938)" fill="#fff"/>
  </g>
</svg>
