<svg xmlns="http://www.w3.org/2000/svg" xmlns:xlink="http://www.w3.org/1999/xlink" width="100" height="100" viewBox="0 0 100 100">
  <defs>
    <linearGradient id="linear-gradient" x1="0.24" y1="0.071" x2="0.738" y2="0.946" gradientUnits="objectBoundingBox">
      <stop offset="0" stop-color="#04c2b6"/>
      <stop offset="1" stop-color="#00a096"/>
    </linearGradient>
  </defs>
  <g id="季节用工" transform="translate(1902 11654)">
    <circle id="椭圆_26" data-name="椭圆 26" cx="50" cy="50" r="50" transform="translate(-1902 -11654)" fill="url(#linear-gradient)"/>
    <path id="计划入读季节-01" d="M45.206,344.321a51.2,51.2,0,0,1-22.66,19.4c-.171-6.916-.693-13.749,3.847-19.61a21.728,21.728,0,0,1,6.736-5.4,73.609,73.609,0,0,1,17.857-7.064c.2-.054.405-.074.81-.147-.073,1.695-.029,3.3-.239,4.873a108.129,108.129,0,0,1-1.8,11.387,24.418,24.418,0,0,1-11.3,15.528c-3.207,1.955-9.661,2.775-12.833,1.8C34.12,360.03,41.135,353.576,45.206,344.321ZM1.8,337.685a5.684,5.684,0,0,1,.962.054,47.219,47.219,0,0,1,12.3,5.143,11.338,11.338,0,0,1,5.57,8.872,62.165,62.165,0,0,1,.039,6.479A32.158,32.158,0,0,1,6.433,346.1c.967,3.778,5.648,8.68,12.17,12.978-3.1,1.036-7.771-.255-10.5-2.829a17.8,17.8,0,0,1-5.477-11C2.3,342.769,2.078,340.268,1.8,337.685Z" transform="translate(-1878.798 -11952.5)" fill="#fff"/>
  </g>
</svg>
