<svg xmlns="http://www.w3.org/2000/svg" xmlns:xlink="http://www.w3.org/1999/xlink" width="100" height="100" viewBox="0 0 100 100">
  <defs>
    <linearGradient id="linear-gradient" x1="0.24" y1="0.071" x2="0.738" y2="0.946" gradientUnits="objectBoundingBox">
      <stop offset="0" stop-color="#04c2b6"/>
      <stop offset="1" stop-color="#00a096"/>
    </linearGradient>
  </defs>
  <g id="人力资源成本" transform="translate(1072 11654)">
    <circle id="椭圆_28" data-name="椭圆 28" cx="50" cy="50" r="50" transform="translate(-1072 -11654)" fill="url(#linear-gradient)"/>
    <g id="人力资源" transform="translate(-1042 -11624)">
      <path id="路径_2648" data-name="路径 2648" d="M145.556,15.026h-1.111a2.1,2.1,0,0,1-2.222-2.223V7.912a2.1,2.1,0,0,1,2.222-2.223h1.111c1.333,0,2,.889,2,2.223v5.113a1.992,1.992,0,0,1-2,2Zm23.33,0h-1.111a2.1,2.1,0,0,1-2.222-2.223V7.912a2.1,2.1,0,0,1,2.222-2.223h.889a2.1,2.1,0,0,1,2.222,2.223v5.113c.222,1.112-.889,2-2,2Z" transform="translate(-136.887 -5.689)" fill="#fff"/>
      <path id="路径_2649" data-name="路径 2649" d="M41.022,130.844v2.907a2.339,2.339,0,0,1-2.444,2.46H35.689a2.339,2.339,0,0,1-2.444-2.46v-2.907H17.689V134.2a2.339,2.339,0,0,1-2.444,2.46H12.356a2.531,2.531,0,0,1-2.444-2.683v-3.131a4.634,4.634,0,0,0-4.222,4.7v25.717a4.568,4.568,0,0,0,4.667,4.7H41.022a4.709,4.709,0,0,0,4.667-4.7V135.54C45.244,133.08,43.689,131.068,41.022,130.844ZM25.689,154.772h-.222c0,2.013-4,2.684-7.778,2.684s-7.556-.224-7.556-2.684V154.1c0-1.789,2.667-2.907,5.111-4.025.222,0,.889-.671.667-1.789-1.556-.895-2.222-2.907-2.222-4.7a4.157,4.157,0,0,1,4.222-4.473,4.288,4.288,0,0,1,4.222,4.473,7.489,7.489,0,0,1-2,5.143c-.444,1.342.444,1.565.444,1.565,2.444.671,5.111,2.46,5.111,4.025v.447Zm13.333-.671H30.356a1.758,1.758,0,0,1-1.778-1.789,1.641,1.641,0,0,1,1.778-1.789h8.667a1.758,1.758,0,0,1,1.778,1.789A1.907,1.907,0,0,1,39.022,154.1Zm0-7.827H30.356a1.758,1.758,0,0,1-1.778-1.789,1.954,1.954,0,0,1,1.778-2.013h8.667a1.758,1.758,0,0,1,1.778,1.789C40.8,145.6,40.133,146.274,39.022,146.274Z" transform="translate(-5.689 -125.953)" fill="#fff"/>
    </g>
  </g>
</svg>
