<svg xmlns="http://www.w3.org/2000/svg" width="200" height="160" viewBox="0 0 200 160">
  <g id="员工工伤" transform="translate(1857 8859)">
    <rect id="矩形_1404" data-name="矩形 1404" width="200" height="160" rx="4" transform="translate(-1857 -8859)" fill="rgba(255,255,255,0)"/>
    <g id="undraw_injured_9757" transform="translate(-1807 -8859)">
      <path id="路径_2556" data-name="路径 2556" d="M731.251,597.446c-1.988,4.128-5.652,7.2-9.494,9.7a59.934,59.934,0,0,1-13.464,6.517c-.65.224-1.307.432-1.966.631H679.655c-.186-.2-.363-.413-.53-.631a11.14,11.14,0,0,1-2.4-8.092,9.26,9.26,0,0,1,6.883-7.862,7.792,7.792,0,0,1,8.878,4.933c.606-6.842,1.307-13.969,4.942-19.795a20.97,20.97,0,0,1,15.178-9.724,19.113,19.113,0,0,1,10.567,1.935c.3.151.6.309.887.473a17.681,17.681,0,0,1,5.094,4.346A17.075,17.075,0,0,1,731.251,597.446Z" transform="translate(-602.789 -454.29)" fill="#f2f2f2"/>
      <path id="路径_2557" data-name="路径 2557" d="M760.946,580.262a100.073,100.073,0,0,0-28.582,37.7c-.091.208-.183.42-.272.631h-1.256c.089-.211.177-.423.268-.631,1.215-2.841,2.556-5.631,4.03-8.348a101.585,101.585,0,0,1,11.018-16.3,100.033,100.033,0,0,1,13.969-13.871.61.61,0,0,1,.132-.082.642.642,0,0,1,.887.473A.466.466,0,0,1,760.946,580.262Z" transform="translate(-639.873 -458.592)" fill="#fff"/>
      <path id="路径_2558" data-name="路径 2558" d="M495.1,458.222a3,3,0,0,0-.38-4.581l-1.514-9.979-6.218,1.957,3.406,8.9a3.014,3.014,0,0,0,4.705,3.7Z" transform="translate(-473.284 -365.67)" fill="#ffb8b8"/>
      <path id="路径_2559" data-name="路径 2559" d="M483.569,384.215,479.733,366.3a10.257,10.257,0,0,1,2.929-9.592c4.91-4.731,11.22-10.694,13.4-12.237a11.238,11.238,0,0,1,7.031-2.075l.053.006,3.3,3.118-7.187,11.832-10.911,6.836,1.214,17.557Z" transform="translate(-468.166 -296.328)" fill="#00a096"/>
      <rect id="矩形_1228" data-name="矩形 1228" width="18.621" height="2.525" rx="1.262" transform="translate(11.485 63.542)" fill="#ccc"/>
      <rect id="矩形_1229" data-name="矩形 1229" width="18.621" height="2.525" rx="1.262" transform="translate(11.485 90.965)" fill="#ccc"/>
      <path id="路径_2560" data-name="路径 2560" d="M491.139,495.421a.631.631,0,0,1-.629-.575l-8.047-94.367a.631.631,0,0,1,1.258-.112l7.409,87.187,7.2-87.186a.631.631,0,1,1,1.258.108l-7.818,94.367a.631.631,0,0,1-.628.577Z" transform="translate(-470.187 -335.737)" fill="#ccc"/>
      <circle id="椭圆_13" data-name="椭圆 13" cx="8.281" cy="8.281" r="8.281" transform="translate(30.845 25.771)" fill="#ffb8b8"/>
      <path id="路径_2561" data-name="路径 2561" d="M134.976,457.633l-3.938-1.255,2.967-15.788,5.813,1.853Z" transform="translate(-120.627 -301.733)" fill="#ffb8b8"/>
      <path id="路径_2562" data-name="路径 2562" d="M460.805,684.857l-12.678-4.041.1-.329a5,5,0,0,1,6.269-3.239l7.925,2.526Z" transform="translate(-446.652 -525.464)" fill="#2f2e41"/>
      <path id="路径_2563" data-name="路径 2563" d="M221.076,459.758h-4.134l-1.967-15.944h6.1Z" transform="translate(-177.964 -303.94)" fill="#ffb8b8"/>
      <path id="路径_2564" data-name="路径 2564" d="M541.926,692H554.6v-4.7h-8a4.679,4.679,0,0,0-4.674,4.674Z" transform="translate(-510.773 -532.504)" fill="#2f2e41"/>
      <path id="路径_2565" data-name="路径 2565" d="M507.619,520.417l-1.4-.208c-4.231-.63-4.485-.668-5.156-.963-.343-.151-.367-2.428-.161-15.23.151-9.4.339-21.092-.026-27.37a1.1,1.1,0,0,0-2.116-.373c-3.148,7.271-8.431,23.541-11.926,34.308-1.216,3.745-2.176,6.7-2.784,8.476a1.428,1.428,0,0,1-1.69.915c-2.876-.719-2.684-1.025-6.781-2.085a1.417,1.417,0,0,1-1.036-1.667c.741-3.495,14.3-60.155,15.34-65.541a1.421,1.421,0,0,1,1.674-1.127c3.053.615,4.911,1.268,7.928,1.9,3.256.681,6.622,1.385,9.906,2.042h0a1.408,1.408,0,0,1,.827.507,8.793,8.793,0,0,0,3.293,2.212c.86.411-1.089.374-.34.967,3.033,2.4-1.329,51.156-3.964,62.168a1.425,1.425,0,0,1-1.593,1.07Z" transform="translate(-464.767 -369.773)" fill="#2f2e41"/>
      <path id="路径_2566" data-name="路径 2566" d="M550.533,282.073c-.483-2.052,1.961-6.466,1.477-8.517-.327-1.389-3.594-.445-4.357-1.652a4.382,4.382,0,0,0-3.467-2.2c-1.641-.018-3.255,1.2-4.809.673-1.571-.532-2.074-2.684-1.379-4.19a7.529,7.529,0,0,1,3.67-3.219c2.518-1.281,5.449-2.216,8.144-1.369a13.386,13.386,0,0,1,4.309,2.708,15.019,15.019,0,0,1,3.263,3.312,8.9,8.9,0,0,1,.14,8.733,13.127,13.127,0,0,1-6.792,5.844" transform="translate(-507.879 -240.739)" fill="#2f2e41"/>
      <path id="路径_2567" data-name="路径 2567" d="M513.584,381.83c.894-1.493,2.251-8.489,3.924-20.232,1.139-8.016,2.132-16.161,2.624-20.322a2,2,0,0,1,1.123-1.578q.479-.231.953-.438a21.846,21.846,0,0,1,23.306,3.274l.037.035.009.05c.018.092,1.728,9.31-1.775,15.537-3.455,6.145-3.5,22.417-3.5,22.58v.209l-.2-.057c-5.375-1.536-26.14,1.151-26.35,1.179l-.323.042Z" transform="translate(-491.283 -292.831)" fill="#00a096"/>
      <rect id="矩形_1230" data-name="矩形 1230" width="18.621" height="2.525" rx="1.262" transform="translate(36.225 67.639)" fill="#ccc"/>
      <rect id="矩形_1231" data-name="矩形 1231" width="18.621" height="2.525" rx="1.262" transform="translate(36.225 95.063)" fill="#ccc"/>
      <path id="路径_2568" data-name="路径 2568" d="M569.139,504.634a.631.631,0,0,1-.629-.575l-8.047-90.58a.631.631,0,1,1,1.257-.112l7.409,83.4,7.2-83.4a.631.631,0,0,1,1.258.108l-7.818,90.58a.631.631,0,0,1-.628.577Z" transform="translate(-523.445 -344.634)" fill="#ccc"/>
      <path id="路径_2569" data-name="路径 2569" d="M571.338,474.784a3,3,0,0,1,2.808-3.639l6.693-7.555L585,468.612l-7.7,5.623a3.014,3.014,0,0,1-5.96.549Z" transform="translate(-530.834 -379.316)" fill="#ffb8b8"/>
      <path id="路径_2570" data-name="路径 2570" d="M583.838,394.769,594.4,380.69l-5.445-11.668.4-13.838,4.464-.825.047.024a11.237,11.237,0,0,1,4.774,5.563c.992,2.479,3.048,10.914,4.6,17.554a10.257,10.257,0,0,1-2.753,9.644L587.526,400.1Z" transform="translate(-539.425 -304.531)" fill="#00a096"/>
      <path id="路径_2571" data-name="路径 2571" d="M443.509,613.661l14.446,3.478a1.238,1.238,0,0,0,1.438-.671l12.41-32.994a1.016,1.016,0,0,0,0-.8,1.15,1.15,0,0,0-.661-.619L460.281,577.9a1.307,1.307,0,0,0-1.065.059,1.108,1.108,0,0,0-.581.711v0l-7.666,29.08-.114.007c-.044,0-4.439.3-6.415,2.674A4.2,4.2,0,0,0,443.509,613.661Z" transform="translate(-443.473 -457.576)" fill="#ccc"/>
      <rect id="矩形_1232" data-name="矩形 1232" width="0.631" height="13.245" transform="translate(10.41 138.216) rotate(-83.955)" fill="#b3b3b3"/>
      <rect id="矩形_1233" data-name="矩形 1233" width="0.631" height="11.622" transform="translate(9.077 143.364) rotate(-65.776)" fill="#b3b3b3"/>
      <path id="路径_2573" data-name="路径 2573" d="M150.294,416.764,137.8,412.627l.259-.576,12.493,4.138Z" transform="translate(-125.266 -282.202)" fill="#b3b3b3"/>
      <path id="路径_2574" data-name="路径 2574" d="M154.294,403.658,141.8,397.627l.259-.576,12.493,6.031Z" transform="translate(-128.007 -271.899)" fill="#b3b3b3"/>
      <rect id="矩形_1234" data-name="矩形 1234" width="0.631" height="11.846" transform="matrix(0.65, -0.76, 0.76, 0.65, 7.829, 148.212)" fill="#b3b3b3"/>
      <rect id="矩形_1235" data-name="矩形 1235" width="0.631" height="8.757" transform="translate(5.118 150.543) rotate(-24.393)" fill="#b3b3b3"/>
      <path id="路径_2575" data-name="路径 2575" d="M725.675,346.869V203.2c0-1.94.037-3.884,0-5.824,0-.085,0-.17,0-.255a.947.947,0,0,0-1.894,0V340.791c0,1.94-.037,3.884,0,5.824,0,.085,0,.17,0,.255A.947.947,0,0,0,725.675,346.869Z" transform="translate(-635.111 -196.209)" fill="#f2f2f2"/>
      <path id="路径_2576" data-name="路径 2576" d="M709.275,257.719H686.551a2.054,2.054,0,0,1-2.052-2.051V228.051A2.054,2.054,0,0,1,686.551,226h22.724a2.054,2.054,0,0,1,2.051,2.051v27.616A2.054,2.054,0,0,1,709.275,257.719Z" transform="translate(-608.231 -216.597)" fill="#f2f2f2"/>
    </g>
  </g>
</svg>
