<svg xmlns="http://www.w3.org/2000/svg" width="188" height="130" viewBox="0 0 188 130">
  <g id="国企物业公司保洁用工解决方案" transform="translate(-5.076 2.596)">
    <ellipse id="椭圆_16" data-name="椭圆 16" cx="6.196" cy="2.145" rx="6.196" ry="2.145" transform="translate(109.267 123.115)" fill="#f5f5f5"/>
    <ellipse id="椭圆_17" data-name="椭圆 17" cx="6.196" cy="2.145" rx="6.196" ry="2.145" transform="translate(134.516 123.115)" fill="#f5f5f5"/>
    <path id="路径_2610" data-name="路径 2610" d="M423.4,158.231c-19.712-13.762-49.15-2.839-89.288,19.323s-90.976,55.563-71.264,69.324,120.414,22.162,160.552,0S443.112,171.993,423.4,158.231Z" transform="translate(-253.387 -154.742)" fill="#f2f2f2"/>
    <path id="路径_2611" data-name="路径 2611" d="M730.131,336.44v6.589H705.469v-6.186h-.715v78.951h.715V401.659h24.662v14.134h.715V336.44Zm0,7.3v10.868H705.469V343.743Zm-24.662,34.034V366.91h24.662v10.868Zm24.662.715v10.868H705.469V378.493Zm-24.662-12.3V355.327h24.662v10.868Zm0,34.749V390.076h24.662v10.868Z" transform="translate(-590.071 -290.534)" fill="#00a096"/>
    <path id="路径_2612" data-name="路径 2612" d="M671.062,343.023v.987a1.411,1.411,0,0,0-.706,1.411c0,1.129-.564,5.361-.564,5.361s.988.846,1.834.564a3.446,3.446,0,0,0,1.27-.705l.141-4.373-.564-1.129v-1.975Z" transform="translate(-563.432 -295.548)" fill="#00a096"/>
    <path id="路径_2613" data-name="路径 2613" d="M774.261,178.44s-2.454.282-2.454,1.411-1.963,5.361-1.963,5.361a22.488,22.488,0,0,0,6.379.564,27.157,27.157,0,0,0,4.416-.705l.491-4.373-1.963-1.129Z" transform="translate(-639.653 -170.185)" fill="#00a096"/>
    <path id="路径_2614" data-name="路径 2614" d="M784.583,192.373v-2.681s-2.963-5.925-.564-5.925,2.68,5.361,2.68,5.361v3.809Z" transform="translate(-649.735 -174.243)" fill="#ffb8b8"/>
    <path id="路径_2615" data-name="路径 2615" d="M675.131,336.493s-1.552-.847-1.834,0-1.129,2.68,0,2.822a3.427,3.427,0,0,0,2.257-.846Z" transform="translate(-565.667 -290.287)" fill="#ffb8b8"/>
    <path id="路径_2616" data-name="路径 2616" d="M713.957,357.908s-.849,1.122.383,12.067.522,18.915,2.862,18.806c0,0-.611,2.373,1.377,2.461s2.9.226,3.051-.323.4-3.085-.143-3.06c0,0,.034.72.259-2.177s-.413-16.576.4-18.417l3.191,6.525a17.728,17.728,0,0,0,.75,4.474c.607,1.415,1.894,9.652,1.894,9.652l-.121,1.268s4.353.518,4.5-.21a4.325,4.325,0,0,0-.1-2.16c-.2-.351-.2-.352.13-1.088a2.182,2.182,0,0,0,.1-1.808c-.205-.532-.751-12.231-.751-12.231s-1.024-14.2-3.217-14.821S713.957,357.908,713.957,357.908Z" transform="translate(-596.862 -305.988)" fill="#2f2e41"/>
    <path id="路径_2617" data-name="路径 2617" d="M720.9,495.659l-1.322,2.587s-2.288-.7-1.741,1.344a36.013,36.013,0,0,0,6.565-.4s.917.318,1.071-.23-.563-2.409-1.1-2.384A26.127,26.127,0,0,1,720.9,495.659Z" transform="translate(-599.97 -411.811)" fill="#2f2e41"/>
    <path id="路径_2618" data-name="路径 2618" d="M771.829,488.08s-1.289,3.307-.74,3.462,5.442.648,5.81.811,2.177.259,2.306-.829a1.325,1.325,0,0,0-.967-1.4,3.4,3.4,0,0,1-2.621-2.042C774.994,486.309,771.829,488.08,771.829,488.08Z" transform="translate(-640.497 -405.44)" fill="#2f2e41"/>
    <circle id="椭圆_19" data-name="椭圆 19" cx="3.769" cy="3.769" r="3.769" transform="translate(115.352 17.551)" fill="#ffb8b8"/>
    <path id="路径_2619" data-name="路径 2619" d="M715.033,237.546s.992,5.157.595,6.149,5.554-.4,5.554-.4-1.19-5.157-.992-6.347S715.033,237.546,715.033,237.546Z" transform="translate(-597.896 -214.442)" fill="#ffb8b8"/>
    <path id="路径_2620" data-name="路径 2620" d="M709.151,213.622a2.13,2.13,0,0,0-.943.042,2.461,2.461,0,0,0-.67.439,7.842,7.842,0,0,1-1.145.759,2.672,2.672,0,0,0-.891.625,1.9,1.9,0,0,0-.252.476,5.7,5.7,0,0,0-.3,3.105,1.424,1.424,0,0,0,.132.426c.206.38.661.529,1.045.729A8.932,8.932,0,0,1,708,221.8a3.671,3.671,0,0,0,.742.572,4.4,4.4,0,0,0,2.85.149.514.514,0,0,0,.513-.519l.755-3.4a5.541,5.541,0,0,0,.194-1.544,4.4,4.4,0,0,0-1.1-2.552A4.744,4.744,0,0,0,709.151,213.622Z" transform="translate(-590.145 -196.957)" fill="#2f2e41"/>
    <path id="路径_2621" data-name="路径 2621" d="M698.158,259.229s.282-1.975,1.975-2.116a13.954,13.954,0,0,0,2.822-.564,5.086,5.086,0,0,1,2.822.988s.564.847.846.282.282-.846.847-.564.564-.847,1.552-.705,3.527,6.49,3.527,6.49l-.846.988s-1.129,7.618.846,10.863,2.822,6.772.846,7.477-15.8,7.054-15.236,3.1.141-10.158-.423-10.3-3.668-11.286-3.668-11.286a4.382,4.382,0,0,1,2.539-3.245C698.863,259.652,698.158,259.229,698.158,259.229Z" transform="translate(-581.927 -229.671)" fill="#575a88"/>
    <path id="路径_2622" data-name="路径 2622" d="M753.86,226.487l.705-.564s1.27,0,1.411-.282.846-.282,1.411-.564-.141-.705.564-.988.705,0,.705-.705,1.834-1.411,1.975-2.257,1.552-4.8,1.552-4.8l2.681.846-.705,5.079a8.077,8.077,0,0,1-1.27,4.232c-1.27,1.693-4.091,5.925-5.5,6.066S753.86,226.487,753.86,226.487Z" transform="translate(-627.476 -199.045)" fill="#575a88"/>
    <path id="路径_2623" data-name="路径 2623" d="M685.442,284.412l-.847.705s-.282,3.1-.282,3.245.282,1.834,0,1.975a8.255,8.255,0,0,0-.705,3.1h0v.423l-1.975,3.1v2.963l4.656-2.963s2.68-.282,2.257-2.681S685.442,284.412,685.442,284.412Z" transform="translate(-572.453 -250.904)" fill="#575a88"/>
  </g>
</svg>
