<svg xmlns="http://www.w3.org/2000/svg" width="200" height="160" viewBox="0 0 200 160">
  <g id="招聘外包" transform="translate(1857 8587)">
    <rect id="矩形_1405" data-name="矩形 1405" width="200" height="160" rx="4" transform="translate(-1857 -8587)" fill="rgba(255,255,255,0)"/>
    <g id="undraw_interview_re_e5jn" transform="translate(-1849 -8558)">
      <path id="路径_2579" data-name="路径 2579" d="M342.53,251.6c-5.635,4.269-12.5,8.593-19.251,10.632a27.41,27.41,0,0,1-5.986,1.152,18.193,18.193,0,0,1-5.666-.437,55.041,55.041,0,0,1-13.763-5.782c-1.428-.807-2.84-1.651-4.244-2.513-2.291-1.409-4.56-2.866-6.835-4.289-.341-.216-.679-.427-1.02-.637h0q-.824-.514-1.651-1.014c-.1-.06-.194-.117-.293-.177q-1.564-.942-3.181-1.842l-.4-.218a69.877,69.877,0,0,0-6.424-3.127c-1.441-.6-2.9-1.148-4.374-1.612h0c-.564-.177-1.129-.343-1.7-.495a35.682,35.682,0,0,0-5.19-1.01,28.528,28.528,0,0,0-7.268.058c-.163.023-.324.045-.487.072-6.523,1.039-12.477,4.542-19.029,5.367-.213.027-.423.051-.636.07-.091.008-.182.018-.272.025a26.187,26.187,0,0,1-5.714-.14,41,41,0,0,1-15.082-5.562,63.34,63.34,0,0,1-24.984-27.4,60.884,60.884,0,0,1-2.442-5.94,56.907,56.907,0,0,1-3.235-17.422c-.5-20.607,11.271-41.281,29.755-50.6s42.8-6.238,57.711,8.08c9.044,8.685,14.277,20.455,21.082,30.97s16.479,20.555,28.956,22.087c6.356.78,13.007-.729,19.1,1.234a19.314,19.314,0,0,1,8.569,5.823,26.1,26.1,0,0,1,3.877,5.955,29.044,29.044,0,0,1,1.8,4.833c.085.306.163.612.239.918A31.922,31.922,0,0,1,342.53,251.6Z" transform="translate(-183.389 -133.445)" fill="#f2f2f2"/>
      <rect id="矩形_1236" data-name="矩形 1236" width="29.808" height="10.484" rx="5.242" transform="translate(32.989 95.831)" fill="#3f3d56"/>
      <path id="路径_2580" data-name="路径 2580" d="M411.016,638.217v8.722a25.809,25.809,0,0,1-5.962-.115v-8.607Z" transform="translate(-359.289 -534.604)" fill="#3f3d56"/>
      <path id="路径_2581" data-name="路径 2581" d="M403.54,535.733c-.162.023-.323.045-.485.072-6.5,1.04-12.425,4.547-18.949,5.374-.212.027-.421.051-.633.07-.09.008-.181.018-.271.025-1.593-1.56-3.186-3.221-4.683-4.942-.812-.931-1.6-1.881-2.335-2.843a35.706,35.706,0,0,1-4.613-7.544c.109-1.2-.639-3.984-1-6.114l0,0a7.822,7.822,0,0,1-.158-2.171c.436-2.882,2.79-2.551,3.513-5.376A15.926,15.926,0,0,1,376,510.82c.121-.072.245-.144.372-.216l7.853-5.427,3,2.944L391.8,512.6l4.95,4.854-4.2,4.245s3.511,4.048,7.616,9.444C401.265,532.594,402.41,534.142,403.54,535.733Z" transform="translate(-331.744 -428.913)" fill="#2f2e41"/>
      <path id="路径_2582" data-name="路径 2582" d="M838.016,638.217v25.176a27.162,27.162,0,0,1-5.962,1.153V638.217Z" transform="translate(-698.131 -534.604)" fill="#3f3d56"/>
      <rect id="矩形_1237" data-name="矩形 1237" width="29.808" height="10.484" rx="5.242" transform="translate(123.166 101.557)" fill="#3f3d56"/>
      <path id="路径_2583" data-name="路径 2583" d="M656.127,681.639q-1.557-.943-3.168-1.844l-.395-.218.707-.3,1.908-.82.018-.008.021.07Z" transform="translate(-555.704 -566.564)" fill="#ffb6b6"/>
      <path id="路径_2584" data-name="路径 2584" d="M413.108,536.7c-.339-.216-.676-.428-1.016-.637h0q-.82-.515-1.645-1.015c-.1-.06-.193-.117-.292-.177q-1.557-.943-3.168-1.844l-.395-.218a69.415,69.415,0,0,0-6.4-3.131c-1.435-.6-2.888-1.149-4.356-1.614h0l-1.153-1.93-5.191-8.693-1.141-1.91s-3.891,1.151-9.4,2.255c-2,.4-4.22.8-6.545,1.131-2.485.354-5.092.635-7.682.771-1.235.066-2.467.1-3.68.088a35.747,35.747,0,0,1-8.784-1.013c-.88-.826-3.532-1.951-5.431-2.981h0a7.853,7.853,0,0,1-1.807-1.213c-2-2.117-.292-3.768-2.072-6.079a16.043,16.043,0,0,1,.13-2.537c.019-.14.037-.282.06-.425L343.7,496l4.169-.551,6.344-.839,6.872-.909.757,5.925s5.351-.271,12.131-.181c10.889.148,25.46,1.233,27.433,5.892.185.438.37.88.555,1.322q.66,1.585,1.307,3.186c1.564,3.865,3.057,7.766,4.42,11.454.847,2.294,1.645,4.506,2.378,6.576.59,1.665,1.137,3.24,1.636,4.689.456,1.324.87,2.543,1.237,3.637C413,536.367,413.052,536.536,413.108,536.7Z" transform="translate(-309.911 -419.793)" fill="#2f2e41"/>
      <path id="路径_2585" data-name="路径 2585" d="M446.821,345.265l-13.168-11.183,8.567-8.67,5.977,9.79,22.155,4.392a4.3,4.3,0,1,1-.61,6.306Z" transform="translate(-381.917 -286.005)" fill="#a0616a"/>
      <path id="路径_2586" data-name="路径 2586" d="M376.609,273.833c-1.522,4.951,12.971,16.758,12.971,16.758.161-1.189,8.378,9.06,8.937,8.132,1.589-2.638,3.337-9.159,5.171-9.992,1.049-.477-4.969-7.1-4.969-7.1s-3.07-4.061-7.123-9.208a10.98,10.98,0,0,0-9.679-4.309S378.131,268.883,376.609,273.833Z" transform="translate(-336.603 -240.441)" fill="#3f3d56"/>
      <circle id="椭圆_14" data-name="椭圆 14" cx="8.906" cy="8.906" r="8.906" transform="translate(37.485 4.663)" fill="#a0616a"/>
      <path id="路径_2587" data-name="路径 2587" d="M342.166,254.684a9.193,9.193,0,0,1,3.725,5.369,50.88,50.88,0,0,1,2.186,12.157l.7,12.353,8.619,26.3c-7.47,6.32-35.547,1.436-35.547,1.436s-.862-.287,0-1.149,1.7-.1.839-.96-.268.1.02-.764,0-.287-.287-.575,2.224-2.873,2.224-2.873l-2.3-15.1L319.47,260.43c3.448-4.309,10.381-6.85,10.381-6.85l1.792-3.225,8.957.717Z" transform="translate(-291.345 -226.377)" fill="#3f3d56"/>
      <path id="路径_2588" data-name="路径 2588" d="M376.249,149.252a4.128,4.128,0,0,1,1.466,2.06,29,29,0,0,0,.019-4.041c-.1-.946-.771-1.159-1.542-1.405-.7-.223-1.484-.474-1.7-1.392-2.8-2.723-7.673-2.586-11.008-1.636-1.835.523-2.891,1.194-2.986,1.588l-.02.081-.074.037c-1.415.707-1.69,2.941-1.672,4.69.034,3.3,1.172,7.038,1.813,7.343.034.016.042.01.057,0h0c.965-.771,2.143.059,2.66.51a9.263,9.263,0,0,1,8.294-7.857,14.531,14.531,0,0,0,2-.335,4.208,4.208,0,0,1,1.021-.134A2.906,2.906,0,0,1,376.249,149.252Z" transform="translate(-322.52 -140.414)" fill="#2f2e41"/>
      <path id="路径_2589" data-name="路径 2589" d="M377.6,476.634l-2.724-1.4a.747.747,0,0,1,.674-1.315l2.724,1.4a.747.747,0,0,1-.674,1.315Z" transform="translate(-335.093 -403.984)" fill="#00a096"/>
      <path id="路径_2590" data-name="路径 2590" d="M327.415,395.839l-4.482-16.684,11.976-2.267-.644,11.452L350,404.542a4.3,4.3,0,1,1-4.086,4.843Z" transform="translate(-294.1 -326.925)" fill="#a0616a"/>
      <path id="路径_2591" data-name="路径 2591" d="M310.983,289c-4.065,3.209,1.152,21.16,1.152,21.16.808-.887,1.747,12.216,2.734,11.77,2.806-1.268,7.95-5.64,9.933-5.284,1.134.2-.054-8.667-.054-8.667s-.219-5.086-.629-11.625A10.98,10.98,0,0,0,318.6,287.3S315.048,285.786,310.983,289Z" transform="translate(-283.403 -255.441)" fill="#3f3d56"/>
      <path id="路径_2592" data-name="路径 2592" d="M364.969,496.759l-163.4-.185a61,61,0,0,1-2.442-5.947l161.962.171A26.132,26.132,0,0,1,364.969,496.759Z" transform="translate(-195.894 -417.292)" fill="#3f3d56"/>
      <path id="路径_2593" data-name="路径 2593" d="M724.146,716.3q-1.261.611-2.545,1.178c-1.422-.808-2.829-1.653-4.227-2.516l5.184-2.278Z" transform="translate(-607.125 -593.765)" fill="#ffb6b6"/>
      <path id="路径_2594" data-name="路径 2594" d="M662.364,540.235q-1.264,1.7-2.609,3.324-1.24,1.5-2.545,2.946c-.36.4-.724.8-1.1,1.188q-1.027,1.1-2.1,2.165c-1.287.405-3.893,1.118-6.687,1.784-2.033.483-4.165.941-5.962,1.233a21.488,21.488,0,0,1-3.044.325c-1.213.01-2.444-.023-3.68-.088-1.394-.074-2.79-.189-4.169-.337-3.587-.376-7.061-.962-10.059-1.564-1.1-.218-2.13-.44-3.079-.656-1.8-.405-3.3-.783-4.393-1.071-1.227-.321-1.926-.528-1.926-.528l-3.073,5.147-1.6,2.67-1.172,1.963-.312.52-.395-.218a69.437,69.437,0,0,0-6.4-3.131c-1.435-.6-2.888-1.149-4.356-1.614h0c-.561-.177-1.125-.343-1.69-.5q.265-.712.537-1.435.506-1.347,1.032-2.72c.758-1.982,1.544-3.992,2.352-5.992.662-1.643,1.336-3.279,2.019-4.893a4.587,4.587,0,0,1,1.848-1.971,10.753,10.753,0,0,1,1.334-.715,37.7,37.7,0,0,1,10.484-2.411c.343-.039.689-.078,1.036-.115,3.439-.362,7.088-.549,10.5-.635,1.708-.043,3.357-.06,4.89-.062q.743,0,1.445,0h0c1.264.006,2.428.025,3.452.045l.582.014h0l.376.008c2.239.058,3.612.127,3.612.127l.532-4.177.109-.843.1-.8v0l.012-.1.084,0,1.48-.029,12.441-.243,6.8-.134-1.077,4.617-1.778,7.618C656.41,540.157,662.425,539.214,662.364,540.235Z" transform="translate(-507.305 -446.025)" fill="#2f2e41"/>
      <path id="路径_2595" data-name="路径 2595" d="M663.761,633.3c-.508.259-1.02.514-1.534.761q-1.261.611-2.545,1.178c-1.422-.808-2.829-1.653-4.226-2.516-2.282-1.41-4.541-2.87-6.806-4.294-.339-.216-.676-.428-1.016-.637h0c-.933-1.386-1.885-2.829-2.845-4.315-.014-.02-.027-.041-.039-.062q-.37-.567-.736-1.143c-1.536-2.405-3.079-4.913-4.578-7.474l3.795-1.772,7.055-3.293,1.217-.567,3.5,6.889,3.121,6.144.695,1.367Z" transform="translate(-545.228 -511.526)" fill="#2f2e41"/>
      <path id="路径_2596" data-name="路径 2596" d="M735.817,431.747,753.8,414.4l4.985-14.116-7.354-3.2c-3.777,3.618-7.86,14.888-7.86,14.888L731.2,427.722c-.1.033-.193.068-.288.11a3.542,3.542,0,1,0,4.907,3.915Z" transform="translate(-616.11 -342.979)" fill="#ffb8b8"/>
      <path id="路径_2597" data-name="路径 2597" d="M828.86,339.934l9.328,2.961.035-.006c3.472-.582,6.353-6.252,8.158-10.906a6.5,6.5,0,0,0-3.307-8.228h0a6.509,6.509,0,0,0-6.818.86l-4.79,3.914Z" transform="translate(-695.455 -284.215)" fill="#00a096"/>
      <path id="路径_2598" data-name="路径 2598" d="M790.945,329.554l.054-.072c2.91-3.86-1.07-13.418-1.672-14.8l2.706-.8-.472-5.152-.227-2.3,2.1-2,.007-.051,1.447-10.3,1.893-6.815a15.065,15.065,0,0,0-3.9-14.705l-3.87-3.843-4.637-7.258-7.774-.2-2.8,4.966a11.335,11.335,0,0,0-9.066,11.343l.263,13.221-2.79,16.381-.078,2.976-2.738,2.889.506,2.921-2.048.816-1,4.151c-.383.479-2.91,3.674-2.933,4.564,0,.134.092.266.3.414,1.636,1.17,10.779,3.707,14.895,2.182,4.384-1.623,21.563,1.425,21.736,1.456Z" transform="translate(-635.924 -235.048)" fill="#00a096"/>
      <circle id="椭圆_15" data-name="椭圆 15" cx="10.3" cy="10.3" r="10.3" transform="translate(133.591 3.45)" fill="#ffb8b8"/>
      <path id="路径_2599" data-name="路径 2599" d="M825.091,159.608a28.011,28.011,0,0,0,4.765-.333c1.562-.318,5.057-2.879,6.031-4.42h0a13.759,13.759,0,0,0,1.448-4.231,12.522,12.522,0,0,0-2.19-9.941,3.957,3.957,0,0,0-1.6-1.364c-.057-.022-.116-.042-.176-.059a4.882,4.882,0,0,1-2.428-1.5,4.006,4.006,0,0,0-.4-.415,6.012,6.012,0,0,0-2.508-1.26c-1.491-.4-3.649,0-6.414,1.179a6.747,6.747,0,0,1-4.077.125.382.382,0,0,0-.36.123,2.7,2.7,0,0,1-1.835.731c-.418.018-.856.6-1.386,1.351-.12.171-.26.371-.362.493l-.014-.233-.236.26a3.276,3.276,0,0,0,1.479,5.337,6.387,6.387,0,0,0,1.285.2c.263.024.535.048.8.093a4.939,4.939,0,0,1,3.67,3.2,1.291,1.291,0,0,0,1.949.627,2.134,2.134,0,0,1,1.944-.354,1.417,1.417,0,0,1,.626.71,1.845,1.845,0,0,0,.7.817c1.059.546,1.132,2.964.752,4.979-.367,1.943-1.091,3.348-1.762,3.418-.516.053-.576.09-.613.181l-.033.082.058.076A2.109,2.109,0,0,0,825.091,159.608Z" transform="translate(-682.457 -135.421)" fill="#2f2e41"/>
      <path id="路径_2600" data-name="路径 2600" d="M655.276,359.007l-3.971-7.918c-5.764.394-17.205,7.059-17.205,7.059l-21.646,4.589a3.911,3.911,0,1,0,1.066,6.683l27.535-1.974Z" transform="translate(-519.523 -306.41)" fill="#ffb8b8"/>
      <path id="路径_2601" data-name="路径 2601" d="M805.361,305.715l10.372-7.708,1.827-6.584a7.191,7.191,0,0,0-2.163-7.276h0a7.174,7.174,0,0,0-9.79.316c-3.9,3.9-8.355,9.331-7.4,13.1l.01.038Z" transform="translate(-671 -251.8)" fill="#00a096"/>
      <rect id="矩形_1238" data-name="矩形 1238" width="27.752" height="3.7" transform="translate(93.518 74.485)" fill="#fff"/>
      <rect id="矩形_1239" data-name="矩形 1239" width="27.752" height="3.7" transform="translate(22.133 74.485)" fill="#fff"/>
      <path id="路径_2602" data-name="路径 2602" d="M441.818,406.386V424a.847.847,0,0,0,.847.847h26.108a.847.847,0,0,0,.847-.847V406.386a.848.848,0,0,0-.847-.846H442.665a.848.848,0,0,0-.847.846Z" transform="translate(-388.427 -349.683)" fill="#3f3d56"/>
      <path id="路径_2603" data-name="路径 2603" d="M444.8,408.969v17.182a.453.453,0,0,0,.453.453h25.673a.453.453,0,0,0,.453-.453V408.969a.454.454,0,0,0-.452-.454H445.25a.453.453,0,0,0-.453.454Z" transform="translate(-390.793 -352.047)" fill="#00a096"/>
      <path id="路径_2604" data-name="路径 2604" d="M438.715,500.874a.508.508,0,0,0,.4.191H467.07a.514.514,0,0,0,.5-.62l-.434-2.061a.515.515,0,0,0-.32-.374.5.5,0,0,0-.183-.034h-27.09a.5.5,0,0,0-.182.034.515.515,0,0,0-.32.374l-.434,2.061A.514.514,0,0,0,438.715,500.874Z" transform="translate(-385.871 -423.129)" fill="#2f2e41"/>
      <rect id="矩形_1240" data-name="矩形 1240" width="0.861" height="0.517" rx="0.258" transform="translate(80.636 75.735) rotate(180)" fill="#3f3d56"/>
      <rect id="矩形_1241" data-name="矩形 1241" width="0.861" height="0.517" rx="0.258" transform="translate(78.906 75.735) rotate(180)" fill="#3f3d56"/>
      <rect id="矩形_1242" data-name="矩形 1242" width="0.861" height="0.517" rx="0.258" transform="translate(77.177 75.735) rotate(180)" fill="#3f3d56"/>
      <rect id="矩形_1243" data-name="矩形 1243" width="0.861" height="0.517" rx="0.258" transform="translate(75.448 75.735) rotate(180)" fill="#3f3d56"/>
      <rect id="矩形_1244" data-name="矩形 1244" width="0.861" height="0.517" rx="0.258" transform="translate(73.719 75.735) rotate(180)" fill="#3f3d56"/>
      <rect id="矩形_1245" data-name="矩形 1245" width="0.861" height="0.517" rx="0.258" transform="translate(71.989 75.735) rotate(180)" fill="#3f3d56"/>
      <rect id="矩形_1246" data-name="矩形 1246" width="0.861" height="0.517" rx="0.258" transform="translate(70.26 75.735) rotate(180)" fill="#3f3d56"/>
      <rect id="矩形_1247" data-name="矩形 1247" width="0.861" height="0.517" rx="0.258" transform="translate(68.531 75.735) rotate(180)" fill="#3f3d56"/>
      <rect id="矩形_1248" data-name="矩形 1248" width="0.861" height="0.517" rx="0.258" transform="translate(66.801 75.735) rotate(180)" fill="#3f3d56"/>
      <rect id="矩形_1249" data-name="矩形 1249" width="0.861" height="0.517" rx="0.258" transform="translate(65.072 75.735) rotate(180)" fill="#3f3d56"/>
      <rect id="矩形_1250" data-name="矩形 1250" width="0.861" height="0.517" rx="0.258" transform="translate(63.343 75.735) rotate(180)" fill="#3f3d56"/>
      <rect id="矩形_1251" data-name="矩形 1251" width="0.861" height="0.517" rx="0.258" transform="translate(61.614 75.735) rotate(180)" fill="#3f3d56"/>
      <rect id="矩形_1252" data-name="矩形 1252" width="0.861" height="0.517" rx="0.258" transform="translate(59.884 75.735) rotate(180)" fill="#3f3d56"/>
      <rect id="矩形_1253" data-name="矩形 1253" width="0.861" height="0.517" rx="0.258" transform="translate(58.155 75.735) rotate(180)" fill="#3f3d56"/>
      <rect id="矩形_1254" data-name="矩形 1254" width="0.861" height="0.517" rx="0.258" transform="translate(56.426 75.735) rotate(180)" fill="#3f3d56"/>
      <rect id="矩形_1255" data-name="矩形 1255" width="0.861" height="0.517" rx="0.258" transform="translate(54.697 75.735) rotate(180)" fill="#3f3d56"/>
      <rect id="矩形_1256" data-name="矩形 1256" width="0.861" height="0.517" rx="0.258" transform="translate(80.656 76.595) rotate(180)" fill="#3f3d56"/>
      <rect id="矩形_1257" data-name="矩形 1257" width="0.861" height="0.517" rx="0.258" transform="translate(78.927 76.595) rotate(180)" fill="#3f3d56"/>
      <rect id="矩形_1258" data-name="矩形 1258" width="0.861" height="0.517" rx="0.258" transform="translate(77.198 76.595) rotate(180)" fill="#3f3d56"/>
      <rect id="矩形_1259" data-name="矩形 1259" width="0.861" height="0.517" rx="0.258" transform="translate(75.468 76.595) rotate(180)" fill="#3f3d56"/>
      <rect id="矩形_1260" data-name="矩形 1260" width="0.861" height="0.517" rx="0.258" transform="translate(73.739 76.595) rotate(180)" fill="#3f3d56"/>
      <rect id="矩形_1261" data-name="矩形 1261" width="0.861" height="0.517" rx="0.258" transform="translate(72.01 76.595) rotate(180)" fill="#3f3d56"/>
      <rect id="矩形_1262" data-name="矩形 1262" width="0.861" height="0.517" rx="0.258" transform="translate(70.28 76.595) rotate(180)" fill="#3f3d56"/>
      <rect id="矩形_1263" data-name="矩形 1263" width="0.861" height="0.517" rx="0.258" transform="translate(68.551 76.595) rotate(180)" fill="#3f3d56"/>
      <rect id="矩形_1264" data-name="矩形 1264" width="0.861" height="0.517" rx="0.258" transform="translate(66.822 76.595) rotate(180)" fill="#3f3d56"/>
      <rect id="矩形_1265" data-name="矩形 1265" width="0.861" height="0.517" rx="0.258" transform="translate(65.093 76.595) rotate(180)" fill="#3f3d56"/>
      <rect id="矩形_1266" data-name="矩形 1266" width="0.861" height="0.517" rx="0.258" transform="translate(63.363 76.595) rotate(180)" fill="#3f3d56"/>
      <rect id="矩形_1267" data-name="矩形 1267" width="0.861" height="0.517" rx="0.258" transform="translate(61.634 76.595) rotate(180)" fill="#3f3d56"/>
      <rect id="矩形_1268" data-name="矩形 1268" width="0.861" height="0.517" rx="0.258" transform="translate(59.905 76.595) rotate(180)" fill="#3f3d56"/>
      <rect id="矩形_1269" data-name="矩形 1269" width="0.861" height="0.517" rx="0.258" transform="translate(58.175 76.595) rotate(180)" fill="#3f3d56"/>
      <rect id="矩形_1270" data-name="矩形 1270" width="0.861" height="0.517" rx="0.258" transform="translate(56.446 76.595) rotate(180)" fill="#3f3d56"/>
      <rect id="矩形_1271" data-name="矩形 1271" width="0.861" height="0.517" rx="0.258" transform="translate(54.717 76.595) rotate(180)" fill="#3f3d56"/>
      <rect id="矩形_1272" data-name="矩形 1272" width="6.888" height="0.517" rx="0.258" transform="translate(72.34 77.627) rotate(180)" fill="#3f3d56"/>
    </g>
  </g>
</svg>
