<svg xmlns="http://www.w3.org/2000/svg" viewBox="0 0 955.735 836.266" width="40" height="40" style="" filter="none">
    
    <g>
    
  <defs fill="rgba(255,255,255,1)">
    <linearGradient id="linear-gradient" x1="1" y1="0.472" x2="0.007" y2="0.48" gradientUnits="objectBoundingBox" fill="rgba(255,255,255,1)">
      <stop offset="0" stop-color="#ff5000" stop-opacity="0.8" fill="rgba(255,255,255,1)"></stop>
      <stop offset="1" stop-color="#ff5000" fill="rgba(255,255,255,1)"></stop>
    </linearGradient>
  </defs>
  <g id="组_519" data-name="组 519" transform="translate(-34.134 -93.867)" fill="rgba(255,255,255,1)">
    <path id="联合_13" data-name="联合 13" d="M15452,13659.134c-51.2,0-93.868-42.667-93.868-93.869v-648.532c0-51.2,42.666-93.864,93.868-93.864h768c51.2,0,93.869,42.666,93.869,93.864v648.532c0,51.2-42.671,93.869-93.869,93.869Zm-42.67-742.4v648.532a42.254,42.254,0,0,0,42.67,42.666h768a42.251,42.251,0,0,0,42.666-42.666v-648.532a42.251,42.251,0,0,0-42.666-42.666h-768A42.254,42.254,0,0,0,15409.332,12916.732Zm93.868,537.6c-15.361,0-25.6-11.942-25.6-25.6,0-100.694,81.921-180.908,180.908-180.908s180.9,80.214,180.9,180.908c0,13.654-10.239,25.6-25.6,25.6Zm27.3-51.2h256c-11.947-59.735-64.853-104.1-128-104.1S15542.452,13343.4,15530.5,13403.133Zm534.188-58.028c-10.24-10.239-10.24-25.6,0-35.837l66.56-66.56-66.56-66.561c-10.24-10.239-10.24-25.6,0-35.841s25.6-10.239,35.841,0l85.332,85.332c10.24,10.24,10.24,25.6,0,35.842l-85.332,85.332c-3.415,3.414-10.24,5.122-17.069,5.122S16069.815,13350.227,16064.693,13345.1Zm-141.653,0c-10.239-10.239-10.239-25.6,0-35.837l66.561-66.56-66.561-66.561c-10.239-10.239-10.239-25.6,0-35.841s25.6-10.239,35.842,0l85.332,85.332c10.239,10.24,10.239,25.6,0,35.842l-85.332,85.332c-3.415,3.414-10.244,5.122-17.069,5.122S15928.158,13350.227,15923.04,13345.1Zm-360.1-223.569a95.572,95.572,0,1,1,95.572,95.571A95.418,95.418,0,0,1,15562.936,13121.535Zm51.2,1.707c0,23.89,20.479,44.369,44.374,44.369s44.373-20.479,44.373-44.369-20.479-44.373-44.373-44.373S15614.134,13099.348,15614.134,13123.242Z" transform="translate(-15324 -12729)" fill="rgba(255,255,255,1)" stroke="none"></path>
  </g>

    </g>
  </svg>