<svg xmlns="http://www.w3.org/2000/svg" xmlns:xlink="http://www.w3.org/1999/xlink" width="800" height="699.998" viewBox="0 0 800 699.998">
  <defs>
    <linearGradient id="linear-gradient" y1="0.5" x2="1" y2="0.5" gradientUnits="objectBoundingBox">
      <stop offset="0" stop-color="orange"/>
      <stop offset="1" stop-color="orange" stop-opacity="0.604"/>
    </linearGradient>
  </defs>
  <path id="_1" data-name="1" d="M78.573,700C35.713,700,0,664.284,0,621.424V78.569C0,35.713,35.713,0,78.573,0H721.427C764.283,0,800,35.713,800,78.569V621.424C800,664.284,764.283,700,721.427,700ZM42.856,78.569V621.424a35.369,35.369,0,0,0,35.717,35.714H721.427a35.366,35.366,0,0,0,35.713-35.714V78.569a35.366,35.366,0,0,0-35.713-35.713H78.573A35.369,35.369,0,0,0,42.856,78.569Zm78.572,450c-12.858,0-21.428-10-21.428-21.425,0-84.287,68.572-151.429,151.429-151.429s151.425,67.143,151.425,151.429c0,11.429-8.57,21.425-21.425,21.425Zm22.856-42.856H358.57c-10-50-54.284-87.14-107.141-87.14S154.284,435.71,144.284,485.711Zm447.144-48.573a20.71,20.71,0,0,1,0-30l55.714-55.713-55.714-55.715a21.214,21.214,0,0,1,30-30l71.428,71.427a20.717,20.717,0,0,1,0,30l-71.428,71.428c-2.858,2.858-8.571,4.288-14.288,4.288S595.714,441.427,591.427,437.139Zm-118.571,0a20.712,20.712,0,0,1,0-30l55.715-55.713-55.715-55.715a21.214,21.214,0,0,1,30-30l71.428,71.427a20.718,20.718,0,0,1,0,30l-71.428,71.428c-2.858,2.858-8.575,4.288-14.288,4.288S477.14,441.427,472.856,437.139ZM171.43,250a80,80,0,1,1,80,80A79.87,79.87,0,0,1,171.43,250Zm42.856,1.429c0,20,17.142,37.139,37.143,37.139s37.143-17.142,37.143-37.139-17.142-37.143-37.143-37.143S214.286,231.428,214.286,251.429Z" fill="url(#linear-gradient)"/>
</svg>
