<svg xmlns="http://www.w3.org/2000/svg" xmlns:xlink="http://www.w3.org/1999/xlink" width="799.997" height="699.998" viewBox="0 0 799.997 699.998">
  <defs>
    <linearGradient id="linear-gradient" y1="0.478" x2="1" y2="0.482" gradientUnits="objectBoundingBox">
      <stop offset="0" stop-color="#ff5000"/>
      <stop offset="1" stop-color="#ff5000" stop-opacity="0.302"/>
    </linearGradient>
  </defs>
  <path id="联合_14" data-name="联合 14" d="M78.572,700C35.715,700,0,664.285,0,621.427V78.571C0,35.715,35.715,0,78.572,0H721.427C764.284,0,800,35.715,800,78.571V621.427C800,664.284,764.284,700,721.427,700H78.572ZM42.857,78.571V621.427A35.368,35.368,0,0,0,78.572,657.14H721.427a35.367,35.367,0,0,0,35.714-35.714V78.571a35.367,35.367,0,0,0-35.714-35.714H78.572A35.369,35.369,0,0,0,42.857,78.571Zm192.45,445.855-84.238-59.5a22.6,22.6,0,0,1-8.315-25.759l56.851-165.8L172.67,200.4A22.6,22.6,0,0,1,193.851,170H309.03a22.566,22.566,0,0,1,21.18,30.4l-26.965,72.97,56.852,165.8a22.6,22.6,0,0,1-8.949,26.211l-90.383,59.5a22.656,22.656,0,0,1-25.458-.452Zm-44.318-86.619h0L248.8,478.632l62.878-41.4L263.146,295.694h-23.41Zm48.355-187.336h24.223l13.076-35.31H226.3Zm352.084,186.67a20.714,20.714,0,0,1,0-30l55.714-55.714-55.714-55.715a21.213,21.213,0,0,1,30-30l71.429,71.428a20.714,20.714,0,0,1,0,30l-71.429,71.429c-2.857,2.857-8.572,4.286-14.286,4.286S595.714,441.428,591.428,437.142Zm-118.572,0a20.714,20.714,0,0,1,0-30l55.715-55.714-55.715-55.715a21.213,21.213,0,0,1,30-30l71.428,71.428a20.714,20.714,0,0,1,0,30l-71.428,71.429c-2.857,2.857-8.571,4.286-14.286,4.286S477.141,441.428,472.855,437.142Z" transform="translate(-0.001)" fill="url(#linear-gradient)"/>
</svg>
