<svg xmlns="http://www.w3.org/2000/svg" xmlns:xlink="http://www.w3.org/1999/xlink" width="799.997" height="699.997" viewBox="0 0 799.997 699.997">
  <defs>
    <linearGradient id="linear-gradient" y1="0.5" x2="1" y2="0.5" gradientUnits="objectBoundingBox">
      <stop offset="0" stop-color="orange"/>
      <stop offset="1" stop-color="orange" stop-opacity="0.604"/>
    </linearGradient>
  </defs>
  <path id="_3" data-name="3" d="M78.572,700C35.715,700,0,664.284,0,621.427V78.571C0,35.714,35.715,0,78.572,0H721.426C764.283,0,800,35.714,800,78.571V621.426C800,664.283,764.283,700,721.426,700H78.572ZM42.857,78.571V621.426A35.368,35.368,0,0,0,78.572,657.14H721.426a35.368,35.368,0,0,0,35.715-35.714V78.571a35.367,35.367,0,0,0-35.715-35.714H78.572A35.369,35.369,0,0,0,42.857,78.571ZM313.682,468.213a24.663,24.663,0,0,1-24.662-24.662V357.235h86.316A24.661,24.661,0,0,1,400,381.9v61.655a24.662,24.662,0,0,1-24.662,24.662Zm0-24.663h61.654V381.9H313.683ZM190.374,468.212a24.661,24.661,0,0,1-24.662-24.662V381.9a24.661,24.661,0,0,1,24.662-24.662H276.69v86.315a24.661,24.661,0,0,1-24.661,24.662Zm0-24.662h61.655V381.9H190.374Zm401.053-6.409a20.714,20.714,0,0,1,0-30l55.714-55.714-55.714-55.714a21.213,21.213,0,0,1,30-30l71.428,71.428a20.715,20.715,0,0,1,0,30L621.427,438.57c-2.858,2.858-8.572,4.286-14.286,4.286S595.713,441.428,591.427,437.142Zm-118.571,0a20.714,20.714,0,0,1,0-30l55.715-55.714-55.715-55.714a21.213,21.213,0,0,1,30-30l71.428,71.428a20.714,20.714,0,0,1,0,30L502.855,438.57c-2.857,2.858-8.571,4.286-14.286,4.286S477.141,441.428,472.855,437.142ZM289.022,344.9V258.588a24.662,24.662,0,0,1,24.662-24.662h61.654A24.662,24.662,0,0,1,400,258.588v61.654A24.661,24.661,0,0,1,375.337,344.9Zm24.662-24.662h61.654V258.588H313.683ZM190.374,344.9a24.662,24.662,0,0,1-24.662-24.662V258.588a24.662,24.662,0,0,1,24.662-24.662h61.655a24.663,24.663,0,0,1,24.662,24.662V344.9Zm0-24.662h61.655V258.588H190.374Z" transform="translate(-0.001)" fill="url(#linear-gradient)"/>
</svg>
