<svg xmlns="http://www.w3.org/2000/svg" xmlns:xlink="http://www.w3.org/1999/xlink" width="799.997" height="699.997" viewBox="0 0 799.997 699.997">
  <defs>
    <linearGradient id="linear-gradient" y1="0.473" x2="1" y2="0.475" gradientUnits="objectBoundingBox">
      <stop offset="0" stop-color="#ff5000"/>
      <stop offset="1" stop-color="#ff5000" stop-opacity="0.8"/>
    </linearGradient>
  </defs>
  <path id="联合_17" data-name="联合 17" d="M78.571,700C35.714,700,0,664.284,0,621.427V78.571C0,35.714,35.714,0,78.571,0H721.425C764.282,0,800,35.714,800,78.571V621.426C800,664.283,764.282,700,721.425,700H78.571ZM42.856,78.571V621.426A35.368,35.368,0,0,0,78.571,657.14H721.425a35.368,35.368,0,0,0,35.715-35.714V78.571a35.368,35.368,0,0,0-35.715-35.714H78.571A35.369,35.369,0,0,0,42.856,78.571ZM239.783,512.738v.161L96.09,511.529l2.015-196.7a32.8,32.8,0,0,1,16.61-28.156l39.34-22.261a32.782,32.782,0,0,1,32.773.315l29.965,17.718.288-28.166a39.3,39.3,0,0,1,19.891-33.727l52.556-29.738a39.28,39.28,0,0,1,39.254.38l51.976,30.738A39.284,39.284,0,0,1,400,256.053l-2.648,258.2ZM302.76,226.2,255.2,255.935a12.361,12.361,0,0,0-6.255,10.61l-2.38,209.345,118.193,1.238,2.37-209.352a12.352,12.352,0,0,0-6.046-10.725L315.1,226.318a12.361,12.361,0,0,0-12.344-.118ZM167.291,298.79l-34.349,22.266a5.861,5.861,0,0,0-2.972,5.037l-1.743,148.824,84.968.855,1.74-148.83a5.867,5.867,0,0,0-2.876-5.09L173.15,298.845a5.865,5.865,0,0,0-5.859-.055ZM290.853,456.467V294.37h31.865v162.1Zm-135.27,0v-91.1h28.864v91.1Zm435.843-19.326a20.714,20.714,0,0,1,0-30l55.714-55.715-55.714-55.714a21.213,21.213,0,1,1,30-30l71.428,71.428a20.715,20.715,0,0,1,0,30l-71.428,71.428c-2.857,2.857-8.572,4.286-14.286,4.286S595.712,441.427,591.426,437.141Zm-118.571,0a20.714,20.714,0,0,1,0-30l55.714-55.715-55.714-55.714a21.213,21.213,0,0,1,30-30l71.429,71.428a20.715,20.715,0,0,1,0,30l-71.429,71.428c-2.857,2.857-8.572,4.286-14.286,4.286S477.14,441.427,472.855,437.141Z" transform="translate(0.001)" fill="url(#linear-gradient)"/>
</svg>
