<svg xmlns="http://www.w3.org/2000/svg" xmlns:xlink="http://www.w3.org/1999/xlink" width="799.997" height="699.997" viewBox="0 0 799.997 699.997">
  <defs>
    <linearGradient id="linear-gradient" y1="0.473" x2="1" y2="0.475" gradientUnits="objectBoundingBox">
      <stop offset="0" stop-color="#ff5000"/>
      <stop offset="1" stop-color="#ff5000" stop-opacity="0.8"/>
    </linearGradient>
  </defs>
  <path id="联合_18" data-name="联合 18" d="M78.571,700C35.714,700,0,664.284,0,621.427V78.571C0,35.714,35.714,0,78.571,0H721.425C764.282,0,800,35.714,800,78.571V621.426C800,664.283,764.282,700,721.425,700H78.571ZM42.856,78.571V621.426A35.368,35.368,0,0,0,78.571,657.14H721.425a35.368,35.368,0,0,0,35.715-35.714V78.571a35.368,35.368,0,0,0-35.715-35.714H78.571A35.369,35.369,0,0,0,42.856,78.571ZM182.2,514.249a16.13,16.13,0,0,1-15.612-13.9L141.757,317.285a15.608,15.608,0,1,1,30.932-4.2l23.053,169.934h83.611l23.165-157.1a15.608,15.608,0,0,1,30.933,4.2L310.9,483.024H327.28l23.053-169.934a15.608,15.608,0,0,1,30.933,4.2L356.432,500.344a17.139,17.139,0,0,1-16.539,13.9Zm409.223-77.108a20.714,20.714,0,0,1,0-30l55.714-55.715-55.714-55.714a21.213,21.213,0,1,1,30-30l71.428,71.428a20.715,20.715,0,0,1,0,30l-71.428,71.428c-2.857,2.857-8.572,4.286-14.286,4.286S595.712,441.427,591.426,437.141Zm-118.571,0a20.714,20.714,0,0,1,0-30l55.714-55.715-55.714-55.714a21.213,21.213,0,0,1,30-30l71.429,71.428a20.715,20.715,0,0,1,0,30l-71.429,71.428c-2.857,2.857-8.572,4.286-14.286,4.286S477.14,441.427,472.855,437.141ZM111.7,277.132a15.613,15.613,0,1,1,0-31.225h74.406c0-.13,0-.261,0-.391V221.755a36.013,36.013,0,0,1,36.007-36.006h78.893a36.085,36.085,0,0,1,36.056,36.006v23.761c0,.13,0,.261,0,.391h74.211a15.613,15.613,0,1,1,0,31.225Zm105.629-55.377V244h88.456V221.755a4.789,4.789,0,0,0-4.781-4.781H222.114A4.789,4.789,0,0,0,217.332,221.755Z" transform="translate(0.001)" fill="url(#linear-gradient)"/>
</svg>
