<svg xmlns="http://www.w3.org/2000/svg" xmlns:xlink="http://www.w3.org/1999/xlink" width="799.998" height="699.997" viewBox="0 0 799.998 699.997">
  <defs>
    <linearGradient id="linear-gradient" y1="0.5" x2="1" y2="0.5" gradientUnits="objectBoundingBox">
      <stop offset="0" stop-color="orange"/>
      <stop offset="1" stop-color="orange" stop-opacity="0.604"/>
    </linearGradient>
  </defs>
  <path id="_6" data-name="6" d="M78.572,700C35.715,700,0,664.284,0,621.427V78.571C0,35.714,35.715,0,78.572,0H721.426C764.283,0,800,35.714,800,78.571V621.426C800,664.283,764.283,700,721.426,700H78.572ZM42.857,78.571V621.426A35.368,35.368,0,0,0,78.572,657.14H721.426a35.368,35.368,0,0,0,35.715-35.714V78.571a35.368,35.368,0,0,0-35.715-35.714H78.572A35.369,35.369,0,0,0,42.857,78.571ZM381.493,527.009a12.053,12.053,0,0,1-12.069-12.069V229.308a8.07,8.07,0,0,0-8.046-8.046h-193.1a8.07,8.07,0,0,0-8.046,8.046V514.94a12.052,12.052,0,0,1-12.069,12.069H132.068a12.069,12.069,0,0,1,0-24.138h4.023V229.308a32.175,32.175,0,0,1,32.183-32.184H224.6a24.209,24.209,0,0,1,24.138-24.138h32.184a24.209,24.209,0,0,1,24.138,24.138h56.321a32.176,32.176,0,0,1,32.184,32.184V502.871h4.023a12.069,12.069,0,1,1,0,24.138Zm-125.919,0a16.064,16.064,0,0,1-16.012-14.885l-6.919-89.713h-1.288a15.915,15.915,0,0,1-15.931-14.724l-5.391-64.368a16.069,16.069,0,0,1,16.012-17.459h77.644A16.069,16.069,0,0,1,319.7,343.319l-5.391,64.368A16.046,16.046,0,0,1,298.3,422.411H297.01l-6.919,89.713a16.007,16.007,0,0,1-16.011,14.885Zm335.853-89.869a20.714,20.714,0,0,1,0-30l55.714-55.715-55.714-55.714a21.213,21.213,0,1,1,30-30l71.428,71.428a20.715,20.715,0,0,1,0,30l-71.428,71.428c-2.858,2.857-8.572,4.286-14.286,4.286S595.713,441.427,591.427,437.141Zm-118.571,0a20.714,20.714,0,0,1,0-30l55.715-55.715-55.715-55.714a21.213,21.213,0,1,1,30-30l71.428,71.428a20.715,20.715,0,0,1,0,30l-71.428,71.428c-2.857,2.857-8.572,4.286-14.286,4.286S477.141,441.427,472.855,437.141ZM240.689,293.676a24.138,24.138,0,1,1,24.138,24.138A24.138,24.138,0,0,1,240.689,293.676Z" fill="url(#linear-gradient)"/>
</svg>
