<svg xmlns="http://www.w3.org/2000/svg" xmlns:xlink="http://www.w3.org/1999/xlink" width="799.998" height="699.997" viewBox="0 0 799.998 699.997">
  <defs>
    <linearGradient id="linear-gradient" y1="0.5" x2="1" y2="0.5" gradientUnits="objectBoundingBox">
      <stop offset="0" stop-color="orange"/>
      <stop offset="1" stop-color="orange" stop-opacity="0.604"/>
    </linearGradient>
  </defs>
  <path id="_7" data-name="7" d="M78.572,700C35.715,700,0,664.284,0,621.427V78.571C0,35.714,35.715,0,78.572,0H721.426C764.283,0,800,35.714,800,78.571V621.426C800,664.283,764.283,700,721.426,700H78.572ZM42.857,78.571V621.426A35.368,35.368,0,0,0,78.572,657.14H721.426a35.368,35.368,0,0,0,35.715-35.714V78.571a35.368,35.368,0,0,0-35.715-35.714H78.572A35.369,35.369,0,0,0,42.857,78.571Zm87.267,427.352A11.157,11.157,0,0,1,119,494.8V260.65a11.158,11.158,0,0,1,11.125-11.125h46.934V246.57a11.157,11.157,0,0,1,11.125-11.125H203.27a31.192,31.192,0,0,1-.139-3.129,38.242,38.242,0,0,1,76.485,0c0,1.043-.069,2.086-.139,3.129h15.089A11.157,11.157,0,0,1,305.69,246.57v2.955h46.934a11.158,11.158,0,0,1,11.125,11.125V494.8a11.157,11.157,0,0,1-11.125,11.125Zm13.906-25.379H338.718V274.208H305.274a11.127,11.127,0,0,1-10.708,8.17H188.183a11.158,11.158,0,0,1-10.708-8.17H144.03Zm80.309-248.575a17.035,17.035,0,1,0,17.035-17.035A17.019,17.019,0,0,0,224.339,231.969ZM591.427,437.141a20.714,20.714,0,0,1,0-30l55.714-55.715-55.714-55.714a21.213,21.213,0,1,1,30-30l71.428,71.428a20.715,20.715,0,0,1,0,30l-71.428,71.428c-2.858,2.857-8.572,4.286-14.286,4.286S595.713,441.427,591.427,437.141Zm-118.571,0a20.714,20.714,0,0,1,0-30l55.715-55.715-55.715-55.714a21.213,21.213,0,1,1,30-30l71.428,71.428a20.715,20.715,0,0,1,0,30l-71.428,71.428c-2.857,2.857-8.572,4.286-14.286,4.286S477.141,441.427,472.855,437.141ZM170.8,438.651a5.579,5.579,0,0,1-5.562-5.563V421.963A5.579,5.579,0,0,1,170.8,416.4h141.15a5.579,5.579,0,0,1,5.562,5.563v11.125a5.579,5.579,0,0,1-5.562,5.563Zm65.742-47.664c0-14.637-13-26.561-28.96-26.561s-28.959,11.924-28.959,26.561a6.084,6.084,0,1,1-12.168,0,37.416,37.416,0,0,1,12.2-27.535,40.41,40.41,0,0,1,9.109-6.431,30.385,30.385,0,1,1,39.633,0,41.531,41.531,0,0,1,9.108,6.431,37.417,37.417,0,0,1,12.2,27.535,6.084,6.084,0,1,1-12.168,0Zm-47.212-57.016a18.252,18.252,0,1,0,18.252-18.287A18.3,18.3,0,0,0,189.329,333.971ZM267.8,383.026a5.579,5.579,0,0,1-5.562-5.563V366.338a5.578,5.578,0,0,1,5.562-5.562h44.5a5.578,5.578,0,0,1,5.562,5.562v11.125a5.579,5.579,0,0,1-5.562,5.563Zm0-38.242a5.579,5.579,0,0,1-5.562-5.563V328.1a5.579,5.579,0,0,1,5.562-5.563h44.5a5.579,5.579,0,0,1,5.562,5.563v11.125a5.579,5.579,0,0,1-5.562,5.563Z" fill="url(#linear-gradient)"/>
</svg>
