<svg xmlns="http://www.w3.org/2000/svg" viewBox="0 0 799.997 699.997" width="40" height="40" style="border-color: rgba(187,187,187,1);border-width: 0px;border-style: solid" filter="none">
    
    <g>
    
  <defs fill="rgba(255,255,255,1)">
    <linearGradient id="linear-gradient" y1="0.5" x2="1" y2="0.5" gradientUnits="objectBoundingBox" fill="rgba(255,255,255,1)">
      <stop offset="0" stop-color="#ff5000" fill="rgba(255,255,255,1)"></stop>
      <stop offset="1" stop-color="#ff5000" stop-opacity="0.8" fill="rgba(255,255,255,1)"></stop>
    </linearGradient>
  </defs>
  <path id="联合_25" data-name="联合 25" d="M78.572,700C35.715,700,0,664.284,0,621.427V78.571C0,35.714,35.715,0,78.572,0H721.426C764.283,0,800,35.714,800,78.571V621.426C800,664.283,764.283,700,721.426,700H78.572ZM42.857,78.571V621.426A35.368,35.368,0,0,0,78.572,657.14H721.426a35.368,35.368,0,0,0,35.715-35.714V78.571a35.368,35.368,0,0,0-35.715-35.714H78.572A35.369,35.369,0,0,0,42.857,78.571ZM164,493.147V482.63a16.007,16.007,0,0,1,32.013,0v10.517a20,20,0,0,0,40,0V385.463A26.694,26.694,0,0,0,229.76,369c-.127-.156-.254-.306-.383-.456-.036-.041-.073-.079-.11-.123-2.32-2.633-7.038-6.89-13.26-6.89s-10.938,4.257-13.245,6.89c-.035.044-.072.082-.108.123a26.706,26.706,0,0,0-6.637,16.917,15.983,15.983,0,0,1-15.6,15.945c-.138.006-.275.006-.414.006a15.959,15.959,0,0,1-10.732-4.127c-.007,0-.014-.012-.019-.018-.08-.073-.158-.144-.237-.218-.014-.012-.03-.03-.046-.044-.058-.053-.115-.109-.173-.165-.034-.035-.069-.071-.1-.1s-.067-.068-.1-.1c-.058-.056-.114-.115-.17-.171-.015-.018-.028-.03-.043-.047-.074-.077-.148-.157-.22-.236a.064.064,0,0,0-.016-.018,15.921,15.921,0,0,1-3.766-7.27,123.086,123.086,0,0,1-2.418-12.967,28.078,28.078,0,0,0-4.592-7.382c-.152-.174-.316-.359-.491-.548-2.433-2.642-6.964-6.466-12.863-6.466-6.319,0-11.088,4.392-13.37,7.014a26.8,26.8,0,0,0-6.637,16.917,16,16,0,0,1-32,0v-16.4A158.214,158.214,0,0,1,138.9,256.547a159.742,159.742,0,0,1,97.115-45.786v-.8a16,16,0,0,1,32,0v.8a160,160,0,0,1,131.408,96.346,157.216,157.216,0,0,1,12.594,61.957v16.4a16,16,0,0,1-32,0,26.787,26.787,0,0,0-6.638-16.917c-2.281-2.622-7.048-7.014-13.368-7.014s-11.089,4.392-13.353,7.014a27.518,27.518,0,0,0-3.577,5.214.357.357,0,0,1-.016.036c-.065.121-.127.244-.189.365-.02.038-.04.077-.059.114-.056.113-.112.224-.167.339-.022.041-.045.088-.066.132-.054.115-.107.227-.16.338l-.039.086c-.1.21-.191.425-.283.639-.028.065-.058.127-.086.192-.035.092-.071.177-.106.263s-.067.162-.1.244-.064.162-.1.245-.069.183-.1.274c-.029.074-.055.145-.082.218-.042.121-.086.236-.125.356-.018.048-.034.095-.05.142-.059.17-.118.347-.175.521v.005c-.057.175-.112.354-.163.531a.314.314,0,0,1-.016.047c-.05.176-.1.347-.146.521,0,0,0,.006,0,.006a24.906,24.906,0,0,0-.627,3.048c-.1,2.552-.25,4.139-.3,4.658,0,.006,0,.009,0,.014,0,.05-.007.089-.012.121A15.83,15.83,0,0,1,336.6,395.3l-.013.014c-.072.094-.146.183-.22.274a.266.266,0,0,0-.032.038c-.068.079-.136.162-.205.245-.018.021-.034.038-.05.059-.065.074-.131.145-.2.218-.022.021-.041.044-.062.065l-.19.207c-.024.023-.048.049-.073.076-.059.059-.12.123-.182.183a.794.794,0,0,1-.086.088c-.058.059-.118.114-.177.171-.031.029-.062.065-.093.088-.057.056-.113.109-.17.159-.035.035-.072.068-.108.1l-.157.141c-.042.038-.083.07-.125.109s-.087.074-.131.109c-.225.192-.454.371-.688.551a.167.167,0,0,0-.028.023c-.078.057-.157.115-.235.171a.41.41,0,0,0-.062.048c-.074.049-.148.1-.221.153-.029.017-.055.038-.082.056-.074.053-.148.1-.221.148a.787.787,0,0,1-.083.052c-.077.053-.157.1-.235.15a.659.659,0,0,1-.071.044c-.079.05-.16.1-.242.145-.023.014-.049.032-.072.044-.081.047-.161.095-.244.141-.025.012-.051.027-.077.041l-.246.135c-.025.013-.051.024-.077.039-.085.047-.168.088-.254.132l-.064.03c-.092.047-.18.088-.27.132a.193.193,0,0,1-.05.021c-.1.048-.192.092-.288.133-.009.005-.016.008-.025.014a15.723,15.723,0,0,1-1.985.725.37.37,0,0,1-.06.014c-.086.027-.173.053-.258.074-.039.012-.077.021-.117.03-.078.023-.157.044-.237.062l-.132.032-.23.053c-.049.012-.1.02-.15.032-.073.014-.148.032-.22.044-.051.009-.1.021-.155.029-.072.013-.145.027-.217.039l-.175.03c-.069.009-.136.023-.2.032s-.12.014-.181.023l-.2.026c-.067.009-.132.018-.2.021s-.125.018-.189.023-.137.013-.208.015a1.8,1.8,0,0,1-.182.017c-.076.006-.149.009-.223.015-.058,0-.115.005-.173.012-.083,0-.166,0-.249.009l-.145,0c-.133.006-.265.006-.4.006a15.962,15.962,0,0,1-10.734-4.127.058.058,0,0,1-.018-.018c-.079-.073-.158-.144-.236-.218a.419.419,0,0,1-.046-.044c-.059-.053-.115-.109-.175-.165-.034-.035-.068-.071-.1-.1s-.067-.068-.1-.1c-.057-.056-.112-.115-.169-.171-.014-.018-.029-.03-.042-.047-.074-.077-.148-.157-.22-.236a.08.08,0,0,0-.014-.018,15.863,15.863,0,0,1-4.14-10.7,26.758,26.758,0,0,0-6.637-16.917c-.153-.174-.318-.359-.491-.548-.094-.1-.189-.206-.288-.306l-.228-.236c-2.529-2.592-6.844-5.924-12.347-5.924-6.222,0-10.939,4.257-13.262,6.89-.035.044-.073.082-.108.123a26.8,26.8,0,0,0-6.637,16.917V493.147a52,52,0,0,1-104.006,0ZM322.943,291.974a271.7,271.7,0,0,1,13.02,44.384l.044-.027c.2-.121.4-.235.6-.35.023-.012.047-.027.07-.039.44-.253.885-.491,1.331-.727.059-.032.117-.062.175-.094.162-.082.323-.167.487-.25.067-.032.135-.068.2-.1.167-.085.336-.17.5-.253.055-.023.108-.05.161-.076.217-.106.435-.209.652-.312.059-.027.118-.056.176-.083.161-.07.32-.144.482-.218l.263-.118c.131-.056.264-.118.4-.174.1-.041.192-.079.288-.123.136-.059.275-.115.409-.171.086-.039.172-.074.257-.106.207-.085.412-.168.62-.25l.3-.115.367-.141c.107-.039.213-.083.321-.121l.354-.127c.11-.039.219-.077.328-.118.127-.047.254-.088.381-.132.152-.05.306-.1.458-.153l.446-.145c.112-.035.224-.074.337-.109s.229-.068.343-.1.23-.071.346-.106.227-.065.341-.1.224-.061.339-.094c.145-.041.292-.08.436-.118s.3-.083.454-.121.284-.074.426-.112c.106-.026.21-.049.315-.074.128-.032.255-.061.383-.094.1-.021.208-.048.313-.068l.4-.088c.1-.023.2-.044.294-.065q.325-.07.652-.132c.085-.014.169-.03.254-.047.146-.027.293-.057.44-.083.1-.018.2-.035.3-.05.141-.026.281-.047.421-.07l.284-.048c.152-.023.3-.047.455-.068.084-.012.168-.026.252-.035.225-.032.449-.062.674-.088l.224-.027c.161-.021.327-.038.49-.056.088-.012.177-.021.265-.03.155-.017.309-.029.463-.041l.256-.026.56-.044c.049,0,.1-.009.148-.012.235-.018.469-.03.7-.044.069,0,.14,0,.208-.009q.252-.009.5-.023c.085,0,.17-.006.255-.009.165-.006.332-.009.5-.014.074,0,.148,0,.221,0,.238,0,.475,0,.714,0A45.709,45.709,0,0,1,374.471,332a128.164,128.164,0,0,0-73.2-80.33A179.427,179.427,0,0,1,322.943,291.974ZM202.576,304.308A111.929,111.929,0,0,0,193.7,335.38a47.2,47.2,0,0,1,21.688-5.762c.207,0,.414,0,.619,0s.421,0,.632,0c.068,0,.138,0,.206,0,.139,0,.28.005.42.008.105.006.21.009.313.015s.207,0,.311.009c.125,0,.251.012.375.014l.244.014c.144.009.288.018.432.03.061,0,.124,0,.185.009.158.012.313.026.468.038.049,0,.1.009.146.012.173.015.345.032.516.045.032,0,.064.008.094.008l.549.059c.019,0,.04.005.059.005a47.532,47.532,0,0,1,15.056,4.319V259.319C224.248,270.535,210.935,285.977,202.576,304.308Zm65.434,29.9a48.919,48.919,0,0,1,7.134-2.722c.016,0,.032-.008.049-.012.156-.047.309-.091.464-.132a1.6,1.6,0,0,1,.171-.047c.127-.039.254-.074.383-.11l.242-.061c.11-.032.219-.056.327-.088s.207-.05.311-.077.182-.04.272-.065c.12-.029.24-.059.36-.085.076-.015.154-.039.23-.057l.41-.088c.064-.012.128-.026.191-.044l.439-.088a1.743,1.743,0,0,1,.174-.035c.157-.032.315-.065.472-.095l.139-.027.5-.088.116-.017c.182-.036.364-.065.545-.095a.264.264,0,0,0,.068-.009c.189-.03.383-.058.572-.085a.406.406,0,0,1,.053-.009c.2-.029.4-.056.6-.079a.061.061,0,0,1,.034-.006c.205-.026.413-.049.62-.077h.009a44.211,44.211,0,0,1,5.109-.294h.016c.189,0,.376,0,.565,0h.086a46.054,46.054,0,0,1,13.477,2.254,246.553,246.553,0,0,0-9.06-28.432,146.028,146.028,0,0,0-25.074-42.422Zm-123.376-4.59a46.359,46.359,0,0,1,17.054,3.57,144.589,144.589,0,0,1,11.757-42.082,165.9,165.9,0,0,1,23.605-36.9A128.132,128.132,0,0,0,129.552,332a45.717,45.717,0,0,1,14.462-2.38C144.221,329.615,144.427,329.615,144.634,329.618ZM591.427,437.141a20.714,20.714,0,0,1,0-30l55.714-55.715-55.714-55.714a21.213,21.213,0,1,1,30-30l71.428,71.428a20.715,20.715,0,0,1,0,30l-71.428,71.428c-2.858,2.857-8.572,4.286-14.286,4.286S595.713,441.427,591.427,437.141Zm-118.571,0a20.714,20.714,0,0,1,0-30l55.715-55.715-55.715-55.714a21.213,21.213,0,1,1,30-30l71.428,71.428a20.715,20.715,0,0,1,0,30l-71.428,71.428c-2.857,2.857-8.572,4.286-14.286,4.286S477.141,441.427,472.855,437.141Z" fill="rgba(255,255,255,1)" stroke="none"></path>

    </g>
  </svg>