<svg xmlns="http://www.w3.org/2000/svg" width="100" height="54" viewBox="0 0 144.997 77">
  <path id="路径_11119" data-name="路径 11119" d="M-77.762-12.417h6.184a14.5,14.5,0,0,1,3.858.394,4.31,4.31,0,0,1,2.027,1.139,3.915,3.915,0,0,1,.919,1.8,16.181,16.181,0,0,1,.241,3.28v2.06A8.593,8.593,0,0,1-65-.439a3.2,3.2,0,0,1-1.714,1.592,8.1,8.1,0,0,1-3.26.555h-1.648v9.525h-6.14Zm6.14,4.046v6.019q.263.015.452.015A1.419,1.419,0,0,0-70-2.754a3.065,3.065,0,0,0,.328-1.731V-6.428a2.282,2.282,0,0,0-.379-1.578A2.376,2.376,0,0,0-71.622-8.371ZM-56.8-12.417h4.346a33.177,33.177,0,0,1,5.885.336,4.051,4.051,0,0,1,2.509,1.716,7.8,7.8,0,0,1,.97,4.4,6.892,6.892,0,0,1-.685,3.71,3.6,3.6,0,0,1-2.7,1.139A4.611,4.611,0,0,1-44.019.1a3.623,3.623,0,0,1,.78,1.4A22.069,22.069,0,0,1-43.085,5v6.238h-5.7V3.374a5.429,5.429,0,0,0-.3-2.352q-.3-.453-1.568-.453V11.233H-56.8Zm6.14,4.046v5.259A2.7,2.7,0,0,0-49.2-3.4q.416-.285.416-1.848v-1.3a1.974,1.974,0,0,0-.4-1.475A2.279,2.279,0,0,0-50.655-8.371Zm29.952,9.8q0,3.564-.168,5.047a5.66,5.66,0,0,1-1.05,2.71,5.657,5.657,0,0,1-2.385,1.884,8.669,8.669,0,0,1-3.5.657,8.882,8.882,0,0,1-3.406-.621A5.6,5.6,0,0,1-33.64,9.247a5.6,5.6,0,0,1-1.094-2.7,50.018,50.018,0,0,1-.175-5.113V-2.615q0-3.564.168-5.047a5.661,5.661,0,0,1,1.05-2.71,5.657,5.657,0,0,1,2.385-1.884,8.669,8.669,0,0,1,3.5-.657,8.882,8.882,0,0,1,3.406.621,5.6,5.6,0,0,1,2.428,1.863,5.6,5.6,0,0,1,1.094,2.7A50.016,50.016,0,0,1-20.7-2.615Zm-6.14-7.772a7.34,7.34,0,0,0-.182-2.111.726.726,0,0,0-.751-.46.838.838,0,0,0-.737.373,5.287,5.287,0,0,0-.255,2.2V4.7A10.876,10.876,0,0,0-28.6,7.245a.731.731,0,0,0,.78.482.755.755,0,0,0,.8-.555,11.719,11.719,0,0,0,.175-2.644Zm14.4-6.077h4.594a28.534,28.534,0,0,1,6.016.409A4.611,4.611,0,0,1,.555-10.664,4.258,4.258,0,0,1,1.576-8.583a31.507,31.507,0,0,1,.2,4.507V4.207a19.269,19.269,0,0,1-.3,4.258,3.2,3.2,0,0,1-1.043,1.68,4.334,4.334,0,0,1-1.838.847,16.583,16.583,0,0,1-3.3.241H-12.44ZM-6.3-8.371V7.187q1.327,0,1.634-.533a7.819,7.819,0,0,0,.306-2.9V-5.435a12.355,12.355,0,0,0-.1-2.06.977.977,0,0,0-.467-.665A3.026,3.026,0,0,0-6.3-8.371ZM24-12.417V3.389a27.473,27.473,0,0,1-.175,3.776A5.129,5.129,0,0,1,22.792,9.4a5.375,5.375,0,0,1-2.268,1.738,8.523,8.523,0,0,1-3.318.592,9.321,9.321,0,0,1-3.734-.7A5.62,5.62,0,0,1,11.051,9.2,5.062,5.062,0,0,1,10.1,6.829Q9.957,5.58,9.957,1.577V-12.417H16.1V5.317A7.006,7.006,0,0,0,16.265,7.3a.657.657,0,0,0,.678.431.71.71,0,0,0,.751-.475,8.854,8.854,0,0,0,.168-2.242V-12.417ZM46.69-2.119H40.55V-6.229a7.374,7.374,0,0,0-.2-2.238.845.845,0,0,0-.868-.445.907.907,0,0,0-.963.541,8.237,8.237,0,0,0-.2,2.337V4.952a7.678,7.678,0,0,0,.2,2.25.873.873,0,0,0,.919.526.863.863,0,0,0,.9-.527,8.614,8.614,0,0,0,.211-2.475V1.753h6.14v.922a18.21,18.21,0,0,1-.518,5.208,5.319,5.319,0,0,1-2.29,2.692,7.83,7.83,0,0,1-4.368,1.156,9.037,9.037,0,0,1-4.448-.979,4.757,4.757,0,0,1-2.319-2.71,17.811,17.811,0,0,1-.569-5.208v-6.91a30.773,30.773,0,0,1,.175-3.835A5.372,5.372,0,0,1,33.4-10.372,5.816,5.816,0,0,1,35.8-12.235a8.681,8.681,0,0,1,3.537-.679,8.644,8.644,0,0,1,4.478,1.05,5.036,5.036,0,0,1,2.319,2.619,15.768,15.768,0,0,1,.554,4.88Zm20.544-10.3v4.733H63.588V11.233h-6.14V-7.684H53.817v-4.733ZM-51.335,47.1h-5.7V45.344a3.444,3.444,0,0,0-.219-1.563.8.8,0,0,0-.729-.336.928.928,0,0,0-.839.453,2.632,2.632,0,0,0-.284,1.374,3.9,3.9,0,0,0,.32,1.783A4.64,4.64,0,0,0-57.054,48.5q4.1,2.437,5.165,4a9.182,9.182,0,0,1,1.065,5.04,8.854,8.854,0,0,1-.591,3.725A4.63,4.63,0,0,1-53.7,63.275a9.016,9.016,0,0,1-3.938.811,8.793,8.793,0,0,1-4.208-.935,4.582,4.582,0,0,1-2.283-2.381,12.225,12.225,0,0,1-.54-4.1V55.116h5.7v2.878a3.794,3.794,0,0,0,.241,1.709.93.93,0,0,0,.853.38,1,1,0,0,0,.912-.482,2.754,2.754,0,0,0,.3-1.432,4.441,4.441,0,0,0-.569-2.732A18.135,18.135,0,0,0-60.1,53.29a28.267,28.267,0,0,1-3.034-2.206,5.161,5.161,0,0,1-1.232-1.9,8.369,8.369,0,0,1-.489-3.1,8.6,8.6,0,0,1,.693-3.973,4.665,4.665,0,0,1,2.239-1.965,8.918,8.918,0,0,1,3.734-.708,9.714,9.714,0,0,1,4.076.774,4.27,4.27,0,0,1,2.231,1.95,10.34,10.34,0,0,1,.547,4Zm8.41-7.158h10.239v4.733h-4.1v4.485h3.836v4.5h-3.836v5.2h4.507v4.733H-42.925Zm18.386,0h4.346a33.177,33.177,0,0,1,5.885.336A4.051,4.051,0,0,1-11.8,41.991a7.8,7.8,0,0,1,.97,4.4,6.892,6.892,0,0,1-.685,3.71,3.6,3.6,0,0,1-2.7,1.139,4.611,4.611,0,0,1,2.45,1.212,3.623,3.623,0,0,1,.78,1.4,22.068,22.068,0,0,1,.153,3.5v6.238h-5.7V55.73a5.429,5.429,0,0,0-.3-2.352q-.3-.453-1.568-.453V63.589h-6.14Zm6.14,4.046v5.259a2.7,2.7,0,0,0,1.451-.285q.416-.285.416-1.848v-1.3a1.974,1.974,0,0,0-.4-1.475A2.279,2.279,0,0,0-18.4,43.985Zm30.52-4.046L9,63.589H-.331L-3.878,39.939H2.6q1.129,9.772,1.612,16.537.476-6.836,1.01-12.139l.426-4.4Zm13.15,0V63.589h-6.14V39.939Zm22.776,10.3h-6.14V46.127a7.374,7.374,0,0,0-.2-2.238.845.845,0,0,0-.868-.445.907.907,0,0,0-.963.541,8.237,8.237,0,0,0-.2,2.337V57.308a7.678,7.678,0,0,0,.2,2.25.873.873,0,0,0,.919.526.863.863,0,0,0,.9-.527,8.614,8.614,0,0,0,.211-2.475V54.109h6.14v.922a18.21,18.21,0,0,1-.518,5.208,5.319,5.319,0,0,1-2.29,2.692,7.83,7.83,0,0,1-4.368,1.156,9.037,9.037,0,0,1-4.448-.979A4.757,4.757,0,0,1,34.1,60.4a17.811,17.811,0,0,1-.569-5.208V48.28a30.773,30.773,0,0,1,.175-3.835,5.372,5.372,0,0,1,1.043-2.461,5.816,5.816,0,0,1,2.407-1.863,8.682,8.682,0,0,1,3.537-.679,8.644,8.644,0,0,1,4.478,1.05,5.036,5.036,0,0,1,2.319,2.619,15.768,15.768,0,0,1,.554,4.88Zm8.176-10.3H66.462v4.733h-4.1v4.485H66.2v4.5H62.363v5.2H66.87v4.733H56.223Z" transform="translate(77.763 12.914)" fill="#EEEEEE"/>
</svg>
