<svg xmlns="http://www.w3.org/2000/svg" viewBox="0 0 799.997 699.997" width="40" height="40" style="border-color: rgba(187,187,187,1);border-width: 0px;border-style: solid" filter="none">
    
    <g>
    
  <defs fill="rgba(255,255,255,1)">
    <linearGradient id="linear-gradient" y1="0.488" x2="1" y2="0.487" gradientUnits="objectBoundingBox" fill="rgba(255,255,255,1)">
      <stop offset="0" stop-color="#ff5000" fill="rgba(255,255,255,1)"></stop>
      <stop offset="1" stop-color="#ff5000" stop-opacity="0.8" fill="rgba(255,255,255,1)"></stop>
    </linearGradient>
  </defs>
  <path id="联合_15" data-name="联合 15" d="M78.571,700C35.714,700,0,664.284,0,621.427V78.571C0,35.714,35.714,0,78.571,0H721.425C764.282,0,800,35.714,800,78.571V621.426C800,664.283,764.282,700,721.425,700H78.571ZM42.856,78.571V621.426A35.368,35.368,0,0,0,78.571,657.14H721.425a35.368,35.368,0,0,0,35.715-35.714V78.571a35.368,35.368,0,0,0-35.715-35.714H78.571A35.369,35.369,0,0,0,42.856,78.571ZM330.035,530.355a37.745,37.745,0,0,1-37.744-37.744v-132.1H424.4a37.744,37.744,0,0,1,37.744,37.744v94.361A37.744,37.744,0,0,1,424.4,530.355Zm0-37.744H424.4V398.25h-94.36ZM141.314,530.354a37.744,37.744,0,0,1-37.744-37.743V398.25a37.744,37.744,0,0,1,37.744-37.744h132.1v132.1a37.744,37.744,0,0,1-37.744,37.743Zm0-37.743h94.361V398.25H141.314Zm450.112-55.47a20.714,20.714,0,0,1,0-30l55.714-55.715-55.714-55.714a21.213,21.213,0,1,1,30-30l71.428,71.428a20.715,20.715,0,0,1,0,30l-71.428,71.428c-2.857,2.857-8.572,4.286-14.286,4.286S595.712,441.427,591.426,437.141ZM292.291,341.634v-132.1a37.744,37.744,0,0,1,37.744-37.744H424.4a37.744,37.744,0,0,1,37.743,37.744v94.36A37.744,37.744,0,0,1,424.4,341.634Zm37.744-37.744H424.4v-94.36h-94.36ZM141.314,341.634a37.744,37.744,0,0,1-37.744-37.744v-94.36a37.744,37.744,0,0,1,37.744-37.744h94.361a37.744,37.744,0,0,1,37.744,37.744v132.1Zm0-37.744h94.361v-94.36H141.314Z" transform="translate(0.001)" fill="rgba(255,255,255,1)" stroke="none"></path>

    </g>
  </svg>