<svg xmlns="http://www.w3.org/2000/svg" viewBox="0 0 896.001 896" width="16" height="16" style="" filter="none">
    
    <g>
    
  <path id="路径_11103" data-name="路径 11103" d="M746.667,512c129.6,0,234.667,105.063,234.667,234.667S876.27,981.333,746.667,981.333,512,876.27,512,746.667,617.064,512,746.667,512ZM512,85.333A234.5,234.5,0,0,1,720.213,427.818a319.915,319.915,0,0,0-230.443,509.7c-33.195.256-73.088,1.024-114.688,1.152H352.9l-10.795-.085-21.717-.213c-119.252-1.877-235.05-12.715-235.05-57.813,0-128.469,129.28-237.269,306.3-271.829q22.784-11.392,22.784-39.509,0-28.416-31.659-53.973a233.941,233.941,0,0,1-105.43-195.584C277.427,190.15,382.491,85.239,512,85.333ZM817.664,651.264l-3.712,3.84L712.064,772.011l-30.336-32.085-3.84-3.755A42.667,42.667,0,0,0,615.3,793.217l3.371,4.181,63.147,68.053,3.883,3.8a42.667,42.667,0,0,0,56.448-1.067l3.8-3.925L879.146,710.23l3.2-4.352a42.667,42.667,0,0,0-64.683-54.613Z" transform="translate(-85.333 -85.333)" fill="rgba(0,230.01000000000002,118.06500000000001,1)"></path>

    </g>
  </svg>