<svg xmlns="http://www.w3.org/2000/svg" viewBox="0 0 791.4 799.9" width="40" height="40" style="" filter="none">
    
    <g>
    
  <g id="组_545" data-name="组 545" transform="translate(-122 -120.3)" fill="rgba(255,80.07000000000001,0,1)">
    <path id="路径_11106" data-name="路径 11106" d="M882.7,603l-294,123.4a183.362,183.362,0,0,1-142.1,0L152.6,603A22.077,22.077,0,0,0,122,623.3V898.1a22.107,22.107,0,0,0,22.1,22.1H891.3a22.107,22.107,0,0,0,22.1-22.1V623.4A22.167,22.167,0,0,0,882.7,603Z" fill="rgba(255,80.07000000000001,0,1)" stroke="none"></path>
    <path id="路径_11107" data-name="路径 11107" d="M588.7,676.9l230.4-96.7V152.1a31.752,31.752,0,0,0-31.8-31.8H247.9a31.752,31.752,0,0,0-31.8,31.8V580.2l230.4,96.7A183.61,183.61,0,0,0,588.7,676.9ZM465.6,257.2a10.136,10.136,0,0,1,10.1-10.1H670.6a10.136,10.136,0,0,1,10.1,10.1v24.4a10.136,10.136,0,0,1-10.1,10.1H475.7a10.136,10.136,0,0,1-10.1-10.1Zm-80.8-18a30.2,30.2,0,1,1-30.2,30.2,30.173,30.173,0,0,1,30.2-30.2ZM354.6,370.1A12.462,12.462,0,0,1,367,357.7H668.3a12.462,12.462,0,0,1,12.4,12.4v19.8a12.462,12.462,0,0,1-12.4,12.4H367a12.462,12.462,0,0,1-12.4-12.4V370.1Zm0,135.4V485.7A12.462,12.462,0,0,1,367,473.3H668.3a12.462,12.462,0,0,1,12.4,12.4v19.8a12.462,12.462,0,0,1-12.4,12.4H367a12.462,12.462,0,0,1-12.4-12.4Z" fill="rgba(255,80.07000000000001,0,1)" stroke="none"></path>
  </g>

    </g>
  </svg>