<svg xmlns="http://www.w3.org/2000/svg" viewBox="0 0 855.333 699.193" width="40" height="40" style="" filter="none">
    
    <g>
    
  <path id="路径_11112" data-name="路径 11112" d="M815.439,283.78c0-44.447-42.738-44.447-42.738-44.447H251.3s-42.738,0-42.738,44.447v44.447H817.149V283.78ZM685.516,153.856H338.484s-42.738,0-42.738,44.447H729.963C728.254,153.856,685.516,153.856,685.516,153.856ZM902.625,328.227l-25.643-25.643v70.09H147.018v-70.09l-25.643,25.643c-25.643,25.643-44.447,32.481-34.19,87.185s59.833,352.16,66.671,393.189c8.548,44.447,52.995,44.447,52.995,44.447H815.439s44.447,0,52.995-44.447c6.838-41.028,56.414-338.484,68.381-393.189,10.257-54.7-8.548-61.543-34.19-87.185Zm-217.109,234.2s0,44.447-42.738,44.447H381.222c-42.738,0-42.738-44.447-42.738-44.447V475.246h61.543v70.09H625.683v-70.09h61.543l-1.71,87.185Zm0,0" transform="translate(-84.333 -153.856)" fill="rgba(255,164.985,0,1)"></path>

    </g>
  </svg>