<svg xmlns="http://www.w3.org/2000/svg" viewBox="0 0 1023.645 719.8" width="40" height="40" style="" filter="none">
    
    <g>
    
  <g id="组_546" data-name="组 546" transform="translate(-0.28 -174.2)" fill="rgba(255,80.07000000000001,0,1)">
    <path id="路径_11108" data-name="路径 11108" d="M905,625.7c-1.3,34.5-18.7,65.9-51.7,93.5-26.2,22-58.2,38.6-86.4,53.3-13.1,6.8-25.5,13.3-35.2,19.2C706.9,807,567.3,884,501.4,884H492a138.127,138.127,0,0,1-22.2-1.9c6.3-15.7,16.1-41.4,20.7-60.2a12.858,12.858,0,0,0,.4-1.9c4.4-18.5,6.2-35.7,5.5-51a113.354,113.354,0,0,0-1.6-14.9,104.956,104.956,0,0,0-10.1-31.2A94.686,94.686,0,0,0,466.2,698a129.167,129.167,0,0,0-35-23.8c-5.5-32.6-23.9-59.4-52.8-75.6-3.2-1.8-6.5-3.5-9.7-4.9-5.5-46.8-27.9-70.9-47-83.2a97.614,97.614,0,0,0-65.1-14.9c-2.6-3.5-5.4-6.8-8.3-10a96.424,96.424,0,0,0-70.5-30.3c-31.6,0-63.1,12.2-91.5,35.4-.6.5-1.3,1.1-1.9,1.6-13.1,11-33,31.4-44.1,43.2L25.2,517.3a99.27,99.27,0,0,1-1.6-129.7L164,209.4l.4-.5a99.2,99.2,0,0,1,75.3-34.7,97.376,97.376,0,0,1,39.8,8.4c9.7,4.3,17.1,7.7,23.7,10.6,17.9,8.2,26.9,12.3,53.4,20.9,6.8,2.2,13.1,4,19,5.4a123.542,123.542,0,0,1-18.1,10.8c-5.6,2.6-12.5,4.9-19.8,7.4-13.8,4.7-30.6,10.4-45.6,20.8a87.583,87.583,0,0,0-29.3,33.4c-7.9,15.7-11.1,35.2-9.1,54.9a113.967,113.967,0,0,0,23.6,58.8c12.7,16.3,36.5,37.4,78,46,31.3,6.5,67.5,5,110.7-4.6,75.5-16.8,107.4-11.3,115.2-9.3L824.8,627a64.546,64.546,0,0,0,14,8.3,64,64,0,0,0,66.2-9.6Z" fill="rgba(255,80.07000000000001,0,1)" stroke="none"></path>
    <path id="路径_11109" data-name="路径 11109" d="M459.6,812.4c-.1.5-.2.9-.3,1.4a294.571,294.571,0,0,1-16.6,48.4,32.059,32.059,0,0,1-7.1,9.8c-3.7,2.4-7.4,4.7-11.1,6.8C410,887.5,395,894,380,894c-35.8,0-64.2-14.5-84.4-43.2-22.3-2.3-40.5-9-55.4-20.5-13.5-10.4-22.8-23.5-30-35.7-48.2-3.4-63.1-21.3-78.6-45.9-3.1-4.9-6.3-10-10.4-15.3-2-1.2-6-3.2-8.9-4.7C101.2,723.1,86,715.5,73,702.9c-17.3-16.8-26.1-37.6-26.1-62v-9.4c0-14.1,3.9-27.9,9.2-40.5a220.1,220.1,0,0,1,11.3-22.8l-.7-.8c11.3-14,26.9-31.8,44.2-47C132,501.8,155.7,487,177.5,487c28.2,0,50.7,16.2,63.1,45,22.6-8.7,44.7-7,63.6,5.1,21.9,14.1,33.2,40.1,33.6,77.3v2.3a86.823,86.823,0,0,1,24.8,9.4c25.4,14.3,38.9,39.4,38.2,71A93.818,93.818,0,0,1,444,720.8c20.3,19.1,25.5,50,15.6,91.6ZM994.9,535.5c-15.6,15.1-39.5,37-62.1,55.3-.1.1-.2.2-.3.2a83.415,83.415,0,0,1-103.8.6L597.4,409.1a.781.781,0,0,1-.4-.4c-3.7-1.9-36.6-16.2-138,6.3-38.1,8.5-70.8,10-97.3,4.5-31.9-6.6-49.8-22.3-59.2-34.3-20.4-26.1-21-59.8-11.1-79.6,8.7-17.3,24.5-26.2,40.9-32.6,5.2-2,10.5-3.8,15.7-5.6,7.7-2.6,15.7-5.3,22.8-8.5,13.3-6.1,35.7-26.3,49.4-39.3,7.3-2.4,14.2-6.1,22.7-10.8l.6-.3c23-12.6,51.7-28.3,105.2-28.3h16.8c35.1,0,68.7,25,101.1,49.3,12.7,9.5,26.6,19.8,37.5,26l25.3-18.1.9-.6a96.686,96.686,0,0,1,50.6-14.4c30.4,0,59.7,14.1,80.2,38.7,12.5,15,33.5,34.4,55.6,55,38.3,35.6,77.9,72.4,95.7,105.2a95.766,95.766,0,0,1-17.5,114.2Z" fill="rgba(255,80.07000000000001,0,1)" stroke="none"></path>
  </g>

    </g>
  </svg>