<svg xmlns="http://www.w3.org/2000/svg" viewBox="0 0 1024.01 1024" width="40" height="40" style="" filter="none">
    
    <g>
    
  <path id="路径_11110" data-name="路径 11110" d="M999.97,353.826a113.323,113.323,0,0,0-90.18-42.189H686.285c31.4-93.525,7.3-201.728,5.939-207.735a43.623,43.623,0,0,0-6.69-14.814A130.048,130.048,0,0,0,563.473,0c-68.881.2-125.611,55.569-129.3,126.225h-.683v29.628A156.74,156.74,0,0,1,382.02,271.906a148.989,148.989,0,0,1-78.643,37.478V1024h520.4c43.827,0,85.333-34.748,94.618-79.053L1021.2,452.13c7.509-35.84-.2-71.612-21.163-98.3Zm-913-42.189C38.912,311.637,0,351.71,0,401.067V934.639C0,983.859,38.776,1024,86.494,1024H216.747V311.637Z" fill="rgba(255,164.985,0,1)" stroke="none"></path>

    </g>
  </svg>