<svg xmlns="http://www.w3.org/2000/svg" viewBox="0 0 857.986 842.944" width="40" height="40" style="" filter="none">
    
    <g>
    
  <path id="路径_11111" data-name="路径 11111" d="M188.992,168.96H836.224c22.272,0,40.448-16.576,40.448-36.864S858.5,95.168,836.224,95.168H188.992c-22.272,0-40.512,16.512-40.512,36.8,0,20.224,18.24,36.928,40.512,36.928Zm245.12,335.232h0ZM899.9,242.816H122.88a40.96,40.96,0,0,0-40.512,41.152V896.9a40.96,40.96,0,0,0,40.448,41.216h776.96A40.96,40.96,0,0,0,940.352,896.9V283.9a40.768,40.768,0,0,0-40.512-41.088ZM644.672,627.968c22.336,0,40.512,16.512,40.512,36.8,0,20.224-18.176,36.8-40.512,36.8h-96.96V790.72c0,22.592-16.384,41.152-36.288,41.152s-36.352-18.56-36.352-41.152V701.76H378.3c-22.272,0-40.512-16.448-40.512-36.736,0-20.224,18.24-36.8,40.512-36.8h96.768V575.168H378.3c-22.272,0-40.512-16.448-40.512-36.8,0-20.16,18.24-36.8,40.512-36.8H432L412.16,463.1l-23.488-45.5c-10.24-20.1-4.352-44.032,13.312-53.5,17.728-9.408,40.7-.64,50.944,19.2l18.88,36.608c.32.512.64,1.216,1.024,1.728L492.224,459.2h.192l19.712,38.08,19.648-38.08h.256l19.392-37.568a7.22,7.22,0,0,1,.96-1.728L571.328,383.3c10.24-20.1,33.152-28.672,50.88-19.2,17.664,9.408,23.616,33.408,13.312,53.5L612.1,463.04l-19.84,38.592H644.8c22.272,0,40.512,16.448,40.512,36.736,0,20.224-18.24,36.8-40.512,36.8H547.584v52.8Z" transform="translate(-82.367 -95.168)" fill="rgba(255,164.985,0,1)"></path>

    </g>
  </svg>