<svg xmlns="http://www.w3.org/2000/svg" viewBox="0 0 97.2 68.7" width="30" height="30" style="" filter="none">
    
    <g>
    
  <g id="logo-icon_3_" data-name="logo-icon (3)" transform="translate(-1.05 -15.35)" fill="rgba(0,102,177.98999999999998,1)">
    <path id="路径_10878" data-name="路径 10878" d="M66.5,58.8,88.1,42.5a.483.483,0,0,0,0-.7l-1.8-1.3a2.25,2.25,0,0,0-2.7,0l-6.8,5.1a10.952,10.952,0,0,1-13.3,0L41.3,28.8a10.952,10.952,0,0,0-13.3,0l-7.3,5.5L53.1,58.8A11.1,11.1,0,0,0,66.5,58.8Z" fill="rgba(0,102,177.98999999999998,1)" stroke="none"></path>
    <path id="路径_10879" data-name="路径 10879" d="M98.1,49.4l-3.8-2.9a2.25,2.25,0,0,0-2.7,0l-25.1,19a10.952,10.952,0,0,1-13.3,0L23,42.6a10.952,10.952,0,0,0-13.3,0L1.5,48.8a1.124,1.124,0,0,0,0,1.8L42.8,81.8a10.952,10.952,0,0,0,13.3,0l42-31.7C98.3,49.9,98.3,49.5,98.1,49.4Z" fill="rgba(0,102,177.98999999999998,1)" stroke="none"></path>
    <path id="路径_10880" data-name="路径 10880" d="M76.8,39l3.3-2.5a.483.483,0,0,0,0-.7l-24-18.2a10.952,10.952,0,0,0-13.3,0L39,20.5,63.5,39A10.952,10.952,0,0,0,76.8,39Z" fill="rgba(0,102,177.98999999999998,1)" stroke="none"></path>
  </g>

    </g>
  </svg>