<svg xmlns="http://www.w3.org/2000/svg" viewBox="0 0 2922.051 872.752" width="160" height="160" style="" filter="none">
    
    <g>
    
  <g id="组_504" data-name="组 504" transform="translate(4940 2736)" fill="rgba(255,255,255,1)">
    <g id="图层_1" data-name="图层 1" transform="translate(-4940 -2710.874)" fill="rgba(255,255,255,1)">
      <path id="路径_1" data-name="路径 1" d="M295.109,44.93a56.119,56.119,0,0,0-79.924,1.2l-2.787,3.2L12,278.71a525.476,525.476,0,0,0,90.11,36.776L105.5,316.5a51.722,51.722,0,0,0,12.588,1.61,50.937,50.937,0,0,0,36.034-15,44.956,44.956,0,0,0,4.2-4.807l97.292-111.746,98.494,113.14,1.61,2a51.538,51.538,0,0,0,37.572,16.393,52.338,52.338,0,0,0,11.387-1.2l6.2-2a505.317,505.317,0,0,0,88.212-36.175L299.289,50.362Z" transform="translate(227.885 529.521)" fill="rgba(255,255,255,1)" stroke="none"></path>
      <path id="路径_2" data-name="路径 2" d="M483.239.87C216.436.87,0,194.3,0,433.13A411.005,411.005,0,0,0,146.582,743.267l1.8,1.6a32.443,32.443,0,0,0,44.767-4.383h0L416.2,457.632l1.994-2.4a47.3,47.3,0,0,0,10.6-29.675l14.995-192.419h0a4.391,4.391,0,0,0-4.59-4.383h0c-17.59,2.778-79.947,10.945-79.947,11.161a25.351,25.351,0,0,0-23.381,19.927,9.723,9.723,0,0,0,0,2.4l-12.4,126.483L211.054,528.143l-1.2,1.389h0a32.047,32.047,0,0,1-49.958-5.173,287.962,287.962,0,0,1-49.982-161.116c0-178.288,167.079-322.9,373.327-322.9s373.327,144.59,373.327,322.9a288.365,288.365,0,0,1-49.357,160.469h0a32.239,32.239,0,0,1-49.765,5.772v-1.2h0L644.935,388.846,631.142,262.363a19.846,19.846,0,0,0,0-3.377,25.758,25.758,0,0,0-23.189-19.927S545.6,230.7,528.006,227.9h-1.754a4.578,4.578,0,0,0-3.6,4.383h0l14.995,190.838v4.79a48.506,48.506,0,0,0,10.6,26.681l1.61,1.6,222.78,284.27,1.394,1.6a32.011,32.011,0,0,0,43.758,3.186l1.2-1.2A410,410,0,0,0,966,433.705C966.478,194.3,750.041.87,483.239.87Z" transform="translate(0 1.756)" fill="rgba(255,255,255,1)" stroke="none"></path>
    </g>
    <path id="联合_11" data-name="联合 11" d="M0,91.5A91.5,91.5,0,1,1,91.5,183,91.5,91.5,0,0,1,0,91.5ZM91.5,163a71.088,71.088,0,0,0,29.775-6.5l-23.9-44.021H81V157H62.833A71.106,71.106,0,0,0,91.5,163ZM20,91.5a71.559,71.559,0,0,0,37.469,62.869V39.34H98.491c24.646,0,44.2,8.586,44.2,35.616,0,17.649-8.9,28.62-22.419,33.867l19.957,34.953A71.486,71.486,0,1,0,20,91.5Zm61,2.377H96.265c15.1,0,23.373-6.36,23.373-18.922,0-12.72-8.268-17.013-23.373-17.013H81Z" transform="translate(-4053 -2736)" fill="rgba(255,255,255,1)" stroke="none"></path>
    <path id="联合_12" data-name="联合 12" d="M1488.589,680.039c-11.475-11.973-17.293-29.743-17.293-52.819v-119.3h33.086V628.051c0,12.913,2.89,22.494,8.589,28.475,5.6,5.872,14.625,8.85,26.838,8.85,12.3,0,21.394-2.983,27.031-8.865,5.729-5.98,8.634-15.555,8.634-28.46V507.924h33.086v119.3c0,23.081-5.842,40.856-17.364,52.83-11.6,12.06-28.894,18.175-51.386,18.175C1517.388,698.224,1500.156,692.105,1488.589,680.039Zm-139.668,9.712a57.481,57.481,0,0,1-23.932-25.138c-5.285-10.569-7.964-23.35-7.964-37.986V577.742c0-14.72,2.682-27.525,7.97-38.057a57.551,57.551,0,0,1,23.926-25.067c10.174-5.622,22.533-8.473,36.736-8.473s26.562,2.85,36.736,8.473a57.554,57.554,0,0,1,23.925,25.067c5.288,10.532,7.97,23.337,7.97,38.057v48.885c0,14.638-2.679,27.418-7.964,37.986a57.483,57.483,0,0,1-23.931,25.138c-10.174,5.622-22.534,8.473-36.736,8.473S1359.094,695.373,1348.921,689.751Zm10.446-141.987c-6.142,6.622-9.256,16.429-9.256,29.146v50.547c0,12.719,3.114,22.525,9.256,29.146,6.067,6.541,14.667,9.721,26.29,9.721s20.222-3.18,26.289-9.721c6.142-6.621,9.256-16.429,9.256-29.146V576.911c0-12.718-3.115-22.524-9.256-29.146-6.067-6.542-14.666-9.722-26.289-9.722S1365.434,541.223,1359.367,547.764Zm-321.091,142.93a51.9,51.9,0,0,1-23.964-23.827c-5.048-10.1-7.608-22.677-7.608-37.393v-50.9c0-15.511,2.51-28.73,7.46-39.288a53.29,53.29,0,0,1,23.6-25.087c10.065-5.344,22.624-8.053,37.33-8.053,12.288,0,23.134,2.172,32.239,6.456a56.83,56.83,0,0,1,23.022,19.765c5.734,8.424,9.864,19.029,12.277,31.52l1.837,9.517h-34.418l-1.536-6.023c-2.578-10.112-6.7-17.66-12.241-22.434-5.392-4.643-12.32-6.9-21.18-6.9-12.2,0-20.881,3.084-26.541,9.428-5.818,6.521-8.767,16.985-8.767,31.1v50.9c0,12.785,2.92,22.234,8.678,28.086,5.723,5.815,14.922,8.764,27.342,8.764,11.909,0,20.373-2.946,25.877-9.006,5.629-6.2,8.483-16.724,8.483-31.285v-1.849H1068.4v-31.9h75.8v33.392c0,15.508-2.507,28.742-7.455,39.336a53.237,53.237,0,0,1-23.609,25.157c-10.064,5.344-22.623,8.054-37.33,8.054C1061.03,698.224,1048.4,695.691,1038.276,690.694Zm-223.738-.943a57.479,57.479,0,0,1-23.931-25.138c-5.285-10.568-7.964-23.349-7.964-37.986V577.742c0-14.72,2.681-27.526,7.97-38.057a57.556,57.556,0,0,1,23.926-25.067c10.174-5.622,22.534-8.473,36.736-8.473s26.563,2.85,36.736,8.473a57.561,57.561,0,0,1,23.926,25.067c5.288,10.532,7.969,23.337,7.969,38.057v48.885c0,14.638-2.679,27.418-7.964,37.986a57.478,57.478,0,0,1-23.931,25.138c-10.174,5.622-22.534,8.473-36.736,8.473S824.711,695.373,814.538,689.751Zm10.447-141.986c-6.143,6.621-9.257,16.428-9.257,29.146v50.547c0,12.718,3.114,22.525,9.257,29.146,6.067,6.541,14.666,9.721,26.289,9.721s20.222-3.18,26.289-9.721c6.142-6.621,9.256-16.428,9.256-29.146V576.911c0-12.718-3.114-22.524-9.256-29.146-6.068-6.542-14.667-9.722-26.29-9.722S831.052,541.223,824.985,547.765ZM198.278,680.039C186.8,668.066,180.985,650.3,180.985,627.22v-119.3H214.07V628.051c0,12.913,2.89,22.494,8.589,28.475,5.6,5.872,14.625,8.85,26.838,8.85,12.3,0,21.394-2.983,27.031-8.865,5.728-5.98,8.633-15.555,8.633-28.46V507.924h33.087v119.3c0,23.082-5.842,40.856-17.364,52.83-11.6,12.06-28.894,18.175-51.386,18.175C227.076,698.224,209.844,692.105,198.278,680.039ZM1631.5,696.444V507.924h74.8c11.792,0,22.3,2.565,31.233,7.624a54.249,54.249,0,0,1,21.176,21.584c4.938,9.06,7.442,19.73,7.442,31.711,0,11.909-2.507,22.523-7.45,31.549a54.352,54.352,0,0,1-21.168,21.509c-8.933,5.059-19.442,7.624-31.233,7.624h-41.715v66.919Zm33.086-98.819h42.546c7.933,0,14.06-2.471,18.727-7.556,4.85-5.282,7.207-12.226,7.207-21.227,0-9.161-2.357-16.182-7.207-21.465-4.667-5.083-10.794-7.555-18.727-7.555h-42.546ZM1274.4,696.444l-36.817-72.971h-38.536v72.971h-33.086V507.805h76.462c11.369,0,21.533,2.432,30.21,7.228a52.13,52.13,0,0,1,20.616,20.483c4.808,8.608,7.245,18.742,7.245,30.123,0,11.308-2.46,21.426-7.311,30.076a52.541,52.541,0,0,1-20.594,20.522q-.718.4-1.453.778l41.853,79.43Zm-75.353-104.871h44.326c7.5,0,13.239-2.225,17.553-6.8,4.46-4.73,6.657-11.009,6.721-19.2,0-8.1-2.16-14.359-6.6-19.07-4.315-4.577-10.094-6.8-17.672-6.8h-44.326ZM751.987,696.444,737.1,654.56H668.292L653.41,696.444H494.746V507.924h33.086V664.545h93.736v20.329L686.8,507.924h31.8l69.5,188.52Zm-72.359-73.784h46.141L702.7,557.734ZM451.04,696.444,436.156,654.56H367.345l-14.883,41.884H316.355l69.5-188.52h31.8l69.5,188.52ZM378.68,622.661h46.141l-23.071-64.927Zm-256.1,73.784v-77H50.544v77H17.458V507.924H50.544v79.023h72.041V507.924H155.67v188.52ZM476.133,345.856l10.174-3c50.124-14.757,85.252-33.594,104.41-55.986a136.978,136.978,0,0,0,20.1-40.52H507.031V206.065H482.146v-87.89h84.53V84.4H475.431V41.15h91.245V6.39h45.23V41.15H699V5.995h45.229V41.15h90.06V84.4h-90.06v33.77h83.74v87.5H795.659l-.079,7.489c-1.088,103.415-12.143,128.786-20.362,138.874C761.864,368.652,739.033,377.1,707.4,377.1c-5.718,0-18.9-.52-40.295-1.59l-5.769-.289-11.6-41.9,51.735,2.511c20.784-.689,34.749-5.486,39.743-13.876,3.218-6.014,7.574-24.371,9.636-75.6H656.092c-6.755,27.577-17.829,50.887-32.963,69.356C599.2,343.766,559.773,366,505.84,381.908l-5.791,1.708Zm186.728-179.1v26.96l-.687,11.355H783.926V161.429H526.191v43.646h92.054l.994-12.02-.028-26.3Zm-50.954-48.585H699V84.4H611.906Zm1105.8,263.665V364.064H1469.057v17.775h-43.651V20.61h335.95V381.839Zm-248.649-59.845h248.649V62.68H1469.057Zm-365.971,59.845v-91c-27.055,31.23-72.536,58.592-135.419,81.436l-6.139,2.23-23.815-38.856,9.862-3.031c46.9-14.414,82.445-30.228,106.073-47.158H945.876V243.785h157.21V228.579h-118.5V130.238q-8.987,9.288-19.763,19.2l-6.585,6.058-25.765-35.192,5.4-4.836A291.053,291.053,0,0,0,1014.4,7.043L1017.02.574,1059,11.227l-3.26,8.421c-2.182,5.637-5,12.308-8.417,19.922h60.192c-4.274-8.753-8.161-16.087-11.6-21.885l-6-10.1L1136.677,0l2.575,5.435c4.281,9.04,9.029,20.5,14.136,34.134h130.019v39.7H1157.8V90.13h111v38.12h-111v10.069h111v38.12h-111v12.045h133.115v40.1H1147.526v15.206h154.84v41.675H1197.149c25.339,18,60.079,33,103.64,44.709l9.338,2.511-19.539,40.337-6.688-2.265c-61.483-20.824-107.293-47.8-136.373-80.286v91.374Zm-76.035-193.355h86.7V176.44h-86.7Zm0-50.165h86.7V128.25h-86.7Zm0-48.19h86.7V79.269h-86.7Zm-864.46,291.71V282.3H6.962v-43.65h155.63v-38.71h38.236c-7.978-7.178-12.166-18.072-12.166-32.29V148.793c-12.828,5.143-28.706,11.076-47.389,17.707l-5.874,2.084L110.272,130.9l10.065-3.25c23.23-7.5,46.189-16.13,68.324-25.674V8.76h43.256V81.579c33.9-17.609,62.837-37.251,86.152-58.488l5.7-5.194L354.549,49.3l-6.57,5.559c-33.436,28.292-72.464,53.425-116.062,74.748V162.12c0,3,0,5.825,8.59,5.825h59.25c11,0,15.151-2.356,16.649-3.761,1.358-1.364,6.581-8.951,8.947-41.745l.734-10.176,42.678,13.808-.609,6.393c-3.449,36.211-10.137,57.262-21.048,66.247-9.536,7.63-23.316,11.3-42.215,11.3h-72.68c-9.662,0-17.831-1.781-24.39-5.231v33.865h157.21V282.3H207.821v99.54Zm1403.447-70.31-9.7-43.312,10.822.872c16.039,1.294,29.776,1.949,40.832,1.949,4.568,0,7.8-.7,7.8-9.775V180.113a350.845,350.845,0,0,1-112.381,104.249l-6.862,4.02-23.423-39.45,7.592-3.878c42.8-21.859,78.246-51.544,105.561-88.365H1483.077V115.015H1615.8V66.825h43.255v48.19h48.98V156.69h-48.98V268.375c0,27.829-14.765,43.155-41.575,43.155ZM61.471,223.84V129.1c-12.349,9.988-25.259,19.45-38.54,28.238l-8.89,5.883L0,118.045l5.051-3.3C53.209,83.233,88.732,46.854,110.634,6.615L114.207.051,152.78,17.757l-3.949,7.478a312.979,312.979,0,0,1-43.709,62.947V223.84Z" transform="translate(-3784.101 -2617.945)" fill="rgba(255,255,255,1)" stroke="none"></path>
  </g>

    </g>
  </svg>