<svg xmlns="http://www.w3.org/2000/svg" xmlns:xlink="http://www.w3.org/1999/xlink" width="94.801" height="34.2" viewBox="0 0 94.801 34.2">
  <defs>
    <linearGradient id="linear-gradient" x1="0.5" x2="0.5" y2="1" gradientUnits="objectBoundingBox">
      <stop offset="0" stop-color="#ffA500"/>
      <stop offset="1" stop-color="#ffA500" stop-opacity="0"/>
    </linearGradient>
  </defs>
  <path id="路径_11013" data-name="路径 11013" d="M-43.2-33.66a4.564,4.564,0,0,1,1.59-2.91,4.583,4.583,0,0,1,3.09-1.17H-8.46l-4.2,30.06a4.893,4.893,0,0,1-1.62,2.91A4.473,4.473,0,0,1-17.34-3.6H-47.4Zm11.22,1.56L-35.22-9.3h11.34l3.24-22.8Zm67.2,0H23.76l-.54,4.56H11.82L13.26-37.8H47.4L44.52-17.28H20.58L19.5-9.3H41.16l2.58-2.28L42.6-3.6H12.54A3.474,3.474,0,0,1,9.78-4.77,3.492,3.492,0,0,1,9-7.68l2.16-15.3H33.9Z" transform="translate(47.4 37.8)" fill="url(#linear-gradient)"/>
</svg>
