<svg xmlns="http://www.w3.org/2000/svg" xmlns:xlink="http://www.w3.org/1999/xlink" width="93.24" height="34.141" viewBox="0 0 93.24 34.141">
  <defs>
    <linearGradient id="linear-gradient" x1="0.5" x2="0.5" y2="1" gradientUnits="objectBoundingBox">
      <stop offset="0" stop-color="#ffA500"/>
      <stop offset="1" stop-color="#ffA500" stop-opacity="0"/>
    </linearGradient>
  </defs>
  <path id="路径_11011" data-name="路径 11011" d="M-42.42-33.66a4.564,4.564,0,0,1,1.59-2.91,4.583,4.583,0,0,1,3.09-1.17H-7.68l-4.2,30.06A4.893,4.893,0,0,1-13.5-4.77,4.473,4.473,0,0,1-16.56-3.6H-46.62ZM-31.2-32.1-34.44-9.3H-23.1l3.24-22.8ZM32.52-18.42H12l.78-5.7H33.3l1.14-7.98H11.64l.78-5.64h34.2L42.36-7.68a4.564,4.564,0,0,1-1.59,2.91A4.508,4.508,0,0,1,37.74-3.6H7.62l.84-5.7H31.2Z" transform="translate(46.62 37.74)" fill="url(#linear-gradient)"/>
</svg>
