<svg xmlns="http://www.w3.org/2000/svg" xmlns:xlink="http://www.w3.org/1999/xlink" width="92.939" height="34.141" viewBox="0 0 92.939 34.141">
  <defs>
    <linearGradient id="linear-gradient" x1="0.5" x2="0.5" y2="1" gradientUnits="objectBoundingBox">
      <stop offset="0" stop-color="#ff5000"/>
      <stop offset="1" stop-color="#ff5000" stop-opacity="0"/>
    </linearGradient>
  </defs>
  <path id="路径_11012" data-name="路径 11012" d="M-41.97-33.66a4.564,4.564,0,0,1,1.59-2.91,4.583,4.583,0,0,1,3.09-1.17H-7.23l-4.2,30.06a4.893,4.893,0,0,1-1.62,2.91A4.473,4.473,0,0,1-16.11-3.6H-46.17Zm11.22,1.56L-33.99-9.3h11.34l3.24-22.8Zm45.84-5.64H28.17l-6.24,21.6h8.88l2.76-19.38-1.98-2.22H45.27l-3.06,21.6h4.56l-.78,5.7H41.43L40.47-3.6H29.07l.96-6.84H9.57l.78-5.7L16.41-36.3Z" transform="translate(46.17 37.74)" fill="url(#linear-gradient)"/>
</svg>
