<svg xmlns="http://www.w3.org/2000/svg" width="450" height="414" viewBox="0 0 450 414">
  <g id="_1" data-name="1" transform="translate(12212 10624)">
    <path id="路径_10983" data-name="路径 10983" d="M593,467H431a35.977,35.977,0,0,1-36-36V341a35.977,35.977,0,0,1,36-36H593a35.977,35.977,0,0,1,36,36v90A35.977,35.977,0,0,1,593,467Zm0-36v0ZM431,341v90H592.9l.1-90Z" transform="translate(-12499 -10929)" fill="#ffa042"/>
    <path id="路径_10982" data-name="路径 10982" d="M701,719H323a35.977,35.977,0,0,1-36-36V413a35.977,35.977,0,0,1,36-36H701a35.977,35.977,0,0,1,36,36V683A35.977,35.977,0,0,1,701,719Z" transform="translate(-12499 -10929)" fill="#ffa042"/>
    <path id="路径_10980" data-name="路径 10980" d="M701,539H323a35.977,35.977,0,0,1-36-36V413a35.977,35.977,0,0,1,36-36H701a35.977,35.977,0,0,1,36,36v90A35.977,35.977,0,0,1,701,539Z" transform="translate(-12499 -10929)" fill="#ffdcc0"/>
    <path id="路径_10981" data-name="路径 10981" d="M404,503h54v72H404Zm162,0h54v72H566Z" transform="translate(-12499 -10929)" fill="#fff6f0"/>
  </g>
</svg>
