<svg xmlns="http://www.w3.org/2000/svg" width="414.047" height="414.651" viewBox="0 0 414.047 414.651">
  <g id="_2" data-name="2" transform="translate(10694.013 10624)">
    <g id="组_526" data-name="组 526">
      <path id="路径_10992" data-name="路径 10992" d="M263.2,73V192.289A89.087,89.087,0,0,0,190.289,265.2H71C78.258,162.408,160.361,80.258,263.2,73Zm29.646,414V367.711A89.087,89.087,0,0,0,365.758,294.8H485.047C477.742,397.639,395.639,479.789,292.846,487Z" transform="translate(-10765.013 -10697)" fill="#ffa042"/>
      <path id="路径_10993" data-name="路径 10993" d="M278,339.291A59.291,59.291,0,1,1,337.291,280,59.277,59.277,0,0,1,278,339.291ZM292.846,73C395.639,80.258,477.742,162.408,485,265.2H365.711A89.087,89.087,0,0,0,292.8,192.289V73ZM263.2,487C160.361,479.789,78.258,397.639,71,294.846H190.289A89.087,89.087,0,0,0,263.2,367.758Z" transform="translate(-10764.966 -10696.349)" fill="#ffdcc0"/>
      <path id="路径_10994" data-name="路径 10994" d="M278,339.291A59.291,59.291,0,1,1,337.291,280,59.277,59.277,0,0,1,278,339.291Z" transform="translate(-10764.966 -10697)" fill="#ffa042"/>
      <path id="路径_10996" data-name="路径 10996" d="M308.688,400.666a89.979,89.979,0,1,1,89.979-89.979A89.958,89.958,0,0,1,308.688,400.666Z" transform="translate(-10795.653 -10727.036)" fill="#ffa042"/>
      <path id="路径_10997" data-name="路径 10997" d="M278,339.291A59.291,59.291,0,1,1,337.291,280,59.277,59.277,0,0,1,278,339.291Z" transform="translate(-10764.966 -10696.349)" fill="#fff6f0"/>
    </g>
  </g>
</svg>
