<svg xmlns="http://www.w3.org/2000/svg" width="420.267" height="414" viewBox="0 0 420.267 414">
  <g id="_3" data-name="3" transform="translate(11692 10624)">
    <g id="组_525" data-name="组 525">
      <g id="组_522" data-name="组 522" transform="translate(-11783.856 -10717.593)">
        <path id="路径_10985" data-name="路径 10985" d="M508.991,417.143l-63.47-116.525a15.229,15.229,0,0,0-3.313-4.116,149.157,149.157,0,0,0,9.713-52.98c0-82.669-67.26-149.929-149.929-149.929s-149.929,67.26-149.929,149.929a149.158,149.158,0,0,0,9.713,52.98,14.854,14.854,0,0,0-3.313,4.116L94.992,417.143a26,26,0,0,0,.477,25.6A24.691,24.691,0,0,0,116.8,455.015h54.611l28.736,41.761a24.729,24.729,0,0,0,20.4,10.817c.351,0,.728,0,1.079-.025a24.741,24.741,0,0,0,20.529-12.7l57.522-101.517c.753,0,1.506.05,2.284.05.753,0,1.506-.05,2.284-.05l57.522,101.492a24.775,24.775,0,0,0,20.529,12.7c.376.025.728.025,1.1.025a24.657,24.657,0,0,0,20.4-10.842l28.736-41.761h54.611a24.66,24.66,0,0,0,21.332-12.247,25.89,25.89,0,0,0,.5-25.574Z" fill="#ffa042"/>
        <path id="路径_10984" data-name="路径 10984" d="M443.52,396.494a74.061,74.061,0,1,1,74.061-74.061A74.151,74.151,0,0,1,443.52,396.494Z" transform="translate(-141.529 -78.91)" fill="#ffdcc0"/>
      </g>
      <path id="路径_10987" data-name="路径 10987" d="M146.922,386.395,124.98,354.509a11.62,11.62,0,0,0-9.575-5.04H73.5L114.4,274.4a116.125,116.125,0,0,0,69.023,47.624l-36.5,64.371Zm201.972-36.925a11.621,11.621,0,0,0-9.575,5.04l-21.942,31.885L280.9,322.023A116.127,116.127,0,0,0,349.921,274.4l40.9,75.071H348.894Z" transform="translate(-11715.025 -10654.443)" fill="#fff6f0"/>
      <path id="路径_10998" data-name="路径 10998" d="M146.922,386.395,124.98,354.509a11.62,11.62,0,0,0-9.575-5.04H73.5L114.4,274.4a116.125,116.125,0,0,0,69.023,47.624l-36.5,64.371Z" transform="translate(-11714.025 -10654.443)" fill="#ffdcc0"/>
    </g>
  </g>
</svg>
