<svg xmlns="http://www.w3.org/2000/svg" width="414.65" height="414.651" viewBox="0 0 414.65 414.651">
  <g id="_4" data-name="4" transform="translate(-26.952 -26.932)">
    <path id="路径_10999" data-name="路径 10999" d="M234.278,26.931c-114.5,0-207.326,92.823-207.326,207.326s92.823,207.326,207.326,207.326S441.6,348.76,441.6,234.257,348.78,26.931,234.278,26.931Z" fill="#ffa042"/>
    <path id="路径_11000" data-name="路径 11000" d="M404.2,188.61h92.145l-23.036,46.072H427.24Z" transform="translate(-215.999 -92.571)" fill="#ffdcc0"/>
    <path id="路径_11001" data-name="路径 11001" d="M409.13,550.721,497.1,614.7l13.583-16.3-3.02-10.572L417.3,522.112Z" transform="translate(-218.82 -283.52)" fill="#fff6f0"/>
    <path id="路径_11002" data-name="路径 11002" d="M516.094,401.327l-22.281-77.984H470.776l-10.651,37.279Z" transform="translate(-248.017 -169.713)" fill="#ffdcc0"/>
    <path id="路径_11003" data-name="路径 11003" d="M388.155,611.352l-10.9,38.147,57.59,69.108,38.032-45.637Z" transform="translate(-200.57 -334.615)" fill="#ffdcc0"/>
    <path id="路径_11004" data-name="路径 11004" d="M442.8,432.869l-8.175,28.61,83.484,60.715-12.462-43.617Z" transform="translate(-233.418 -232.423)" fill="#fff6f0"/>
  </g>
</svg>
