<svg xmlns="http://www.w3.org/2000/svg" width="137" height="32" viewBox="0 0 137 32">
  <g id="组_339" data-name="组 339" transform="translate(-396 -14)">
    <path id="联合_2" data-name="联合 2" d="M1632.77,17954.994c-1.469-.207-.969-1.352-.725-2.307.167-.658.252-1.3.757-1.668a.653.653,0,0,1,.883.316,3.33,3.33,0,0,1,.144,1.262c.068,1.072.207,1.869-.527,2.234a.925.925,0,0,1-.449.168A.609.609,0,0,1,1632.77,17954.994Zm4.849-.41c-.689-.287-.671-.793-.734-1.766a3.206,3.206,0,0,1-.018-.969.8.8,0,0,1,.744-.586c.708.09.789.58,1.063,1.162.4.844.825,1.93-.442,2.248a.624.624,0,0,1-.167.021A1.181,1.181,0,0,1,1637.619,17954.584Zm-10.4-.518a1.2,1.2,0,0,1-.739-1.465c.189-.275.379-.555.572-.834a8.235,8.235,0,0,1,1.739-2.244c.392-.211.856.1.816.641-.027.348-.771,3.189-1.392,3.689a1.244,1.244,0,0,1-.731.254A.808.808,0,0,1,1627.214,17954.066Zm14.654-2.357c-.063-.162-.248-.369-.234-.59a.821.821,0,0,1,.744-.865c1.208-.09,2.8,2.221,1.154,2.885a1.091,1.091,0,0,1-.4.084C1642.385,17953.223,1642.077,17952.258,1641.868,17951.709Zm-20.327-.027a1.186,1.186,0,0,1-.257-1.666c.514-.389,1.032-.771,1.546-1.154.915-.648,1.519-1.186,2.456-1.83.739-.473,1.1.168.838.631q-1.656,1.98-3.317,3.961a1.164,1.164,0,0,1-.691.205A1.082,1.082,0,0,1,1621.541,17951.682Zm14.767-2.432c-.388-1.533-.37-3.254-.771-4.787a4.093,4.093,0,0,1-.149-1.672l.041-.025c.045,0,.086-.006.131-.01a6.369,6.369,0,0,1,.617,1.645c.518,1.271.933,2.709,1.374,4.016.207.611.586,1.582-.167,1.824a1.13,1.13,0,0,1-.337.061C1636.517,17950.3,1636.433,17949.74,1636.307,17949.25Zm10.468-.113c-.225-.252-.725-.609-.5-1.2.1-.27.379-.373.635-.514.478-.035,2.411.8,2.46,1.768a.977.977,0,0,1-.315.773,1.1,1.1,0,0,1-.723.309C1647.676,17950.273,1647.146,17949.547,1646.775,17949.137Zm-13.527.842c-.613-.111-.658-.793-.5-1.369.356-1.285.581-2.7.856-3.984.117-.562.1-1.437.446-1.814l.108.014c.045.031.09.063.135.1.077.934-.126,6.174-.117,6.436a.786.786,0,0,1-.767.637A.777.777,0,0,1,1633.248,17949.979Zm6.7-1.559q-1.176-2.15-2.361-4.3a6.629,6.629,0,0,1-.9-1.689c.031-.045.068-.09.1-.141a.914.914,0,0,0,.131.014c.365.158.969,1.168,1.239,1.523q1.46,1.86,2.929,3.723c.383.486,1.063,1.279.284,1.816a.645.645,0,0,1-.37.127C1640.484,17949.494,1640.12,17948.754,1639.944,17948.42Zm-10.188.221c-.712-.365-.243-1.176.027-1.617.653-1.033,1.311-2.068,1.965-3.1a6.213,6.213,0,0,1,1-1.551c.158.008.189.059.248.18a14.33,14.33,0,0,1-.649,1.676c-.432,1.154-.865,2.295-1.32,3.408-.156.375-.359,1.113-.891,1.113A.829.829,0,0,1,1629.755,17948.641Zm-13.086-1.51c-.7-1.955,5.583-3.389,6.638-3.779.554-.1.771.4.387.752a37.465,37.465,0,0,1-5.056,3.533,2,2,0,0,1-.9.25A1.1,1.1,0,0,1,1616.67,17947.131Zm26.825-.662c-1.361-1.162-2.722-2.334-4.083-3.5-.306-.217-1.613-1.1-1.69-1.389-.036-.148.045-.279.266-.27.469.021,1.28.842,1.757,1.139,1.451.92,2.906,1.83,4.357,2.75.388.262,1.807.893,1.293,1.711a.661.661,0,0,1-.573.359C1644.319,17947.273,1643.759,17946.707,1643.495,17946.469Zm-16.605-.148c-.676-.762.32-1.3.744-1.623q2-1.582,4.01-3.162c.072.021.144.049.221.072.009.049.018.1.031.152-.095.355-.793.961-1.045,1.248l-2.537,2.943c-.211.238-.559.621-.935.621A.65.65,0,0,1,1626.889,17946.32Zm24.473-1.32a3.5,3.5,0,0,1-1.271-.838.759.759,0,0,1,.536-1.082,9.437,9.437,0,0,1,3.186.563,1.11,1.11,0,0,1,.527,1.227.95.95,0,0,1-.991.76A5.913,5.913,0,0,1,1651.362,17945Zm-26.455-1.771c-.4-.9.59-.99,1.09-1.211.59-.262,1.248-.365,1.9-.617.487-.182,1.1-.43,1.6-.572a6.08,6.08,0,0,0,1.4-.434c.158,0,.216.059.23.221-.261.438-1.1.727-1.577.965q-1.724.979-3.438,1.959a1.05,1.05,0,0,1-.471.111A.779.779,0,0,1,1624.907,17943.229Zm13.8-2.82c-.167-.1-.09-.221-.036-.307.027-.014.054-.031.081-.045.726.018,6.768,1.51,7.512,1.752,1.514.5,2.681.627,2.14,1.627-.06.113-.231.162-.488.162C1646.007,17943.6,1639.372,17940.834,1638.709,17940.408Zm-23.81,1.234a1.206,1.206,0,0,1-.748-1.721,1.151,1.151,0,0,1,.631-.545c1.009-.234,6.493-.141,7.8-.123a.5.5,0,0,1,.333.537c-.109.742-6.922,1.857-7.923,1.857A.508.508,0,0,1,1614.9,17941.643Zm9.787-1.271a.783.783,0,0,1-.487-1.221c.153-.1.306-.207.455-.311a11.351,11.351,0,0,1,1.992.117,10.892,10.892,0,0,0,1.181.031,8.63,8.63,0,0,1,1.244.055,4.89,4.89,0,0,0,.793.014,2.754,2.754,0,0,1,.892.049c.027.045.05.086.072.127-.022.063-.05.121-.072.18l-2.627.486-.942.082a10.777,10.777,0,0,1-2.264.406A1.756,1.756,0,0,1,1624.686,17940.371Zm4.65-2.576c-1.014-.193-2-.324-2.947-.572a8.23,8.23,0,0,1-1.55-.271c-.788-.387-.595-1.139.126-1.473a2.878,2.878,0,0,1,1.365.432c1.118.42,2.2.943,3.294,1.33.347.117,1.51.365,1.239.824l-.041.027h-.044A7.709,7.709,0,0,1,1629.336,17937.795Zm8.476-.076c-.045-.037-.095-.082-.14-.123.041-.072.081-.145.117-.221,1.045-.508,1.852-1.307,2.929-1.842.689-.055,1.167.549.8,1.135-.3.479-2.019.7-2.681.9a4.305,4.305,0,0,1-.906.172A.257.257,0,0,1,1637.812,17937.719Zm-7.877-1.709q-1.338-.812-2.69-1.621a4.887,4.887,0,0,1-1.343-.848c-.419-.518.041-1,.4-1.189.865-.055,1.2.59,1.658,1q1.8,1.608,3.614,3.227a.319.319,0,0,1-.095.266c-.041,0-.086,0-.126,0A5.943,5.943,0,0,1,1629.936,17936.01Zm7.2.586c-.022-.041-.05-.08-.072-.125a12.251,12.251,0,0,1,2.776-3.426c.721-.369,1.73.289.942,1.1q-1.744,1.251-3.492,2.506C1637.24,17936.633,1637.19,17936.613,1637.136,17936.6Zm-20.656-2.186a1.238,1.238,0,0,1-.352-1.855.878.878,0,0,1,.653-.3c.753-.062,6.11,2.537,6.462,3.178a.522.522,0,0,1-.252.473.475.475,0,0,1-.152.018A40.981,40.981,0,0,1,1616.48,17934.41Zm15.889,1.492c-.342-.113-.91-1-1.135-1.312-.694-.855-1.388-1.707-2.082-2.568-.261-.324-.716-.676-.847-1.107a.722.722,0,0,1,.608-.969c.744-.018.852.531,1.145,1.031.6,1.113,1.2,2.227,1.8,3.34a6.018,6.018,0,0,1,.694,1.4c-.008.105-.06.191-.144.191A.154.154,0,0,1,1632.369,17935.9Zm9.859-.189a.338.338,0,0,1,0-.369c.279-.482,7.651-4.395,8.39-4.754,1.347-.1,1.829,1.3.879,1.969-.2.148-8.251,3.168-8.945,3.271a.722.722,0,0,1-.092.008A.263.263,0,0,1,1642.228,17935.713Zm-6.119-.045c-.126-.389.306-.979.415-1.3.279-.838.586-1.625.861-2.428a4.849,4.849,0,0,1,.446-1.172,1.427,1.427,0,0,1,.437-.283.78.78,0,0,1,.883,1.021q-1.075,1.649-2.145,3.309c-.171.266-.46.959-.8.973C1636.172,17935.748,1636.141,17935.713,1636.109,17935.668Zm-3.19-2.023c-.324-.979-.694-2.027-1.073-3.02-.113-.287-.424-.834-.315-1.207.095-.32.153-.455.59-.576a.868.868,0,0,1,.8.314c.284.4.2,1.154.324,1.727.225,1.035.252,2.117.473,3.1l.081,1.311c-.081.068-.086.09-.189.1C1633.216,17935.041,1633.1,17934.213,1632.919,17933.645Zm1.915,1.627c-.023-.424-.041-.848-.059-1.266.131-1.029-.045-2.191.054-3.285.009-.383.023-.762.036-1.145.1-.289.2-.533.568-.555.469-.041,1.036.293.937.848-.216,1.262-.559,2.568-.861,3.789a5.675,5.675,0,0,1-.437,1.686h-.034A.271.271,0,0,1,1634.834,17935.271Zm6.385-2.943c-.036-.594,4.605-5.682,5.353-6.16a1.05,1.05,0,0,1,1.145,1.74c-1.609,1.289-5.687,4.672-6.137,4.7a.257.257,0,0,1-.039,0A.29.29,0,0,1,1641.219,17932.328Zm-19.773-1.852a5.857,5.857,0,0,1-1.478-.855,1.239,1.239,0,0,1-.009-1.578c.734-.662,1.667.051,2.032.455,1.018.951,2.032,1.906,3.046,2.854.288.383-.081.824-.482.873C1623.483,17931.68,1622.469,17931.066,1621.446,17930.477Zm17.75-.779c-.541-.158-.221-1.051-.014-1.662.239-.717,1.073-3.227,1.325-3.623a1,1,0,0,1,.725-.523,1.129,1.129,0,0,1,1.257,1.5q-1.095,1.649-2.19,3.309c-.251.379-.691,1.006-1.043,1.006A.316.316,0,0,1,1639.2,17929.7Zm-13.072-1.8c-.8-.9-2.5-2.168-.518-3.051.712-.252,1.181.564,1.528,1.289.252.5.509,1.014.761,1.527.27.537.563,1.217-.1,1.514a.35.35,0,0,1-.154.033C1627.094,17929.207,1626.341,17928.141,1626.123,17927.895Zm9.6.117c-.82-.117-.617-3.771-.631-4.213.167-.564.4-.758,1.054-.8,1.185.037,1.2,1.105.847,2.191-.168.52-.521,2.824-1.225,2.824A.372.372,0,0,1,1635.726,17928.012Zm-5.29-1.662c-.442-1.217-1.505-2.506.3-3.01,1.438-.113,1.361,1.066,1.447,2.473.054.889.338,1.861-.433,2.061a.513.513,0,0,1-.108.012C1631.061,17927.885,1630.584,17926.77,1630.436,17926.35Z" transform="translate(-1218.001 -17909)" fill="#00a096"/>
    <path id="联合_3" data-name="联合 3" d="M1699.329,17951.842a3.646,3.646,0,0,1-.6-2.771,4.665,4.665,0,0,1,1.308-2.816,3.828,3.828,0,0,1,2.874-1.18,3.375,3.375,0,0,1,2.26.664,2.507,2.507,0,0,1,.8,1.912h-1.194a1.542,1.542,0,0,0-.571-1.156,2.281,2.281,0,0,0-1.427-.4,2.546,2.546,0,0,0-1.889.764,3.593,3.593,0,0,0-.98,2.209,2.831,2.831,0,0,0,.371,2.113,2.361,2.361,0,0,0,2.041.8,4.354,4.354,0,0,0,1.09-.141,3.437,3.437,0,0,0,.918-.371l.2-1.656H1702.4l.124-.988h3.321l-.4,3.2a5.336,5.336,0,0,1-1.494.719,6.667,6.667,0,0,1-1.889.254A3.206,3.206,0,0,1,1699.329,17951.842Zm-47.313-.041a3.821,3.821,0,0,1-.49-2.752,4.727,4.727,0,0,1,1.218-2.768,3.855,3.855,0,0,1,2.974-1.207,3.1,3.1,0,0,1,2.146.7,2.43,2.43,0,0,1,.8,1.832h-1.151a1.6,1.6,0,0,0-.6-1.143,2.233,2.233,0,0,0-1.347-.363,2.506,2.506,0,0,0-1.994.846,3.723,3.723,0,0,0-.861,2.105,3.114,3.114,0,0,0,.319,2.127,2,2,0,0,0,1.818.8,2.557,2.557,0,0,0,1.465-.418,2.787,2.787,0,0,0,.985-1.348h1.151a3.935,3.935,0,0,1-1.48,2.084,3.75,3.75,0,0,1-2.241.705A3.06,3.06,0,0,1,1652.016,17951.8Zm-37.473,0a3.821,3.821,0,0,1-.49-2.752,4.752,4.752,0,0,1,1.213-2.768,3.873,3.873,0,0,1,2.979-1.207,3.1,3.1,0,0,1,2.146.7,2.429,2.429,0,0,1,.8,1.832h-1.151a1.6,1.6,0,0,0-.609-1.143,2.208,2.208,0,0,0-1.342-.363,2.506,2.506,0,0,0-1.993.846,3.724,3.724,0,0,0-.861,2.105,3.143,3.143,0,0,0,.314,2.127,2.009,2.009,0,0,0,1.822.8,2.558,2.558,0,0,0,1.465-.418,2.752,2.752,0,0,0,.98-1.348h1.151a3.926,3.926,0,0,1-1.475,2.084,3.75,3.75,0,0,1-2.241.705A3.049,3.049,0,0,1,1614.543,17951.8Zm81.346,1.051-3.283-5.734h-.043l-.723,5.734h-1.18l.956-7.623h1.194l3.25,5.666h.043l.714-5.666H1698l-.961,7.623Zm-7.946,0,.961-7.623h1.171l-.961,7.623Zm-2.707,0-3.283-5.734h-.043l-.723,5.734h-1.18l.956-7.623h1.194l3.25,5.666h.043l.714-5.666h1.185l-.961,7.623Zm-7.261,0-.48-1.965h-3.335l-.975,1.965h-1.256l3.944-7.623h1.346l2.027,7.623Zm-3.335-2.93h2.617l-.847-3.447h-.043Zm-8.911,2.93.956-7.623h5.572l-.128.99h-4.387l-.276,2.221h4.125l-.124.994h-4.13l-.3,2.424h4.572l-.124.994Zm-6.418,0,.961-7.623h1.17l-.833,6.629h4.263l-.124.994Zm-13.584,0-.48-1.965h-3.335l-.975,1.965h-1.256l3.944-7.623h1.347l2.027,7.623Zm-3.335-2.93h2.617l-.847-3.447h-.043Zm-4.634,2.93-3.288-5.734h-.043l-.723,5.734h-1.18l.956-7.623h1.194l3.25,5.666h.043l.714-5.666h1.185l-.961,7.623Zm-7.95,0,.961-7.623h1.171l-.956,7.623Zm-2.726,0,.433-3.418h-4.063l-.428,3.418h-1.185l.961-7.623h1.18l-.4,3.211h4.063l.4-3.211h1.185l-.961,7.623Zm-4.125-12.223a.312.312,0,0,1-.314-.3v-4.361a.424.424,0,0,0-.424-.418h-6.865a1.2,1.2,0,0,1-.847-.289.874.874,0,0,1-.314-.684l.01-8.191a.778.778,0,0,1,.785-.768h7.232a.415.415,0,0,0,.424-.408l.01-1.9a.309.309,0,0,1,.314-.3l2.355.01a.308.308,0,0,1,.309.309v1.885a.422.422,0,0,0,.428.412h6.823a1.327,1.327,0,0,1,.875.289.827.827,0,0,1,.371.666v6.408a.859.859,0,0,1-.328.691l-1.837,1.645a1.174,1.174,0,0,1-.666.232h-5.239a.428.428,0,0,0-.428.418l-.01,4.369a.3.3,0,0,1-.314.3Zm2.674-12.109v4.123a.419.419,0,0,0,.423.418h4.534a.552.552,0,0,0,.39-.162.535.535,0,0,0,.162-.381v-3.895a.478.478,0,0,0-.171-.377.584.584,0,0,0-.381-.145h-4.534A.424.424,0,0,0,1625.629,17928.52Zm-8.45,0v4a.522.522,0,0,0,.166.381.533.533,0,0,0,.385.162h4.487a.419.419,0,0,0,.424-.418v-4.123a.424.424,0,0,0-.424-.418H1617.6A.424.424,0,0,0,1617.179,17928.52Zm29.066,11.832a1.118,1.118,0,0,1-.818-.33,1.048,1.048,0,0,1-.342-.807l0-6.076a.313.313,0,0,1,.314-.3h12.756a1.125,1.125,0,0,1,.818.338,1.073,1.073,0,0,1,.347.8v3.836a.809.809,0,0,1-.324.668l-1.875,1.654a.935.935,0,0,1-.633.223Zm1.827-4.615v1.588a.532.532,0,0,0,.162.381.547.547,0,0,0,.39.156h7.161a.536.536,0,0,0,.385-.156.519.519,0,0,0,.166-.381v-1.486a.459.459,0,0,0-.186-.395.572.572,0,0,0-.366-.127H1648.5A.426.426,0,0,0,1648.072,17935.736Zm-9.421,4.605a.311.311,0,0,1-.3-.377l1.442-6.324a.312.312,0,0,1,.3-.234h2.588a.151.151,0,0,1,.152.184l-1.5,6.523a.319.319,0,0,1-.309.238Zm43.34-.3a.719.719,0,0,1-.295-.322c-.1-.178-.2-.348-.281-.52s-.148-.314-.186-.408a.437.437,0,0,1-.028-.355.326.326,0,0,1,.281-.139l.8-.078a.884.884,0,0,0,.6-.256,1.294,1.294,0,0,0,.157-.752v-.475h-5.762v2.771a.52.52,0,0,1-.157.381.515.515,0,0,1-.371.152h-.956a.5.5,0,0,1-.366-.152.5.5,0,0,1-.157-.381v-7.92a.519.519,0,0,1,.157-.373.476.476,0,0,1,.366-.16h.956a.449.449,0,0,1,.281.1.525.525,0,0,1,.186.246h5.824c.024-.342.257-.516.7-.516h.585c.481,0,.719.205.719.607v6.275a3.17,3.17,0,0,1-.252,1.426,1.393,1.393,0,0,1-.932.682,3.936,3.936,0,0,1-.661.145,5.594,5.594,0,0,1-.7.045c-.1.01-.186.016-.26.016A.686.686,0,0,1,1681.991,17940.043Zm-4.71-4.121h5.762v-1.426h-5.762Zm0-2.262h5.762v-1.426h-5.762Zm26.012,6.383a.887.887,0,0,1-.495-.123.49.49,0,0,1-.186-.447v-.625h-5.881v.625a.505.505,0,0,1-.186.461,1.021,1.021,0,0,1-.514.109h-.623a.955.955,0,0,1-.495-.109.505.505,0,0,1-.186-.461v-6.213a.61.61,0,0,1,.186-.5.761.761,0,0,1,.495-.148h.623a.763.763,0,0,1,.476.141.63.63,0,0,1,.224.449h5.881v-.023a.58.58,0,0,1,.186-.473.747.747,0,0,1,.495-.15h.666a.776.776,0,0,1,.514.15.579.579,0,0,1,.186.473v6.291a.49.49,0,0,1-.186.447.923.923,0,0,1-.514.123Zm-6.561-2.014h5.881v-3.99h-5.881Zm-5.7,1.861c-.209-.035-.362-.23-.466-.59-.186-.578-.428-1.24-.733-1.973s-.623-1.486-.961-2.242a.248.248,0,0,1-.043-.219.6.6,0,0,1,.157-.182.341.341,0,0,1,.243-.113.345.345,0,0,1,.224.076l.818.684,3.04-7.2c.014-.051.057-.084.138-.1a.578.578,0,0,1,.242.018,1.009,1.009,0,0,1,.224.105c.062.043.09.094.076.146l-2.26,8.473c.133.141.252.275.362.41a3.236,3.236,0,0,1,.262.352,1.657,1.657,0,0,1,.286.623,1.118,1.118,0,0,1-.109.633,2.518,2.518,0,0,1-.29.453,2.02,2.02,0,0,1-.509.438,1.074,1.074,0,0,1-.583.221A.468.468,0,0,1,1691.026,17939.891Zm-19.56-.082q-.307-.07-.457-.562c-.185-.586-.419-1.24-.7-1.979s-.595-1.482-.932-2.242a.32.32,0,0,1,.114-.4.357.357,0,0,1,.233-.109.423.423,0,0,1,.233.072c.119.1.238.211.361.326s.257.24.4.381l2.845-6.764a.178.178,0,0,1,.152-.117.432.432,0,0,1,.233.027.8.8,0,0,1,.209.125.173.173,0,0,1,.067.172l-2.1,8c.114.139.224.27.319.391a3.508,3.508,0,0,1,.247.33,1.9,1.9,0,0,1,.281.645,1.128,1.128,0,0,1-.109.646,2.5,2.5,0,0,1-.271.451,1.685,1.685,0,0,1-.485.426.876.876,0,0,1-.509.193A.661.661,0,0,1,1671.467,17939.809Zm-31.374-7.793a.3.3,0,0,1-.295-.213l-1.151-3.482a.151.151,0,0,1,.147-.2l2.579,0a.315.315,0,0,1,.3.211l1.127,3.48a.151.151,0,0,1-.147.2Zm5.3-.557a.307.307,0,0,1-.314-.307l0-1.861a.317.317,0,0,1,.314-.307h4.858a.425.425,0,0,0,.428-.414v-1.506a.43.43,0,0,0-.428-.422l-4.863-.008a.309.309,0,0,1-.314-.307l0-1.867a.312.312,0,0,1,.314-.3h4.858a.423.423,0,0,0,.428-.408l0-.451a.309.309,0,0,1,.314-.3l2.355.01a.312.312,0,0,1,.314.309v.426a.417.417,0,0,0,.423.418l4.91.01a.314.314,0,0,1,.314.3l-.01,1.863a.306.306,0,0,1-.314.3h-4.9a.426.426,0,0,0-.423.422v1.506a.421.421,0,0,0,.423.414l4.91.016a.31.31,0,0,1,.314.3l-.01,1.863a.309.309,0,0,1-.314.3Zm25.755-.221c-.214-.01-.39-.164-.533-.465-.247-.436-.5-.836-.752-1.219s-.547-.779-.885-1.2a.28.28,0,0,1,.048-.342.312.312,0,0,1,.323-.15,8.668,8.668,0,0,1,1.556.559,4.842,4.842,0,0,1,1.071.654.857.857,0,0,1,.2,1.066,2.418,2.418,0,0,1-.167.4,2.317,2.317,0,0,1-.3.436.7.7,0,0,1-.54.258Zm19.426-.029c-.209-.027-.4-.191-.566-.5-.219-.406-.466-.818-.737-1.236s-.547-.793-.818-1.139a.318.318,0,0,1,.038-.416.4.4,0,0,1,.447-.135,10.371,10.371,0,0,1,1.556.607,4.878,4.878,0,0,1,1.013.645.8.8,0,0,1,.323.479,1.169,1.169,0,0,1-.128.666c-.052.111-.119.24-.2.389a1.673,1.673,0,0,1-.338.408.737.737,0,0,1-.513.232C1690.628,17931.213,1690.6,17931.211,1690.579,17931.209Zm3.911-.326a.4.4,0,0,1-.243-.082.266.266,0,0,1-.1-.219v-.266a.281.281,0,0,1,.1-.223.377.377,0,0,1,.243-.082h4.23v-3.172h-4.829a.4.4,0,0,1-.247-.09.261.261,0,0,1-.1-.217v-.27a.257.257,0,0,1,.1-.215.383.383,0,0,1,.247-.086h4.829v-2.182a.5.5,0,0,1,.19-.443.825.825,0,0,1,.471-.133h.719a.811.811,0,0,1,.466.133.489.489,0,0,1,.195.443v2.182h4.872c.243,0,.366.1.366.3v.27a.28.28,0,0,1-.1.217.381.381,0,0,1-.252.09h-4.891v3.172h4.4a.361.361,0,0,1,.252.082.293.293,0,0,1,.1.223v.266a.276.276,0,0,1-.1.219.38.38,0,0,1-.252.082Zm-19.94-.773a.332.332,0,0,1-.214-.09.268.268,0,0,1-.1-.2v-.287a.279.279,0,0,1,.1-.186.293.293,0,0,1,.214-.1h4.6v-1.424h-3.973a.322.322,0,0,1-.224-.084.275.275,0,0,1-.086-.2v-.289a.268.268,0,0,1,.086-.184.3.3,0,0,1,.224-.1h3.973v-1.408h-4.42a.271.271,0,0,1-.309-.3v-.271a.3.3,0,0,1,.086-.189.3.3,0,0,1,.224-.094h4.42v-.988a.5.5,0,0,1,.157-.363.547.547,0,0,1,.371-.15h.975a.545.545,0,0,1,.367.15.5.5,0,0,1,.157.363v.988h4.71a.3.3,0,0,1,.214.094.282.282,0,0,1,.1.189v.271a.264.264,0,0,1-.1.213.3.3,0,0,1-.214.088h-4.71v1.408h4.03a.3.3,0,0,1,.214.1.253.253,0,0,1,.1.184v.289a.258.258,0,0,1-.1.2.325.325,0,0,1-.214.084h-4.03v1.424h5.024a.277.277,0,0,1,.224.1.284.284,0,0,1,.086.186v.287a.267.267,0,0,1-.1.2.306.306,0,0,1-.195.09Zm-13.484-4a2.837,2.837,0,0,1,5.672-.027,2.667,2.667,0,0,1-2.836,2.8A2.593,2.593,0,0,1,1661.066,17926.109Zm.58-.014a2.027,2.027,0,0,0,2.255,2.229,2.234,2.234,0,1,0-2.255-2.229Zm2.931,1.512-.756-1.125h-.457v1.125h-.6v-3.035h1.137c.737,0,1.227.221,1.227.938a.862.862,0,0,1-.694.879l.871,1.219Zm-1.213-1.6h.49c.3,0,.647-.074.647-.461,0-.371-.252-.479-.647-.479h-.49Zm-22.985.816a.322.322,0,0,1-.3-.2l-1.232-3.371a.155.155,0,0,1,.147-.209h2.569a.311.311,0,0,1,.3.209l1.218,3.375a.149.149,0,0,1-.147.2Zm51.747-.031c-.214-.02-.4-.187-.557-.5-.233-.408-.471-.812-.718-1.227a9.931,9.931,0,0,0-.818-1.172.159.159,0,0,1-.038-.158.506.506,0,0,1,.091-.2.484.484,0,0,1,.171-.152.329.329,0,0,1,.266,0,10.872,10.872,0,0,1,1.547.607,5.78,5.78,0,0,1,1,.633.775.775,0,0,1,.319.473,1.12,1.12,0,0,1-.124.646,3.487,3.487,0,0,1-.2.4,2.143,2.143,0,0,1-.343.418.753.753,0,0,1-.534.24C1692.166,17926.791,1692.146,17926.791,1692.126,17926.789Zm-19.522-.029c-.209-.027-.39-.191-.542-.5-.238-.412-.485-.816-.752-1.2s-.566-.783-.9-1.189a.157.157,0,0,1-.019-.141.387.387,0,0,1,.086-.174.518.518,0,0,1,.157-.131.255.255,0,0,1,.186-.027,13.4,13.4,0,0,1,1.584.58,3.848,3.848,0,0,1,1.061.637.968.968,0,0,1,.3.436,1.169,1.169,0,0,1-.09.666,2.146,2.146,0,0,1-.186.389,2.63,2.63,0,0,1-.3.428.726.726,0,0,1-.511.23C1672.653,17926.764,1672.629,17926.762,1672.6,17926.76Z" transform="translate(-1173 -17907.996)" fill="#121212"/>
  </g>
</svg>
