<svg xmlns="http://www.w3.org/2000/svg" width="40.379" height="32" viewBox="0 0 40.379 32">
  <path id="联合_2" data-name="联合 2" d="M1632.77,17954.994c-1.469-.207-.969-1.352-.725-2.307.167-.658.252-1.3.757-1.668a.653.653,0,0,1,.883.316,3.33,3.33,0,0,1,.144,1.262c.068,1.072.207,1.869-.527,2.234a.925.925,0,0,1-.449.168A.609.609,0,0,1,1632.77,17954.994Zm4.849-.41c-.689-.287-.671-.793-.734-1.766a3.206,3.206,0,0,1-.018-.969.8.8,0,0,1,.744-.586c.708.09.789.58,1.063,1.162.4.844.825,1.93-.442,2.248a.624.624,0,0,1-.167.021A1.181,1.181,0,0,1,1637.619,17954.584Zm-10.4-.518a1.2,1.2,0,0,1-.739-1.465c.189-.275.379-.555.572-.834a8.235,8.235,0,0,1,1.739-2.244c.392-.211.856.1.816.641-.027.348-.771,3.189-1.392,3.689a1.244,1.244,0,0,1-.731.254A.808.808,0,0,1,1627.214,17954.066Zm14.654-2.357c-.063-.162-.248-.369-.234-.59a.821.821,0,0,1,.744-.865c1.208-.09,2.8,2.221,1.154,2.885a1.091,1.091,0,0,1-.4.084C1642.385,17953.223,1642.077,17952.258,1641.868,17951.709Zm-20.327-.027a1.186,1.186,0,0,1-.257-1.666c.514-.389,1.032-.771,1.546-1.154.915-.648,1.519-1.186,2.456-1.83.739-.473,1.1.168.838.631q-1.656,1.98-3.317,3.961a1.164,1.164,0,0,1-.691.205A1.082,1.082,0,0,1,1621.541,17951.682Zm14.767-2.432c-.388-1.533-.37-3.254-.771-4.787a4.093,4.093,0,0,1-.149-1.672l.041-.025c.045,0,.086-.006.131-.01a6.369,6.369,0,0,1,.617,1.645c.518,1.271.933,2.709,1.374,4.016.207.611.586,1.582-.167,1.824a1.13,1.13,0,0,1-.337.061C1636.517,17950.3,1636.433,17949.74,1636.307,17949.25Zm10.468-.113c-.225-.252-.725-.609-.5-1.2.1-.27.379-.373.635-.514.478-.035,2.411.8,2.46,1.768a.977.977,0,0,1-.315.773,1.1,1.1,0,0,1-.723.309C1647.676,17950.273,1647.146,17949.547,1646.775,17949.137Zm-13.527.842c-.613-.111-.658-.793-.5-1.369.356-1.285.581-2.7.856-3.984.117-.562.1-1.437.446-1.814l.108.014c.045.031.09.063.135.1.077.934-.126,6.174-.117,6.436a.786.786,0,0,1-.767.637A.777.777,0,0,1,1633.248,17949.979Zm6.7-1.559q-1.176-2.15-2.361-4.3a6.629,6.629,0,0,1-.9-1.689c.031-.045.068-.09.1-.141a.914.914,0,0,0,.131.014c.365.158.969,1.168,1.239,1.523q1.46,1.86,2.929,3.723c.383.486,1.063,1.279.284,1.816a.645.645,0,0,1-.37.127C1640.484,17949.494,1640.12,17948.754,1639.944,17948.42Zm-10.188.221c-.712-.365-.243-1.176.027-1.617.653-1.033,1.311-2.068,1.965-3.1a6.213,6.213,0,0,1,1-1.551c.158.008.189.059.248.18a14.33,14.33,0,0,1-.649,1.676c-.432,1.154-.865,2.295-1.32,3.408-.156.375-.359,1.113-.891,1.113A.829.829,0,0,1,1629.755,17948.641Zm-13.086-1.51c-.7-1.955,5.583-3.389,6.638-3.779.554-.1.771.4.387.752a37.465,37.465,0,0,1-5.056,3.533,2,2,0,0,1-.9.25A1.1,1.1,0,0,1,1616.67,17947.131Zm26.825-.662c-1.361-1.162-2.722-2.334-4.083-3.5-.306-.217-1.613-1.1-1.69-1.389-.036-.148.045-.279.266-.27.469.021,1.28.842,1.757,1.139,1.451.92,2.906,1.83,4.357,2.75.388.262,1.807.893,1.293,1.711a.661.661,0,0,1-.573.359C1644.319,17947.273,1643.759,17946.707,1643.495,17946.469Zm-16.605-.148c-.676-.762.32-1.3.744-1.623q2-1.582,4.01-3.162c.072.021.144.049.221.072.009.049.018.1.031.152-.095.355-.793.961-1.045,1.248l-2.537,2.943c-.211.238-.559.621-.935.621A.65.65,0,0,1,1626.889,17946.32Zm24.473-1.32a3.5,3.5,0,0,1-1.271-.838.759.759,0,0,1,.536-1.082,9.437,9.437,0,0,1,3.186.563,1.11,1.11,0,0,1,.527,1.227.95.95,0,0,1-.991.76A5.913,5.913,0,0,1,1651.362,17945Zm-26.455-1.771c-.4-.9.59-.99,1.09-1.211.59-.262,1.248-.365,1.9-.617.487-.182,1.1-.43,1.6-.572a6.08,6.08,0,0,0,1.4-.434c.158,0,.216.059.23.221-.261.438-1.1.727-1.577.965q-1.724.979-3.438,1.959a1.05,1.05,0,0,1-.471.111A.779.779,0,0,1,1624.907,17943.229Zm13.8-2.82c-.167-.1-.09-.221-.036-.307.027-.014.054-.031.081-.045.726.018,6.768,1.51,7.512,1.752,1.514.5,2.681.627,2.14,1.627-.06.113-.231.162-.488.162C1646.007,17943.6,1639.372,17940.834,1638.709,17940.408Zm-23.81,1.234a1.206,1.206,0,0,1-.748-1.721,1.151,1.151,0,0,1,.631-.545c1.009-.234,6.493-.141,7.8-.123a.5.5,0,0,1,.333.537c-.109.742-6.922,1.857-7.923,1.857A.508.508,0,0,1,1614.9,17941.643Zm9.787-1.271a.783.783,0,0,1-.487-1.221c.153-.1.306-.207.455-.311a11.351,11.351,0,0,1,1.992.117,10.892,10.892,0,0,0,1.181.031,8.63,8.63,0,0,1,1.244.055,4.89,4.89,0,0,0,.793.014,2.754,2.754,0,0,1,.892.049c.027.045.05.086.072.127-.022.063-.05.121-.072.18l-2.627.486-.942.082a10.777,10.777,0,0,1-2.264.406A1.756,1.756,0,0,1,1624.686,17940.371Zm4.65-2.576c-1.014-.193-2-.324-2.947-.572a8.23,8.23,0,0,1-1.55-.271c-.788-.387-.595-1.139.126-1.473a2.878,2.878,0,0,1,1.365.432c1.118.42,2.2.943,3.294,1.33.347.117,1.51.365,1.239.824l-.041.027h-.044A7.709,7.709,0,0,1,1629.336,17937.795Zm8.476-.076c-.045-.037-.095-.082-.14-.123.041-.072.081-.145.117-.221,1.045-.508,1.852-1.307,2.929-1.842.689-.055,1.167.549.8,1.135-.3.479-2.019.7-2.681.9a4.305,4.305,0,0,1-.906.172A.257.257,0,0,1,1637.812,17937.719Zm-7.877-1.709q-1.338-.812-2.69-1.621a4.887,4.887,0,0,1-1.343-.848c-.419-.518.041-1,.4-1.189.865-.055,1.2.59,1.658,1q1.8,1.608,3.614,3.227a.319.319,0,0,1-.095.266c-.041,0-.086,0-.126,0A5.943,5.943,0,0,1,1629.936,17936.01Zm7.2.586c-.022-.041-.05-.08-.072-.125a12.251,12.251,0,0,1,2.776-3.426c.721-.369,1.73.289.942,1.1q-1.744,1.251-3.492,2.506C1637.24,17936.633,1637.19,17936.613,1637.136,17936.6Zm-20.656-2.186a1.238,1.238,0,0,1-.352-1.855.878.878,0,0,1,.653-.3c.753-.062,6.11,2.537,6.462,3.178a.522.522,0,0,1-.252.473.475.475,0,0,1-.152.018A40.981,40.981,0,0,1,1616.48,17934.41Zm15.889,1.492c-.342-.113-.91-1-1.135-1.312-.694-.855-1.388-1.707-2.082-2.568-.261-.324-.716-.676-.847-1.107a.722.722,0,0,1,.608-.969c.744-.018.852.531,1.145,1.031.6,1.113,1.2,2.227,1.8,3.34a6.018,6.018,0,0,1,.694,1.4c-.008.105-.06.191-.144.191A.154.154,0,0,1,1632.369,17935.9Zm9.859-.189a.338.338,0,0,1,0-.369c.279-.482,7.651-4.395,8.39-4.754,1.347-.1,1.829,1.3.879,1.969-.2.148-8.251,3.168-8.945,3.271a.722.722,0,0,1-.092.008A.263.263,0,0,1,1642.228,17935.713Zm-6.119-.045c-.126-.389.306-.979.415-1.3.279-.838.586-1.625.861-2.428a4.849,4.849,0,0,1,.446-1.172,1.427,1.427,0,0,1,.437-.283.78.78,0,0,1,.883,1.021q-1.075,1.649-2.145,3.309c-.171.266-.46.959-.8.973C1636.172,17935.748,1636.141,17935.713,1636.109,17935.668Zm-3.19-2.023c-.324-.979-.694-2.027-1.073-3.02-.113-.287-.424-.834-.315-1.207.095-.32.153-.455.59-.576a.868.868,0,0,1,.8.314c.284.4.2,1.154.324,1.727.225,1.035.252,2.117.473,3.1l.081,1.311c-.081.068-.086.09-.189.1C1633.216,17935.041,1633.1,17934.213,1632.919,17933.645Zm1.915,1.627c-.023-.424-.041-.848-.059-1.266.131-1.029-.045-2.191.054-3.285.009-.383.023-.762.036-1.145.1-.289.2-.533.568-.555.469-.041,1.036.293.937.848-.216,1.262-.559,2.568-.861,3.789a5.675,5.675,0,0,1-.437,1.686h-.034A.271.271,0,0,1,1634.834,17935.271Zm6.385-2.943c-.036-.594,4.605-5.682,5.353-6.16a1.05,1.05,0,0,1,1.145,1.74c-1.609,1.289-5.687,4.672-6.137,4.7a.257.257,0,0,1-.039,0A.29.29,0,0,1,1641.219,17932.328Zm-19.773-1.852a5.857,5.857,0,0,1-1.478-.855,1.239,1.239,0,0,1-.009-1.578c.734-.662,1.667.051,2.032.455,1.018.951,2.032,1.906,3.046,2.854.288.383-.081.824-.482.873C1623.483,17931.68,1622.469,17931.066,1621.446,17930.477Zm17.75-.779c-.541-.158-.221-1.051-.014-1.662.239-.717,1.073-3.227,1.325-3.623a1,1,0,0,1,.725-.523,1.129,1.129,0,0,1,1.257,1.5q-1.095,1.649-2.19,3.309c-.251.379-.691,1.006-1.043,1.006A.316.316,0,0,1,1639.2,17929.7Zm-13.072-1.8c-.8-.9-2.5-2.168-.518-3.051.712-.252,1.181.564,1.528,1.289.252.5.509,1.014.761,1.527.27.537.563,1.217-.1,1.514a.35.35,0,0,1-.154.033C1627.094,17929.207,1626.341,17928.141,1626.123,17927.895Zm9.6.117c-.82-.117-.617-3.771-.631-4.213.167-.564.4-.758,1.054-.8,1.185.037,1.2,1.105.847,2.191-.168.52-.521,2.824-1.225,2.824A.372.372,0,0,1,1635.726,17928.012Zm-5.29-1.662c-.442-1.217-1.505-2.506.3-3.01,1.438-.113,1.361,1.066,1.447,2.473.054.889.338,1.861-.433,2.061a.513.513,0,0,1-.108.012C1631.061,17927.885,1630.584,17926.77,1630.436,17926.35Z" transform="translate(-1614.001 -17923)" fill="#00a096"/>
</svg>
