<svg xmlns="http://www.w3.org/2000/svg" viewBox="0 0 828.8 1023.105" width="24" height="24" style="" filter="none">
    
    <g>
    
  <path id="路径_2657" data-name="路径 2657" d="M380.614,127.456a126.988,126.988,0,1,0,0,.008M342.6,347.2l124.288-45.152s34.24-9.408,47.84,33.344c13.7,42.72-22.144,49.6-22.144,49.6L342.6,449.664V347.2ZM708.166,934.144c2.176,8.48,13.024,27.168,30.368,52.128-4.768,1.088-9.312,2.336-13.92,3.264-8.352,1.472-16.768,2.688-25.152,4.224-2.816.512-4.128-.544-5.664-2.688-16.864-25.056-30.432-51.872-41.824-79.712-4.448-10.976-8.32-22.176-12.416-33.216-.416-1.152-.8-2.272-1.344-3.616-9.024,3.136-17.856,6.112-27.1,9.376,1.664,4.832,3.136,9.44,4.768,14.016,13.888,38.5,31.168,75.328,54.176,109.376,1.952,2.816,4.064,5.472,5.952,8.288,4.352,6.56,10.4,8.608,18.016,7.84a327.391,327.391,0,0,0,85.152-19.808C829.189,984.8,872.293,956,906.405,914.4c4.064-4.9,5.28-10.464,2.592-16.256-2.56-5.7-7.552-8.256-13.536-8.32A220.161,220.161,0,0,1,820.2,875.1c-21.952-8.288-41.952-19.808-57.344-37.984-4.448-5.216-8.032-11.168-12.256-17.088-7.936,4.416-16.032,9.056-25.088,14.144,4.672,6.688,8.8,13.44,13.7,19.552,11.84,15.04,26.848,26.432,43.52,35.68,25.152,14.016,52.192,22.048,80.416,26.592l2.5.448c-4,3.68-7.424,7.2-11.168,10.176-7.072,5.7-14.144,11.232-21.408,16.512a7.68,7.68,0,0,1-5.664,1.152c-14.464-3.328-27.776-9.12-38.88-19.36.928,5.088,10.08,17.92,22.976,32.256-8.128,4-16.256,7.52-23.84,11.968-9.856,5.824-19.3,4.224-28.928.064-16.288-7.008-30.272-17.632-43.68-29.024l-6.88-6.048m0,0-105.7-74.368c45.76-20.48,91.232-40.608,137.024-60.992a41.742,41.742,0,0,0-17.728-20.128,43.52,43.52,0,0,0-41.7-2.624c-18.3,7.968-36.576,15.936-54.656,24.352-21.312,9.952-31.3,32.064-24.832,54.048.48,1.664,1.152,3.392,1.888,5.344m0,0" transform="translate(-126.63 -0.472)" fill="rgba(0,159.885,149.94,1)"></path>
  <path id="路径_2658" data-name="路径 2658" d="M274.207,780l42.88-19.136a9.312,9.312,0,0,0,.928-.832l-1.6-3.264c-17.824-33.376-186.88-415.616-204.7-449.024-2.976-5.568-6.464-7.3-12.8-6.336a22.784,22.784,0,0,0-14.784,8,9.856,9.856,0,0,0-1.792,10.208C95.679,356.224,260.127,741.632,273.343,778.24c.192.48.48.928.864,1.76m0,0,217.472,35.232c.48,19.968,17.184,36.1,36.608,35.552a36.416,36.416,0,0,0,35.424-36.736c-.448-19.424-17.184-35.776-36.512-35.36-19.712.352-36,17.024-35.52,36.544m0,0,93.5-108.544a21.616,21.616,0,1,0,0,43.232,21.856,21.856,0,0,0,21.664-21.664,21.619,21.619,0,0,0-21.664-21.568m0,0-50.432,28.8a14.167,14.167,0,0,0-14.4-14.336,14.36,14.36,0,0,0-14.336,14.464,14.592,14.592,0,0,0,14.336,14.208,14.4,14.4,0,0,0,14.4-14.336m0,0" transform="translate(221.953 -0.472)" fill="rgba(0,159.885,149.94,1)"></path>
  <path id="路径_2659" data-name="路径 2659" d="M576.929,272.992c107.584,1.12,105.6,78.656,105.6,78.656V412.7c29.984,18.112,76.256,46.464,76.256,46.464l106.048,11.36s24.864,10.4,23.84,49.76c-1.024,39.392-36.288,36.288-36.288,36.288L746.657,544.128l-66.144-30.112-1.408,40.48V621.76l76.352,210.816s17.056,55.84-26.176,75.3c-43.328,19.3-62.688-9.12-62.688-9.12l-66.144-180.1c-10.208-36.544-23.328-15.936-23.328-15.936V886.176c-4.032,40.96-54.144,36.48-54.144,36.48-45.568,0-51.328-34.208-51.328-34.208V342.528c4.544-76.416,105.28-69.536,105.28-69.536Z" transform="translate(-449.921 -0.472)" fill="rgba(0,159.885,149.94,1)"></path>

    </g>
  </svg>