<svg xmlns="http://www.w3.org/2000/svg" viewBox="0 0 1073.462 1024.003" width="24" height="24" style="border-color: rgba(187,187,187,1);border-width: 0px;border-style: solid" filter="none">
    
    <g>
    
  <path id="导航-物业管理" d="M1058.64,419.778a17.25,17.25,0,0,1,14.822,17.023V1006.92a16.51,16.51,0,0,1-2.751,7.776,13.039,13.039,0,0,1-6.3,4.785l-9.271,3.589a13.923,13.923,0,0,1-5.036.933H23.364a13.925,13.925,0,0,1-5.036-.933l-9.259-3.589a13.063,13.063,0,0,1-6.316-4.785A16.509,16.509,0,0,1,0,1006.92V102.1c0-9.391,7.967-17.011,17.789-17.011L666.333.12A13.434,13.434,0,0,1,668.127,0h6.795a13.075,13.075,0,0,1,13.04,14.188V339.974a14.081,14.081,0,0,0,11.547,13.854ZM258.562,950.189h99.663A27.275,27.275,0,0,0,385.5,922.914V832.8a27.263,27.263,0,0,0-27.276-27.263H258.562A27.263,27.263,0,0,0,231.3,832.8v90.116a27.263,27.263,0,0,0,27.263,27.275Zm459.638,0h99.663a27.263,27.263,0,0,0,27.263-27.275V832.8a27.263,27.263,0,0,0-27.264-27.263H718.2A27.263,27.263,0,0,0,690.925,832.8v90.116A27.275,27.275,0,0,0,718.2,950.189Zm-459.634-269.5h99.663A27.263,27.263,0,0,0,385.5,653.426V560.5a27.275,27.275,0,0,0-27.275-27.263H258.566A27.263,27.263,0,0,0,231.3,560.5v92.964a27.263,27.263,0,0,0,27.263,27.227Zm0-269.452h99.663A27.263,27.263,0,0,0,385.5,384.009V291.046a27.263,27.263,0,0,0-27.275-27.263H258.566A27.263,27.263,0,0,0,231.3,291.046v92.963a27.263,27.263,0,0,0,27.263,27.263ZM718.2,680.689h99.663a27.264,27.264,0,0,0,27.264-27.264V560.5a27.263,27.263,0,0,0-27.263-27.263H718.2A27.275,27.275,0,0,0,690.929,560.5v92.964A27.263,27.263,0,0,0,718.2,680.689Z" fill="rgba(0,159.885,149.94,1)"></path>

    </g>
  </svg>