<svg xmlns="http://www.w3.org/2000/svg" width="58" height="44" viewBox="0 0 58 44">
  <path id="降低成本" d="M123.68,215.438q1.739,2.378,3.52,4.724,1.847,2.435,3.691,4.549a3.974,3.974,0,0,0,1.442,1.2,10.369,10.369,0,0,0,1.674.617H91.654a3.087,3.087,0,0,1-2.281-.967,3.185,3.185,0,0,1-.951-2.319v-4.46a3.291,3.291,0,0,1,.951-2.348,3.047,3.047,0,0,1,2.281-1Zm19.1,14.845a3.133,3.133,0,0,1,2.309,1,3.245,3.245,0,0,1,.982,2.348v4.1a3.139,3.139,0,0,1-.983,2.319,3.177,3.177,0,0,1-2.309.967H98.868a3.087,3.087,0,0,1-2.281-.967,3.185,3.185,0,0,1-.951-2.319v-4.106a3.291,3.291,0,0,1,.951-2.348,3.047,3.047,0,0,1,2.281-1h43.915ZM125.53,204.467h-2.712a2.787,2.787,0,0,0-1.933.7,4.037,4.037,0,0,0-1.126,1.73,4.994,4.994,0,0,0-.232,2.141,4.066,4.066,0,0,0,.691,1.937,2.538,2.538,0,0,1,.26.321,1.236,1.236,0,0,0,.316.321H91.654a3.087,3.087,0,0,1-2.281-.967,3.185,3.185,0,0,1-.951-2.319v-4.4a3.257,3.257,0,0,1,.951-2.376,3.081,3.081,0,0,1,2.281-.967h36.413q0,1.525-.028,2.319c-.018.528-.028.91-.028,1.145v.471l-2.481-.064Zm19.678,6.629q-.811,1.29-1.761,2.786t-1.934,3.022c-.653,1.017-1.281,2.023-1.874,3.022s-1.126,1.905-1.586,2.729a1.554,1.554,0,0,1-.867.585,3.729,3.729,0,0,1-1.27.146,3.818,3.818,0,0,1-1.326-.293,2.7,2.7,0,0,1-1.039-.735q-.979-1.231-2.049-2.815-1.1-1.627-2.193-3.257-1.127-1.671-2.193-3.226c-.712-1.038-1.354-1.944-1.933-2.729q-.921-1.172-.579-1.73t1.674-.557h3.116a2.09,2.09,0,0,0,1.762-.646,3.548,3.548,0,0,0,.491-2.112c0-1.252-.011-2.13-.028-2.64s-.028-.871-.028-1.085a4.252,4.252,0,0,0-.028-.528,9,9,0,0,1-.028-.967,3.356,3.356,0,0,1,.663-2.376,2.084,2.084,0,0,1,1.53-.674h2.249a2.654,2.654,0,0,1,2.077,1,3.068,3.068,0,0,1,.867,1.994v5.69a2.321,2.321,0,0,0,.635,1.7,2.555,2.555,0,0,0,1.905.646h3.116a4.9,4.9,0,0,1,1.414.146c.288.1.432.264.432.5a2.024,2.024,0,0,1-.347.938l-.867,1.463Zm0,0" transform="translate(-88.422 -197.018)" fill="#00a096"/>
</svg>
