<svg xmlns="http://www.w3.org/2000/svg" width="42" height="44" viewBox="0 0 42 44">
  <g id="风险保障计划" transform="translate(-28.444)">
    <path id="路径_2655" data-name="路径 2655" d="M50.679,4.4V1.222a1.235,1.235,0,0,0-2.471,0V4.4c-10.994.611-19.765,8.678-19.765,18.7v.611A1,1,0,0,0,30.3,24.2,7.218,7.218,0,0,1,36.1,21.022a6.937,6.937,0,0,1,5.806,3.056,1.166,1.166,0,0,0,1.853,0,7.1,7.1,0,0,1,5.806-3.056,6.772,6.772,0,0,1,5.682,2.933,1.166,1.166,0,0,0,1.853,0,7.091,7.091,0,0,1,5.682-2.933A6.757,6.757,0,0,1,68.591,24.2a1.028,1.028,0,0,0,1.853-.489V23.1c0-10.022-8.771-18.089-19.765-18.7Z" transform="translate(0)" fill="#00a096"/>
    <path id="路径_2656" data-name="路径 2656" d="M250.667,557.511a1.155,1.155,0,0,0-1.222,1.222v12.222a4.035,4.035,0,1,1-8.067,0,1.222,1.222,0,0,0-2.444,0,6.547,6.547,0,0,0,6.478,6.6,6.645,6.645,0,0,0,6.478-6.233c0-.122.122-.244.122-.367V558.733a1.436,1.436,0,0,0-1.344-1.222Z" transform="translate(-201.304 -533.555)" fill="#00a096"/>
  </g>
</svg>
