<svg xmlns="http://www.w3.org/2000/svg" xmlns:xlink="http://www.w3.org/1999/xlink" width="100" height="100" viewBox="0 0 100 100">
  <defs>
    <linearGradient id="linear-gradient" x1="0.24" y1="0.071" x2="0.738" y2="0.946" gradientUnits="objectBoundingBox">
      <stop offset="0" stop-color="#04c2b6"/>
      <stop offset="1" stop-color="#00a096"/>
    </linearGradient>
  </defs>
  <g id="组_317" data-name="组 317" transform="translate(-500 -854)">
    <circle id="椭圆_16" data-name="椭圆 16" cx="50" cy="50" r="50" transform="translate(500 854)" fill="url(#linear-gradient)"/>
    <path id="工伤" d="M186.271,114.462H174.217a1.624,1.624,0,0,0-1.391.769,1.392,1.392,0,0,0,0,1.538l3.091,4.615a1.408,1.408,0,0,0,1.236.615h4.018v3.077a1.457,1.457,0,0,0,1.545,1.538h1.545v1.538h-6.336l-3.709-5.538-5.1-7.692-.155-.154a.151.151,0,0,0-.155-.154c-.155,0-.155-.154-.309-.154s-.155-.154-.309-.154h-.773a8.409,8.409,0,0,0-5.254,2.462A7.67,7.67,0,0,0,160,122.154v10.769A3.093,3.093,0,0,0,163.091,136h21.326a1.457,1.457,0,0,0,1.545-1.538v-2.769h3.4A4.808,4.808,0,0,0,194,126.769v-4.615A7.635,7.635,0,0,0,186.271,114.462Zm-12.208,13.692a2.764,2.764,0,0,1-2.782-2.769,2.5,2.5,0,0,1,1.7-2.462l3.554,5.231Zm2.936-16a8.061,8.061,0,0,0,8.036-8A8.194,8.194,0,0,0,177,96a8.061,8.061,0,0,0-8.036,8A8.194,8.194,0,0,0,177,112.154Z" transform="translate(373.001 788)" fill="#fff"/>
  </g>
</svg>
