<svg xmlns="http://www.w3.org/2000/svg" xmlns:xlink="http://www.w3.org/1999/xlink" width="100" height="100" viewBox="0 0 100 100">
  <defs>
    <linearGradient id="linear-gradient" x1="0.24" y1="0.071" x2="0.738" y2="0.946" gradientUnits="objectBoundingBox">
      <stop offset="0" stop-color="#04c2b6"/>
      <stop offset="1" stop-color="#00a096"/>
    </linearGradient>
  </defs>
  <g id="组_319" data-name="组 319" transform="translate(-1330 -854)">
    <circle id="椭圆_18" data-name="椭圆 18" cx="50" cy="50" r="50" transform="translate(1330 854)" fill="url(#linear-gradient)"/>
    <path id="方案" d="M173.732,99.1H147.07a6.635,6.635,0,0,0-6.669,6.6v30.8a6.635,6.635,0,0,0,6.669,6.6h26.663a6.635,6.635,0,0,0,6.669-6.6V105.7A6.639,6.639,0,0,0,173.732,99.1ZM170.4,134.3h-20a2.2,2.2,0,1,1,0-4.4h20a2.2,2.2,0,1,1,0,4.4Zm-22.223-13.2a2.212,2.212,0,0,1,2.223-2.2h8.885a2.2,2.2,0,1,1,0,4.4H150.4A2.216,2.216,0,0,1,148.178,121.1Zm22.223,2.2h-2.223a2.2,2.2,0,1,1,0-4.4H170.4a2.2,2.2,0,1,1,0,4.4Zm0-11h-20a2.2,2.2,0,1,1,0-4.4h20a2.2,2.2,0,1,1,0,4.4Z" transform="translate(1219.599 782.899)" fill="#fff"/>
  </g>
</svg>
