<svg xmlns="http://www.w3.org/2000/svg" viewBox="0 0 96 84.4" width="30" height="30" style="" filter="none">
    
    <g>
    
  <g id="logo-icon_2_" data-name="logo-icon (2)" transform="translate(-2.1 -10.7)" fill="rgba(158.1,158.1,158.1,1)">
    <path id="路径_10876" data-name="路径 10876" d="M54.1,67.8a5.584,5.584,0,0,0-4-1.6A5.758,5.758,0,0,0,46,68l-.3.3L25.9,91.1a51.466,51.466,0,0,0,9,3.7c.1,0,.2.1.3.1a5.019,5.019,0,0,0,1.2.2A5.145,5.145,0,0,0,40,93.6c.1-.2.3-.3.4-.5L50.1,82l9.8,11.2.2.2A5.061,5.061,0,0,0,63.8,95a3.75,3.75,0,0,0,1.1-.1,1.421,1.421,0,0,0,.6-.2,52.388,52.388,0,0,0,8.8-3.6L54.6,68.4C54.4,68.2,54.3,68,54.1,67.8Z" fill="rgba(158.1,158.1,158.1,1)" stroke="none"></path>
    <path id="路径_10877" data-name="路径 10877" d="M50.1,10.7c-26.5,0-48,19.3-48,43.1,0,12.1,5.6,23.1,14.6,30.9l.2.2a3.221,3.221,0,0,0,2,.7,2.9,2.9,0,0,0,2.4-1.1h0L43.5,56.3l.2-.2a4.359,4.359,0,0,0,1-3l1.5-19.2h0a.458.458,0,0,0-.5-.4h-.1c-1.7.3-7.9,1.1-7.9,1.1-1.2.3-2.2.9-2.3,2v.2L34.2,49.4,23,63.3l-.1.1h0a3.1,3.1,0,0,1-2.2.9A3.454,3.454,0,0,1,18,62.9a28.326,28.326,0,0,1-5-16c0-17.8,16.6-32.2,37.1-32.2S87.2,29.1,87.2,46.9a29.017,29.017,0,0,1-4.9,16h0a3.282,3.282,0,0,1-2.7,1.5,3.172,3.172,0,0,1-2.2-.9l-.1-.1h0l-11.2-14L64.9,36.8v-.3a2.688,2.688,0,0,0-2.3-2s-6.2-.8-8-1.1h-.2a.43.43,0,0,0-.4.4h0l1.5,19v.4a5.362,5.362,0,0,0,1.1,2.7l.1.2L78.9,84.3l.1.2a3.312,3.312,0,0,0,2.4,1,3.221,3.221,0,0,0,2-.7l.1-.1c9-7.8,14.6-18.8,14.6-31C98.2,30,76.7,10.7,50.1,10.7Z" fill="rgba(158.1,158.1,158.1,1)" stroke="none"></path>
  </g>

    </g>
  </svg>