<svg xmlns="http://www.w3.org/2000/svg" viewBox="0 0 92.958 94.155" width="30" height="30" style="" filter="none">
    
    <g>
    
  <path id="logo-icon_5_" data-name="logo-icon (5)" d="M95.7,33.6a26.6,26.6,0,0,0-2.8-.3,6.726,6.726,0,0,0-1.1.7c-.4.1-.8-.1-1.2.1l-.3-.3c-.2-1.2-.4-19-.4-19C68.9,13,50.1,3,50.1,3c-9.4,8-39.3,12.9-39.3,12.9s.4,23.3.6,29.6c.2,1,.4,5.5.4,6.4a10.206,10.206,0,0,1,.3,3c-.3,1.2-1.5,2-2.2,2.7-1.5,1.3-7.3,5.9-6.6,7.2.4.8,2,1,3.1.7,1.4-.4,3.9-2.7,5-3.7.4-.4,1.6-1.4,2.2-.5,1,2.6,2,5.3,3,7.9A47.238,47.238,0,0,0,27.3,82.9c1.3,1.1,5.2,3.2,5.6,3.5,1.2.6,5.2,2.9,6,3.5.9.5,1.8.9,2.6,1.4A27.9,27.9,0,0,0,46,93.9c1.7.8,3.4,2.8,5.2,3.2,1.6.4,3.7-1.5,4.6-2.2a20.279,20.279,0,0,0,1.8-1.3c.5-.2,2.9-1.8,3.6-2.2,1.2-.9,2.7-1.6,3.9-2.4a40,40,0,0,0,4.6-3.2C70.9,85,91.8,73,90.5,40c0-.5,5.2-4.5,5.7-5.6A.891.891,0,0,0,95.7,33.6ZM59.8,85.8l-4.5,3c-.4.2-2.8,2-3.9,2.5C50,90.8,49.2,89.8,48,89c-1.7-1.2-3.4-2.3-5.1-3.4-.6-.3-1.3-.7-1.9-1-.5-.3-22.7-10.6-22.6-28,0-.7,31.9-25.5,32.3-25.5.8.8,12,16,12.4,16.1.7,0,11.7-7.3,11.5-7.6-.6-1.8-5.8,1.4-6.1,1.2-.3-.4-17.7-22.8-18-23.1-1.4-.3-32.4,32.5-33.3,32.1-1-.5-1.3-29.2-1.3-29.2S38.3,17.2,50.6,9c14.7,7.9,34.3,11,34.3,11s.4,17.1.4,18.5C84.5,40.5,53,66.6,51.4,67,50,66.1,39.7,52.4,38.6,52c-.9-.4-2.2.4-3,.7-2.2,1-8.5,3.3-8.8,3.9a3.934,3.934,0,0,0,0,2.4c1.4,1.1,4.8-3.2,6.6-1.5,1.1,1.5,2.2,3,3.4,4.5.5.5,13.2,18.4,14.8,18.1,1.2-.3,32.5-33.9,33.7-33.3C85.3,71.6,60.6,85.1,59.8,85.8Z" transform="translate(-3.242 -3)" fill="rgba(29.07,31.875,135.91500000000002,1)" fill-rule="evenodd" stroke="none"></path>

    </g>
  </svg>