<svg xmlns="http://www.w3.org/2000/svg" viewBox="0 0 97.3 73" width="30" height="30" style="" filter="none">
    
    <g>
    
  <g id="logo-icon_1_" data-name="logo-icon (1)" transform="translate(-1.7 -14.9)" fill="rgba(158.1,158.1,158.1,1)">
    <path id="路径_10873" data-name="路径 10873" d="M82.6,27.6a1.986,1.986,0,0,0,0-2.1,2.234,2.234,0,0,0-1.8-1H59L62.8,18a1.986,1.986,0,0,0,0-2.1,2.234,2.234,0,0,0-1.8-1H40.6A2.984,2.984,0,0,0,38,16.4l-5,8.7H46.9L18,75.2a1.986,1.986,0,0,0,0,2.1,2.006,2.006,0,0,0,1.8,1H41.6l-3.8,6.5a1.986,1.986,0,0,0,0,2.1,2.234,2.234,0,0,0,1.8,1H59.7a2.984,2.984,0,0,0,2.6-1.5l5-8.7H53.7ZM53.1,34.7H66.8L47.5,68.1H33.9Z" fill="rgba(158.1,158.1,158.1,1)" stroke="none"></path>
    <path id="路径_10874" data-name="路径 10874" d="M22.4,59.4l5-8.7H17.7l13.9-24h-10A2.984,2.984,0,0,0,19,28.2L2,57.6a2.167,2.167,0,0,0,0,2.2,2.144,2.144,0,0,0,1.9,1.1H19.8A3.531,3.531,0,0,0,22.4,59.4Z" fill="rgba(158.1,158.1,158.1,1)" stroke="none"></path>
    <path id="路径_10875" data-name="路径 10875" d="M98.7,43a2.144,2.144,0,0,0-1.9-1.1H80.9a2.984,2.984,0,0,0-2.6,1.5l-5,8.7H83l-13.9,24h10a2.984,2.984,0,0,0,2.6-1.5l17-29.4A2.167,2.167,0,0,0,98.7,43Z" fill="rgba(158.1,158.1,158.1,1)" stroke="none"></path>
  </g>

    </g>
  </svg>