<svg xmlns="http://www.w3.org/2000/svg" viewBox="0 0 93.666 74.12" width="30" height="30" style="" filter="none">
    
    <g>
    
  <g id="logo-icon_4_" data-name="logo-icon (4)" transform="translate(-3.933 -15.2)" fill="rgba(0,133.875,136.935,1)">
    <path id="路径_10881" data-name="路径 10881" d="M44.7,30c-.3.9.5,2.1.7,2.8.9,2.3,1.7,4.7,2.5,7,.4,1.3.7,3.2,1.6,4.1.2,0,.2-.1.4-.2-.1-1-.1-2-.2-3-.5-2.3-.6-4.8-1.1-7.2-.3-1.3-.1-3.1-.8-4a1.892,1.892,0,0,0-1.8-.7C45,29,44.9,29.3,44.7,30Z" fill="rgba(0,133.875,136.935,1)" fill-rule="evenodd" stroke="none"></path>
    <path id="路径_10882" data-name="路径 10882" d="M55.9,31.1a1.9,1.9,0,0,0-2.2-2c-.9.1-1.1.6-1.3,1.3,0,.9-.1,1.8-.1,2.7-.2,2.5.2,5.2-.1,7.6,0,1,.1,2,.1,2.9.2.1.2.2.6.2.7-1,.7-2.6,1-3.9C54.6,37,55.4,34,55.9,31.1Z" fill="rgba(0,133.875,136.935,1)" fill-rule="evenodd" stroke="none"></path>
    <path id="路径_10883" data-name="路径 10883" d="M39.1,36.1l4.8,6c.5.7,1.8,2.8,2.6,3,.2.1.4-.1.4-.4.1-.5-1.3-2.7-1.6-3.3-1.4-2.6-2.8-5.2-4.2-7.7-.7-1.2-.9-2.4-2.7-2.4A1.656,1.656,0,0,0,37,33.5,18.33,18.33,0,0,0,39.1,36.1Z" fill="rgba(0,133.875,136.935,1)" fill-rule="evenodd" stroke="none"></path>
    <path id="路径_10884" data-name="路径 10884" d="M55.3,44.5c.1.1.1.2.2.3.8,0,1.5-1.6,1.9-2.3,1.7-2.6,3.3-5.1,5-7.7a1.832,1.832,0,0,0-2-2.4c-.3.2-.8.3-1,.7a10.79,10.79,0,0,0-1,2.7c-.6,1.9-1.3,3.7-2,5.6C56,42.3,55,43.6,55.3,44.5Z" fill="rgba(0,133.875,136.935,1)" fill-rule="evenodd" stroke="none"></path>
    <path id="路径_10885" data-name="路径 10885" d="M34.7,41.5c2.1,1.3,4.2,2.5,6.2,3.8.8.5,2.3,1.8,3.3,1.9h.3c.1-.2.2-.2.2-.6l-8.4-7.5c-1.1-.9-1.8-2.4-3.8-2.3-.8.5-1.9,1.6-.9,2.8A8.945,8.945,0,0,0,34.7,41.5Z" fill="rgba(0,133.875,136.935,1)" fill-rule="evenodd" stroke="none"></path>
    <path id="路径_10886" data-name="路径 10886" d="M63.9,38.4c-2.1,1.3-6.3,7-6.4,7.9.1.1.1.2.2.3.1,0,.2.1.4.1,2.7-1.9,5.4-3.9,8.1-5.8C67.9,39.1,65.6,37.6,63.9,38.4Z" fill="rgba(0,133.875,136.935,1)" fill-rule="evenodd" stroke="none"></path>
    <path id="路径_10887" data-name="路径 10887" d="M29.4,44.1c-1.7.8-2.1,2.5-.3,3.4,1.1.5,2.4.3,3.6.6,2.2.6,4.5.9,6.8,1.3a18.628,18.628,0,0,0,3.4.7A.1.1,0,0,0,43,50c.6-1.1-2.1-1.6-2.9-1.9-2.5-.9-5-2.1-7.6-3.1C31.6,44.7,30.8,44,29.4,44.1Z" fill="rgba(0,133.875,136.935,1)" fill-rule="evenodd" stroke="none"></path>
    <path id="路径_10888" data-name="路径 10888" d="M61.6,48.9c1.5-.5,5.5-1,6.2-2.1a1.739,1.739,0,0,0-1.9-2.6c-2.5,1.2-4.4,3.1-6.8,4.3-.1.2-.2.3-.3.5l.3.3A5.694,5.694,0,0,0,61.6,48.9Z" fill="rgba(0,133.875,136.935,1)" fill-rule="evenodd" stroke="none"></path>
    <path id="路径_10889" data-name="路径 10889" d="M28.8,55.4c1.5.2,4.6-.6,5.8-.9.7-.1,1.5-.1,2.2-.2,2-.4,4.1-.8,6.1-1.1.1-.1.1-.3.2-.4-.1-.1-.1-.2-.2-.3-1.1-.3-2.5,0-3.9-.2-1.7-.2-3.7,0-5.6-.2a34.4,34.4,0,0,0-4.6-.3c-.4.2-.7.5-1.1.7A1.8,1.8,0,0,0,28.8,55.4Z" fill="rgba(0,133.875,136.935,1)" fill-rule="evenodd" stroke="none"></path>
    <path id="路径_10890" data-name="路径 10890" d="M32.1,62.8c2.7-1.5,5.3-3,8-4.5,1.1-.6,3.1-1.2,3.7-2.2,0-.4-.2-.5-.5-.5a17.015,17.015,0,0,1-3.2,1c-1.2.3-2.6.9-3.7,1.3-1.5.6-3,.8-4.4,1.4-1.2.5-3.4.7-2.5,2.8C29.7,63,31,63.3,32.1,62.8Z" fill="rgba(0,133.875,136.935,1)" fill-rule="evenodd" stroke="none"></path>
    <path id="路径_10891" data-name="路径 10891" d="M61.3,55.5c1.7,1.1,21.3,9.2,22.5,7,1.3-2.3-1.5-2.6-5-3.8-1.7-.6-15.7-4-17.4-4.1-.1,0-.1.1-.2.1C61.1,55,60.9,55.3,61.3,55.5Z" fill="rgba(0,133.875,136.935,1)" fill-rule="evenodd" stroke="none"></path>
    <path id="路径_10892" data-name="路径 10892" d="M37.2,68.4c2-2.3,3.9-4.5,5.9-6.8.6-.7,2.2-2.1,2.4-2.9a.367.367,0,0,0-.1-.3c-.2-.1-.3-.1-.5-.2-3.1,2.4-6.2,4.9-9.3,7.3-1,.7-3.3,2-1.7,3.8C35.1,70.6,36.5,69.1,37.2,68.4Z" fill="rgba(0,133.875,136.935,1)" fill-rule="evenodd" stroke="none"></path>
    <path id="路径_10893" data-name="路径 10893" d="M73.8,66.6c-3.4-2.1-6.7-4.2-10.1-6.4-1.1-.7-3-2.6-4.1-2.6-.5,0-.7.3-.6.6.2.7,3.2,2.7,3.9,3.2,3.2,2.7,6.3,5.4,9.5,8.1.9.8,3.1,3.1,4.4,1C78,68.7,74.7,67.2,73.8,66.6Z" fill="rgba(0,133.875,136.935,1)" fill-rule="evenodd" stroke="none"></path>
    <path id="路径_10894" data-name="路径 10894" d="M48.1,60.5c-.1-.3-.2-.4-.6-.4a14.757,14.757,0,0,0-2.3,3.6c-1.5,2.4-3,4.8-4.6,7.2-.6,1-1.7,2.9-.1,3.8,1.9,1,2.5-1.3,3-2.3,1.1-2.6,2.1-5.2,3.1-7.9C47,63.1,47.7,61.9,48.1,60.5Z" fill="rgba(0,133.875,136.935,1)" fill-rule="evenodd" stroke="none"></path>
    <path id="路径_10895" data-name="路径 10895" d="M66.8,72.1c-2.3-2.9-4.5-5.8-6.8-8.6-.6-.8-2-3.2-2.9-3.5h-.3c-.1.1-.2.2-.2.3-.1.5,1.7,3.4,2.1,3.9,1.8,3.3,3.6,6.6,5.5,10,.5,1,1.7,3.3,3.3,2.2C69.2,75,67.7,73.2,66.8,72.1Z" fill="rgba(0,133.875,136.935,1)" fill-rule="evenodd" stroke="none"></path>
    <path id="路径_10896" data-name="路径 10896" d="M50.7,61.1h-.3c-.8.9-.8,2.9-1,4.2-.6,3-1.2,6.3-2,9.2-.4,1.3-.3,2.9,1.1,3.2a1.978,1.978,0,0,0,2.2-1.4c0-.6.4-12.8.3-14.9C51,61.3,50.8,61.2,50.7,61.1Z" fill="rgba(0,133.875,136.935,1)" fill-rule="evenodd" stroke="none"></path>
    <path id="路径_10897" data-name="路径 10897" d="M58.2,78.3c1.7-.6.9-2.8.4-4.2-1-3-2-6.4-3.2-9.3-.5-1.3-.6-2.8-1.4-3.8h-.3a.1.1,0,0,0-.1.1c-.3.6.1,3,.3,3.9.9,3.5.9,7.5,1.8,11.1C56.1,77.4,56.3,78.9,58.2,78.3Z" fill="rgba(0,133.875,136.935,1)" fill-rule="evenodd" stroke="none"></path>
    <path id="路径_10898" data-name="路径 10898" d="M45.2,26.4c1.8-.4,1.1-2.7,1-4.8-.2-3.3,0-6-3.4-5.7-4.2,1.2-1.7,4.2-.7,7C42.5,23.9,43.7,26.8,45.2,26.4Z" fill="rgba(0,133.875,136.935,1)" fill-rule="evenodd" stroke="none"></path>
    <path id="路径_10899" data-name="路径 10899" d="M54.4,26.8c1.7.2,2.5-5.3,2.9-6.5.8-2.5.8-5-2-5.1-1.5.1-2.1.5-2.4,1.9C52.9,18,52.5,26.5,54.4,26.8Z" fill="rgba(0,133.875,136.935,1)" fill-rule="evenodd" stroke="none"></path>
    <path id="路径_10900" data-name="路径 10900" d="M36,29.5c1.5-.7.9-2.3.2-3.5-.6-1.2-1.2-2.4-1.8-3.5-.8-1.7-1.9-3.6-3.5-3-4.6,2.1-.6,5,1.2,7.1C32.7,27.1,34.7,30,36,29.5Z" fill="rgba(0,133.875,136.935,1)" fill-rule="evenodd" stroke="none"></path>
    <path id="路径_10901" data-name="路径 10901" d="M62.4,30.7c.8.2,1.9-1.4,2.6-2.3,1.7-2.6,3.4-5.1,5.1-7.7.9-2.1-1.1-3.6-2.9-3.5a2.3,2.3,0,0,0-1.7,1.2c-.6.9-2.5,6.7-3.1,8.4C61.9,28.2,61.2,30.3,62.4,30.7Z" fill="rgba(0,133.875,136.935,1)" fill-rule="evenodd" stroke="none"></path>
    <path id="路径_10902" data-name="路径 10902" d="M21.3,32.5c2.4,1.4,4.7,2.8,7.2,4.1.9-.1,1.8-1.1,1.1-2-2.4-2.2-4.7-4.4-7.1-6.6-.8-.9-3-2.6-4.7-1.1a3,3,0,0,0,0,3.7C18.6,31.4,20.2,31.9,21.3,32.5Z" fill="rgba(0,133.875,136.935,1)" fill-rule="evenodd" stroke="none"></path>
    <path id="路径_10903" data-name="路径 10903" d="M67.9,37.4c1-.1,10.5-7.9,14.2-10.9,2.3-2.5-.4-4.9-2.7-4C77.8,23.6,67,35.4,67.1,36.8A.6.6,0,0,0,67.9,37.4Z" fill="rgba(0,133.875,136.935,1)" fill-rule="evenodd" stroke="none"></path>
    <path id="路径_10904" data-name="路径 10904" d="M9.8,41.6c1,.5,13.9,3.9,15.1,3.5a1.149,1.149,0,0,0,.6-1.1c-.8-1.5-13.2-7.5-15-7.4a2.1,2.1,0,0,0-1.5.7A2.752,2.752,0,0,0,9.8,41.6Z" fill="rgba(0,133.875,136.935,1)" fill-rule="evenodd" stroke="none"></path>
    <path id="路径_10905" data-name="路径 10905" d="M69.5,43.8a.934.934,0,0,0,0,.9.829.829,0,0,0,.8.3c1.6-.2,20.3-7.2,20.7-7.6,2.2-1.6,1.1-4.8-2-4.6C87.2,33.6,70.1,42.7,69.5,43.8Z" fill="rgba(0,133.875,136.935,1)" fill-rule="evenodd" stroke="none"></path>
    <path id="路径_10906" data-name="路径 10906" d="M24.7,54.1a1.252,1.252,0,0,0-.8-1.3c-3,0-15.7-.3-18.1.3a2.726,2.726,0,0,0-1.5,1.3,2.792,2.792,0,0,0,1.7,4C7.4,58.6,24.4,55.9,24.7,54.1Z" fill="rgba(0,133.875,136.935,1)" fill-rule="evenodd" stroke="none"></path>
    <path id="路径_10907" data-name="路径 10907" d="M25.6,62.3c-2.4.9-17,4.2-15.4,8.8.5,1.5,2.1,2.4,4.6,1.2a88.508,88.508,0,0,0,11.7-8.2C27.4,63.3,26.9,62.1,25.6,62.3Z" fill="rgba(0,133.875,136.935,1)" fill-rule="evenodd" stroke="none"></path>
    <path id="路径_10908" data-name="路径 10908" d="M96.3,63a20.808,20.808,0,0,0-7.4-1.3c-.9.1-2,1.5-1.2,2.5a8.123,8.123,0,0,0,2.9,1.9c2,.8,5.9,3,6.9-.3A2.5,2.5,0,0,0,96.3,63Z" fill="rgba(0,133.875,136.935,1)" fill-rule="evenodd" stroke="none"></path>
    <path id="路径_10909" data-name="路径 10909" d="M30.2,70.9c-2.2,1.5-3.6,2.7-5.7,4.2l-3.6,2.7a2.741,2.741,0,0,0,.6,3.9,2.986,2.986,0,0,0,2.9-.1c2.6-3.1,5.1-6.1,7.7-9.2C32.7,71.2,31.9,69.8,30.2,70.9Z" fill="rgba(0,133.875,136.935,1)" fill-rule="evenodd" stroke="none"></path>
    <path id="路径_10910" data-name="路径 10910" d="M80.3,71.8A3,3,0,0,0,78.8,73c-.5,1.4.6,2.2,1.2,2.8,1.2,1.3,3,3.9,5.3,1.9a2.139,2.139,0,0,0,.7-1.8C85.9,73.6,81.4,71.7,80.3,71.8Z" fill="rgba(0,133.875,136.935,1)" fill-rule="evenodd" stroke="none"></path>
    <path id="路径_10911" data-name="路径 10911" d="M38.3,76.6c-1.6,1-3,3.6-4,5.2-.4.6-.9,1.3-1.3,1.9a2.757,2.757,0,0,0,1.7,3.4,2.605,2.605,0,0,0,2.3-.5c1.4-1.2,3.2-7.8,3.2-8.6A1.368,1.368,0,0,0,38.3,76.6Z" fill="rgba(0,133.875,136.935,1)" fill-rule="evenodd" stroke="none"></path>
    <path id="路径_10912" data-name="路径 10912" d="M69.8,78.3a1.831,1.831,0,0,0-1.7,2c0,.5.4,1,.5,1.4.6,1.5,1.5,4.3,3.9,3.3C76.3,83.5,72.6,78.1,69.8,78.3Z" fill="rgba(0,133.875,136.935,1)" fill-rule="evenodd" stroke="none"></path>
    <path id="路径_10913" data-name="路径 10913" d="M49.6,80.8a1.438,1.438,0,0,0-2-.7c-1.2.8-1.4,2.3-1.8,3.9-.6,2.2-1.7,4.9,1.7,5.3a1.461,1.461,0,0,0,1.2-.4c1.7-.8,1.4-2.7,1.2-5.2C49.9,82.9,50,81.4,49.6,80.8Z" fill="rgba(0,133.875,136.935,1)" fill-rule="evenodd" stroke="none"></path>
    <path id="路径_10914" data-name="路径 10914" d="M58.7,80.7A1.927,1.927,0,0,0,57,82.1a8.1,8.1,0,0,0,0,2.2c.1,2.3.1,3.4,1.7,4.1a2.1,2.1,0,0,0,1.4.2c2.9-.7,1.9-3.3,1-5.2C60.6,82,60.4,80.9,58.7,80.7Z" fill="rgba(0,133.875,136.935,1)" fill-rule="evenodd" stroke="none"></path>
  </g>

    </g>
  </svg>