<svg xmlns="http://www.w3.org/2000/svg" width="130.01" height="130" viewBox="0 0 130.01 130">
  <g id="组_602" data-name="组 602" transform="translate(9726.005 -5036)">
    <path id="路径_11120" data-name="路径 11120" d="M0-65A65,65,0,0,1,61.819-20.086,65,65,0,0,1,38.206,52.586a65,65,0,0,1-76.412,0l10.58-14.562a47,47,0,0,0,55.252,0A47,47,0,0,0,44.7-14.524,47,47,0,0,0,0-47Z" transform="translate(-9661 5101)" fill="#00b38b"/>
    <path id="路径_11121" data-name="路径 11121" d="M-38.206,52.586A65,65,0,0,1-61.819-20.086,65,65,0,0,1,0-65v18A47,47,0,0,0-44.7-14.524,47,47,0,0,0-27.626,38.024Z" transform="translate(-9661 5101)" fill="#ff5000"/>
  </g>
</svg>
