<svg xmlns="http://www.w3.org/2000/svg" width="130.005" height="130.009" viewBox="0 0 130.005 130.009">
  <g id="_2" data-name="2" transform="translate(9340.001 -5029)">
    <path id="路径_11122" data-name="路径 11122" d="M0-65A65,65,0,0,1,64.644-6.794,65,65,0,0,1,13.514,63.58,65,65,0,0,1-61.819,20.086L-44.7,14.524A47,47,0,0,0,9.772,45.973,47,47,0,0,0,46.743-4.913,47,47,0,0,0,0-47Z" transform="translate(-9275 5094)" fill="#00b38b"/>
    <path id="路径_11123" data-name="路径 11123" d="M-61.819,20.086a65,65,0,0,1,9.233-58.292A65,65,0,0,1,0-65v18A47,47,0,0,0-38.024-27.626,47,47,0,0,0-44.7,14.524Z" transform="translate(-9275 5094)" fill="orange"/>
  </g>
</svg>
