<svg xmlns="http://www.w3.org/2000/svg" width="130.01" height="130" viewBox="0 0 130.01 130">
  <g id="_3" data-name="3" transform="translate(9340.005 -5029)">
    <path id="路径_11124" data-name="路径 11124" d="M0-65A65,65,0,0,1,61.819-20.086,65,65,0,0,1,38.206,52.586a65,65,0,0,1-76.412,0A65,65,0,0,1-61.819-20.086L-44.7-14.524A47,47,0,0,0-27.626,38.024a47,47,0,0,0,55.252,0A47,47,0,0,0,44.7-14.524,47,47,0,0,0,0-47Z" transform="translate(-9275 5094)" fill="#00b38b"/>
    <path id="路径_11125" data-name="路径 11125" d="M-61.819-20.086A65,65,0,0,1,0-65v18A47,47,0,0,0-44.7-14.524Z" transform="translate(-9275 5094)" fill="orange"/>
  </g>
</svg>
